G04 #@! TF.GenerationSoftware,KiCad,Pcbnew,(5.0.0)*
G04 #@! TF.CreationDate,2019-04-09T22:58:22-03:00*
G04 #@! TF.ProjectId,FranzBoy,4672616E7A426F792E6B696361645F70,rev?*
G04 #@! TF.SameCoordinates,Original*
G04 #@! TF.FileFunction,Paste,Top*
G04 #@! TF.FilePolarity,Positive*
%FSLAX46Y46*%
G04 Gerber Fmt 4.6, Leading zero omitted, Abs format (unit mm)*
G04 Created by KiCad (PCBNEW (5.0.0)) date 04/09/19 22:58:22*
%MOMM*%
%LPD*%
G01*
G04 APERTURE LIST*
%ADD10R,0.900000X1.200000*%
%ADD11R,0.750000X1.200000*%
%ADD12R,1.200000X0.750000*%
%ADD13R,7.875000X2.000000*%
%ADD14R,0.800000X1.900000*%
%ADD15R,3.300000X1.700000*%
%ADD16R,1.200000X0.900000*%
%ADD17R,2.000000X1.500000*%
%ADD18R,2.000000X3.800000*%
%ADD19R,1.500000X1.900000*%
%ADD20R,0.400000X1.350000*%
G04 APERTURE END LIST*
D10*
G04 #@! TO.C,R1*
X118745000Y-108120000D03*
X118745000Y-110320000D03*
G04 #@! TD*
D11*
G04 #@! TO.C,C1*
X116840000Y-108270000D03*
X116840000Y-110170000D03*
G04 #@! TD*
D12*
G04 #@! TO.C,C2*
X136845000Y-114046000D03*
X138745000Y-114046000D03*
G04 #@! TD*
G04 #@! TO.C,C3*
X140655000Y-114046000D03*
X142555000Y-114046000D03*
G04 #@! TD*
D13*
G04 #@! TO.C,Y1*
X146907500Y-110490000D03*
X135032500Y-110490000D03*
G04 #@! TD*
D14*
G04 #@! TO.C,Q1*
X148336000Y-121896000D03*
X147386000Y-118896000D03*
X149286000Y-118896000D03*
G04 #@! TD*
D12*
G04 #@! TO.C,C4*
X134935000Y-106680000D03*
X133035000Y-106680000D03*
G04 #@! TD*
D10*
G04 #@! TO.C,R2*
X142875000Y-88476000D03*
X142875000Y-86276000D03*
G04 #@! TD*
G04 #@! TO.C,R3*
X141097000Y-86276000D03*
X141097000Y-88476000D03*
G04 #@! TD*
D12*
G04 #@! TO.C,C5*
X150810000Y-166370000D03*
X148910000Y-166370000D03*
G04 #@! TD*
G04 #@! TO.C,C6*
X148910000Y-156210000D03*
X150810000Y-156210000D03*
G04 #@! TD*
D10*
G04 #@! TO.C,D1*
X155194000Y-90140882D03*
X155194000Y-92340882D03*
G04 #@! TD*
G04 #@! TO.C,R4*
X156718000Y-92340882D03*
X156718000Y-90140882D03*
G04 #@! TD*
D15*
G04 #@! TO.C,D2*
X125305000Y-167005000D03*
X119805000Y-167005000D03*
G04 #@! TD*
G04 #@! TO.C,D3*
X125305000Y-170180000D03*
X119805000Y-170180000D03*
G04 #@! TD*
D16*
G04 #@! TO.C,R5*
X131910000Y-167005000D03*
X129710000Y-167005000D03*
G04 #@! TD*
G04 #@! TO.C,R6*
X121455000Y-172720000D03*
X123655000Y-172720000D03*
G04 #@! TD*
G04 #@! TO.C,R7*
X121455000Y-163195000D03*
X123655000Y-163195000D03*
G04 #@! TD*
G04 #@! TO.C,R8*
X123655000Y-164846000D03*
X121455000Y-164846000D03*
G04 #@! TD*
D15*
G04 #@! TO.C,D4*
X140760000Y-168910000D03*
X146260000Y-168910000D03*
G04 #@! TD*
D17*
G04 #@! TO.C,U2*
X146710000Y-158990000D03*
X146710000Y-163590000D03*
X146710000Y-161290000D03*
D18*
X153010000Y-161290000D03*
G04 #@! TD*
D14*
G04 #@! TO.C,Q2*
X150876000Y-92432000D03*
X149926000Y-89432000D03*
X151826000Y-89432000D03*
G04 #@! TD*
D10*
G04 #@! TO.C,R9*
X151130000Y-116375000D03*
X151130000Y-118575000D03*
G04 #@! TD*
G04 #@! TO.C,R10*
X153574000Y-92340882D03*
X153574000Y-90140882D03*
G04 #@! TD*
G04 #@! TO.C,R11*
X158369000Y-90170000D03*
X158369000Y-92370000D03*
G04 #@! TD*
D19*
G04 #@! TO.C,J4*
X134001000Y-178529500D03*
D20*
X135001000Y-175829500D03*
X135651000Y-175829500D03*
X136301000Y-175829500D03*
X133701000Y-175829500D03*
X134351000Y-175829500D03*
D19*
X136001000Y-178529500D03*
G04 #@! TD*
M02*
