G04 #@! TF.GenerationSoftware,KiCad,Pcbnew,(5.0.0)*
G04 #@! TF.CreationDate,2019-04-09T22:58:22-03:00*
G04 #@! TF.ProjectId,FranzBoy,4672616E7A426F792E6B696361645F70,rev?*
G04 #@! TF.SameCoordinates,Original*
G04 #@! TF.FileFunction,Soldermask,Top*
G04 #@! TF.FilePolarity,Negative*
%FSLAX46Y46*%
G04 Gerber Fmt 4.6, Leading zero omitted, Abs format (unit mm)*
G04 Created by KiCad (PCBNEW (5.0.0)) date 04/09/19 22:58:22*
%MOMM*%
%LPD*%
G01*
G04 APERTURE LIST*
%ADD10O,2.400000X2.400000*%
%ADD11C,3.600000*%
%ADD12C,2.400000*%
%ADD13R,2.400000X2.400000*%
%ADD14O,2.000000X2.800000*%
%ADD15R,2.000000X2.800000*%
%ADD16O,2.100000X2.100000*%
%ADD17R,2.100000X2.100000*%
%ADD18R,1.300000X1.600000*%
%ADD19R,1.150000X1.600000*%
%ADD20R,1.600000X1.150000*%
%ADD21R,8.275000X2.400000*%
%ADD22R,1.200000X2.300000*%
%ADD23C,1.924000*%
%ADD24R,3.700000X2.100000*%
%ADD25R,1.600000X1.300000*%
%ADD26R,2.400000X1.900000*%
%ADD27R,2.400000X4.200000*%
%ADD28C,2.800000*%
%ADD29R,2.900000X1.900000*%
%ADD30O,2.900000X1.900000*%
%ADD31O,3.900000X2.400000*%
%ADD32O,15.400000X3.400000*%
%ADD33C,2.200000*%
%ADD34R,2.200000X2.200000*%
%ADD35C,0.300000*%
%ADD36C,0.100000*%
%ADD37R,1.600000X2.300000*%
%ADD38O,1.600000X2.300000*%
%ADD39R,1.900000X2.300000*%
%ADD40R,0.800000X1.750000*%
%ADD41O,2.300000X1.600000*%
%ADD42C,1.200000*%
G04 APERTURE END LIST*
D10*
G04 #@! TO.C,U3*
X135636000Y-154644000D03*
X135636000Y-157644000D03*
X135636000Y-165444000D03*
X135636000Y-168444000D03*
X158496000Y-154644000D03*
X158496000Y-168444000D03*
G04 #@! TD*
D11*
G04 #@! TO.C,REF\002A\002A*
X156000000Y-176000000D03*
G04 #@! TD*
G04 #@! TO.C,REF\002A\002A*
X114000000Y-176000000D03*
G04 #@! TD*
G04 #@! TO.C,REF\002A\002A*
X114000000Y-84000000D03*
G04 #@! TD*
D12*
G04 #@! TO.C,BZ1*
X141600000Y-124000000D03*
D13*
X134000000Y-124000000D03*
G04 #@! TD*
D14*
G04 #@! TO.C,U1*
X117475000Y-96520000D03*
X150495000Y-104140000D03*
X120015000Y-96520000D03*
X147955000Y-104140000D03*
X122555000Y-96520000D03*
X145415000Y-104140000D03*
X125095000Y-96520000D03*
X142875000Y-104140000D03*
X127635000Y-96520000D03*
X140335000Y-104140000D03*
X130175000Y-96520000D03*
X137795000Y-104140000D03*
X132715000Y-96520000D03*
X135255000Y-104140000D03*
X135255000Y-96520000D03*
X132715000Y-104140000D03*
X137795000Y-96520000D03*
X130175000Y-104140000D03*
X140335000Y-96520000D03*
X127635000Y-104140000D03*
X142875000Y-96520000D03*
X125095000Y-104140000D03*
X145415000Y-96520000D03*
X122555000Y-104140000D03*
X147955000Y-96520000D03*
X120015000Y-104140000D03*
X150495000Y-96520000D03*
D15*
X117475000Y-104140000D03*
G04 #@! TD*
D12*
G04 #@! TO.C,SW1*
X123000000Y-129500000D03*
X127500000Y-129500000D03*
X123000000Y-136000000D03*
X127500000Y-136000000D03*
G04 #@! TD*
G04 #@! TO.C,SW2*
X127500000Y-156000000D03*
X123000000Y-156000000D03*
X127500000Y-149500000D03*
X123000000Y-149500000D03*
G04 #@! TD*
G04 #@! TO.C,SW3*
X115000000Y-139500000D03*
X119500000Y-139500000D03*
X115000000Y-146000000D03*
X119500000Y-146000000D03*
G04 #@! TD*
G04 #@! TO.C,SW4*
X135500000Y-146000000D03*
X131000000Y-146000000D03*
X135500000Y-139500000D03*
X131000000Y-139500000D03*
G04 #@! TD*
G04 #@! TO.C,SW5*
X148000000Y-130500000D03*
X152500000Y-130500000D03*
X148000000Y-137000000D03*
X152500000Y-137000000D03*
G04 #@! TD*
G04 #@! TO.C,SW6*
X152455000Y-151130000D03*
X147955000Y-151130000D03*
X152455000Y-144630000D03*
X147955000Y-144630000D03*
G04 #@! TD*
D16*
G04 #@! TO.C,ISP*
X157480000Y-102870000D03*
X154940000Y-102870000D03*
X157480000Y-100330000D03*
X154940000Y-100330000D03*
X157480000Y-97790000D03*
D17*
X154940000Y-97790000D03*
G04 #@! TD*
D18*
G04 #@! TO.C,R1*
X118745000Y-108120000D03*
X118745000Y-110320000D03*
G04 #@! TD*
D19*
G04 #@! TO.C,C1*
X116840000Y-108270000D03*
X116840000Y-110170000D03*
G04 #@! TD*
D16*
G04 #@! TO.C,J2*
X112395000Y-107315000D03*
X112395000Y-104775000D03*
X112395000Y-102235000D03*
X112395000Y-99695000D03*
X112395000Y-97155000D03*
D17*
X112395000Y-94615000D03*
G04 #@! TD*
D20*
G04 #@! TO.C,C2*
X136845000Y-114046000D03*
X138745000Y-114046000D03*
G04 #@! TD*
G04 #@! TO.C,C3*
X140655000Y-114046000D03*
X142555000Y-114046000D03*
G04 #@! TD*
D21*
G04 #@! TO.C,Y1*
X146907500Y-110490000D03*
X135032500Y-110490000D03*
G04 #@! TD*
D22*
G04 #@! TO.C,Q1*
X148336000Y-121896000D03*
X147386000Y-118896000D03*
X149286000Y-118896000D03*
G04 #@! TD*
D20*
G04 #@! TO.C,C4*
X134935000Y-106680000D03*
X133035000Y-106680000D03*
G04 #@! TD*
D23*
G04 #@! TO.C,LCD1*
X131064000Y-89598500D03*
X133604000Y-89598500D03*
X136144000Y-89598500D03*
X138684000Y-89598500D03*
G04 #@! TD*
D18*
G04 #@! TO.C,R2*
X142875000Y-88476000D03*
X142875000Y-86276000D03*
G04 #@! TD*
G04 #@! TO.C,R3*
X141097000Y-86276000D03*
X141097000Y-88476000D03*
G04 #@! TD*
D20*
G04 #@! TO.C,C5*
X150810000Y-166370000D03*
X148910000Y-166370000D03*
G04 #@! TD*
G04 #@! TO.C,C6*
X148910000Y-156210000D03*
X150810000Y-156210000D03*
G04 #@! TD*
D18*
G04 #@! TO.C,D1*
X155194000Y-90140882D03*
X155194000Y-92340882D03*
G04 #@! TD*
G04 #@! TO.C,R4*
X156718000Y-92340882D03*
X156718000Y-90140882D03*
G04 #@! TD*
D24*
G04 #@! TO.C,D2*
X125305000Y-167005000D03*
X119805000Y-167005000D03*
G04 #@! TD*
G04 #@! TO.C,D3*
X125305000Y-170180000D03*
X119805000Y-170180000D03*
G04 #@! TD*
D25*
G04 #@! TO.C,R5*
X131910000Y-167005000D03*
X129710000Y-167005000D03*
G04 #@! TD*
G04 #@! TO.C,R6*
X121455000Y-172720000D03*
X123655000Y-172720000D03*
G04 #@! TD*
G04 #@! TO.C,R7*
X121455000Y-163195000D03*
X123655000Y-163195000D03*
G04 #@! TD*
G04 #@! TO.C,R8*
X123655000Y-164846000D03*
X121455000Y-164846000D03*
G04 #@! TD*
D24*
G04 #@! TO.C,D4*
X140760000Y-168910000D03*
X146260000Y-168910000D03*
G04 #@! TD*
D16*
G04 #@! TO.C,J3*
X147955000Y-173355000D03*
D17*
X150495000Y-173355000D03*
G04 #@! TD*
D26*
G04 #@! TO.C,U2*
X146710000Y-158990000D03*
X146710000Y-163590000D03*
X146710000Y-161290000D03*
D27*
X153010000Y-161290000D03*
G04 #@! TD*
D28*
G04 #@! TO.C,BT1*
X132080000Y-118110000D03*
X112080000Y-118110000D03*
G04 #@! TD*
D29*
G04 #@! TO.C,SW7*
X114935000Y-157416500D03*
D30*
X114935000Y-159416500D03*
X114935000Y-161416500D03*
D31*
X114935000Y-155216500D03*
X114935000Y-163616500D03*
G04 #@! TD*
D11*
G04 #@! TO.C,REF\002A\002A*
X156000000Y-84000000D03*
G04 #@! TD*
D32*
G04 #@! TO.C,REF\002A\002A*
X135000000Y-83000000D03*
G04 #@! TD*
D33*
G04 #@! TO.C,D5*
X146685000Y-85725000D03*
D34*
X149225000Y-85725000D03*
G04 #@! TD*
D22*
G04 #@! TO.C,Q2*
X150876000Y-92432000D03*
X149926000Y-89432000D03*
X151826000Y-89432000D03*
G04 #@! TD*
D18*
G04 #@! TO.C,R9*
X151130000Y-116375000D03*
X151130000Y-118575000D03*
G04 #@! TD*
G04 #@! TO.C,R10*
X153574000Y-92340882D03*
X153574000Y-90140882D03*
G04 #@! TD*
G04 #@! TO.C,R11*
X158369000Y-90170000D03*
X158369000Y-92370000D03*
G04 #@! TD*
D16*
G04 #@! TO.C,J5*
X118618000Y-86106000D03*
X121158000Y-86106000D03*
X123698000Y-86106000D03*
D17*
X126238000Y-86106000D03*
G04 #@! TD*
D16*
G04 #@! TO.C,J6*
X157480000Y-128778000D03*
X157480000Y-126238000D03*
X157480000Y-123698000D03*
X157480000Y-121158000D03*
X157480000Y-118618000D03*
X157480000Y-116078000D03*
D17*
X157480000Y-113538000D03*
G04 #@! TD*
D35*
G04 #@! TO.C,JP1*
X142875000Y-160565000D03*
D36*
G36*
X141928843Y-160025982D02*
X141940224Y-159988463D01*
X141958706Y-159953886D01*
X141983579Y-159923579D01*
X142013886Y-159898706D01*
X142048463Y-159880224D01*
X142085982Y-159868843D01*
X142125000Y-159865000D01*
X143625000Y-159865000D01*
X143664018Y-159868843D01*
X143701537Y-159880224D01*
X143736114Y-159898706D01*
X143766421Y-159923579D01*
X143791294Y-159953886D01*
X143809776Y-159988463D01*
X143821157Y-160025982D01*
X143825000Y-160065000D01*
X143825000Y-161215000D01*
X143821157Y-161254018D01*
X143809776Y-161291537D01*
X143791294Y-161326114D01*
X143766421Y-161356421D01*
X143736114Y-161381294D01*
X143701537Y-161399776D01*
X143664018Y-161411157D01*
X143625000Y-161415000D01*
X143585982Y-161411157D01*
X143548463Y-161399776D01*
X143514060Y-161381410D01*
X142875000Y-160955370D01*
X142235940Y-161381410D01*
X142201343Y-161399856D01*
X142163813Y-161411198D01*
X142124791Y-161415000D01*
X142085777Y-161411116D01*
X142048270Y-161399696D01*
X142013712Y-161381178D01*
X141983431Y-161356273D01*
X141958590Y-161325940D01*
X141940144Y-161291343D01*
X141928802Y-161253813D01*
X141925000Y-161215000D01*
X141925000Y-160065000D01*
X141928843Y-160025982D01*
X141928843Y-160025982D01*
G37*
D35*
X142875000Y-162015000D03*
D36*
G36*
X141928843Y-161475982D02*
X141940224Y-161438463D01*
X141958706Y-161403886D01*
X141983579Y-161373579D01*
X142014060Y-161348590D01*
X142764060Y-160848590D01*
X142798657Y-160830144D01*
X142836187Y-160818802D01*
X142875209Y-160815000D01*
X142914223Y-160818884D01*
X142951730Y-160830304D01*
X142985940Y-160848590D01*
X143735940Y-161348590D01*
X143766273Y-161373431D01*
X143791178Y-161403712D01*
X143809696Y-161438270D01*
X143821116Y-161475777D01*
X143825000Y-161515000D01*
X143825000Y-162515000D01*
X143821157Y-162554018D01*
X143809776Y-162591537D01*
X143791294Y-162626114D01*
X143766421Y-162656421D01*
X143736114Y-162681294D01*
X143701537Y-162699776D01*
X143664018Y-162711157D01*
X143625000Y-162715000D01*
X142125000Y-162715000D01*
X142085982Y-162711157D01*
X142048463Y-162699776D01*
X142013886Y-162681294D01*
X141983579Y-162656421D01*
X141958706Y-162626114D01*
X141940224Y-162591537D01*
X141928843Y-162554018D01*
X141925000Y-162515000D01*
X141925000Y-161515000D01*
X141928843Y-161475982D01*
X141928843Y-161475982D01*
G37*
G04 #@! TD*
D37*
G04 #@! TO.C,J4*
X132101000Y-178529500D03*
X137901000Y-178529500D03*
D38*
X138501000Y-178529500D03*
X131501000Y-178529500D03*
D39*
X134001000Y-178529500D03*
D40*
X135001000Y-175829500D03*
X135651000Y-175829500D03*
X136301000Y-175829500D03*
X133701000Y-175829500D03*
X134351000Y-175829500D03*
D39*
X136001000Y-178529500D03*
D41*
X137901000Y-175829500D03*
X132101000Y-175829500D03*
D42*
X136951000Y-176629500D03*
X133051000Y-176629500D03*
G04 #@! TD*
M02*
