G04 #@! TF.GenerationSoftware,KiCad,Pcbnew,(5.0.0)*
G04 #@! TF.CreationDate,2019-04-09T22:58:22-03:00*
G04 #@! TF.ProjectId,FranzBoy,4672616E7A426F792E6B696361645F70,rev?*
G04 #@! TF.SameCoordinates,Original*
G04 #@! TF.FileFunction,Soldermask,Bot*
G04 #@! TF.FilePolarity,Negative*
%FSLAX46Y46*%
G04 Gerber Fmt 4.6, Leading zero omitted, Abs format (unit mm)*
G04 Created by KiCad (PCBNEW (5.0.0)) date 04/09/19 22:58:22*
%MOMM*%
%LPD*%
G01*
G04 APERTURE LIST*
%ADD10O,2.400000X2.400000*%
%ADD11C,3.600000*%
%ADD12C,2.400000*%
%ADD13R,2.400000X2.400000*%
%ADD14O,2.000000X2.800000*%
%ADD15R,2.000000X2.800000*%
%ADD16O,2.100000X2.100000*%
%ADD17R,2.100000X2.100000*%
%ADD18C,1.924000*%
%ADD19C,2.800000*%
%ADD20R,2.900000X1.900000*%
%ADD21O,2.900000X1.900000*%
%ADD22O,3.900000X2.400000*%
%ADD23O,15.400000X3.400000*%
%ADD24C,2.200000*%
%ADD25R,2.200000X2.200000*%
%ADD26O,1.600000X2.300000*%
%ADD27O,2.300000X1.600000*%
%ADD28C,1.200000*%
G04 APERTURE END LIST*
D10*
G04 #@! TO.C,U3*
X135636000Y-154644000D03*
X135636000Y-157644000D03*
X135636000Y-165444000D03*
X135636000Y-168444000D03*
X158496000Y-154644000D03*
X158496000Y-168444000D03*
G04 #@! TD*
D11*
G04 #@! TO.C,REF\002A\002A*
X156000000Y-176000000D03*
G04 #@! TD*
G04 #@! TO.C,REF\002A\002A*
X114000000Y-176000000D03*
G04 #@! TD*
G04 #@! TO.C,REF\002A\002A*
X114000000Y-84000000D03*
G04 #@! TD*
D12*
G04 #@! TO.C,BZ1*
X141600000Y-124000000D03*
D13*
X134000000Y-124000000D03*
G04 #@! TD*
D14*
G04 #@! TO.C,U1*
X117475000Y-96520000D03*
X150495000Y-104140000D03*
X120015000Y-96520000D03*
X147955000Y-104140000D03*
X122555000Y-96520000D03*
X145415000Y-104140000D03*
X125095000Y-96520000D03*
X142875000Y-104140000D03*
X127635000Y-96520000D03*
X140335000Y-104140000D03*
X130175000Y-96520000D03*
X137795000Y-104140000D03*
X132715000Y-96520000D03*
X135255000Y-104140000D03*
X135255000Y-96520000D03*
X132715000Y-104140000D03*
X137795000Y-96520000D03*
X130175000Y-104140000D03*
X140335000Y-96520000D03*
X127635000Y-104140000D03*
X142875000Y-96520000D03*
X125095000Y-104140000D03*
X145415000Y-96520000D03*
X122555000Y-104140000D03*
X147955000Y-96520000D03*
X120015000Y-104140000D03*
X150495000Y-96520000D03*
D15*
X117475000Y-104140000D03*
G04 #@! TD*
D12*
G04 #@! TO.C,SW1*
X123000000Y-129500000D03*
X127500000Y-129500000D03*
X123000000Y-136000000D03*
X127500000Y-136000000D03*
G04 #@! TD*
G04 #@! TO.C,SW2*
X127500000Y-156000000D03*
X123000000Y-156000000D03*
X127500000Y-149500000D03*
X123000000Y-149500000D03*
G04 #@! TD*
G04 #@! TO.C,SW3*
X115000000Y-139500000D03*
X119500000Y-139500000D03*
X115000000Y-146000000D03*
X119500000Y-146000000D03*
G04 #@! TD*
G04 #@! TO.C,SW4*
X135500000Y-146000000D03*
X131000000Y-146000000D03*
X135500000Y-139500000D03*
X131000000Y-139500000D03*
G04 #@! TD*
G04 #@! TO.C,SW5*
X148000000Y-130500000D03*
X152500000Y-130500000D03*
X148000000Y-137000000D03*
X152500000Y-137000000D03*
G04 #@! TD*
G04 #@! TO.C,SW6*
X152455000Y-151130000D03*
X147955000Y-151130000D03*
X152455000Y-144630000D03*
X147955000Y-144630000D03*
G04 #@! TD*
D16*
G04 #@! TO.C,ISP*
X157480000Y-102870000D03*
X154940000Y-102870000D03*
X157480000Y-100330000D03*
X154940000Y-100330000D03*
X157480000Y-97790000D03*
D17*
X154940000Y-97790000D03*
G04 #@! TD*
D16*
G04 #@! TO.C,J2*
X112395000Y-107315000D03*
X112395000Y-104775000D03*
X112395000Y-102235000D03*
X112395000Y-99695000D03*
X112395000Y-97155000D03*
D17*
X112395000Y-94615000D03*
G04 #@! TD*
D18*
G04 #@! TO.C,LCD1*
X131064000Y-89598500D03*
X133604000Y-89598500D03*
X136144000Y-89598500D03*
X138684000Y-89598500D03*
G04 #@! TD*
D16*
G04 #@! TO.C,J3*
X147955000Y-173355000D03*
D17*
X150495000Y-173355000D03*
G04 #@! TD*
D19*
G04 #@! TO.C,BT1*
X132080000Y-118110000D03*
X112080000Y-118110000D03*
G04 #@! TD*
D20*
G04 #@! TO.C,SW7*
X114935000Y-157416500D03*
D21*
X114935000Y-159416500D03*
X114935000Y-161416500D03*
D22*
X114935000Y-155216500D03*
X114935000Y-163616500D03*
G04 #@! TD*
D11*
G04 #@! TO.C,REF\002A\002A*
X156000000Y-84000000D03*
G04 #@! TD*
D23*
G04 #@! TO.C,REF\002A\002A*
X135000000Y-83000000D03*
G04 #@! TD*
D24*
G04 #@! TO.C,D5*
X146685000Y-85725000D03*
D25*
X149225000Y-85725000D03*
G04 #@! TD*
D16*
G04 #@! TO.C,J5*
X118618000Y-86106000D03*
X121158000Y-86106000D03*
X123698000Y-86106000D03*
D17*
X126238000Y-86106000D03*
G04 #@! TD*
D16*
G04 #@! TO.C,J6*
X157480000Y-128778000D03*
X157480000Y-126238000D03*
X157480000Y-123698000D03*
X157480000Y-121158000D03*
X157480000Y-118618000D03*
X157480000Y-116078000D03*
D17*
X157480000Y-113538000D03*
G04 #@! TD*
D26*
G04 #@! TO.C,J4*
X138501000Y-178529500D03*
X131501000Y-178529500D03*
D27*
X137901000Y-175829500D03*
X132101000Y-175829500D03*
D28*
X136951000Y-176629500D03*
X133051000Y-176629500D03*
G04 #@! TD*
M02*
