G04 #@! TF.GenerationSoftware,KiCad,Pcbnew,(5.0.0)*
G04 #@! TF.CreationDate,2019-04-09T22:58:22-03:00*
G04 #@! TF.ProjectId,FranzBoy,4672616E7A426F792E6B696361645F70,rev?*
G04 #@! TF.SameCoordinates,Original*
G04 #@! TF.FileFunction,Copper,L1,Top,Signal*
G04 #@! TF.FilePolarity,Positive*
%FSLAX46Y46*%
G04 Gerber Fmt 4.6, Leading zero omitted, Abs format (unit mm)*
G04 Created by KiCad (PCBNEW (5.0.0)) date 04/09/19 22:58:22*
%MOMM*%
%LPD*%
G01*
G04 APERTURE LIST*
G04 #@! TA.AperFunction,ComponentPad*
%ADD10O,2.000000X2.000000*%
G04 #@! TD*
G04 #@! TA.AperFunction,ComponentPad*
%ADD11C,2.000000*%
G04 #@! TD*
G04 #@! TA.AperFunction,ComponentPad*
%ADD12R,2.000000X2.000000*%
G04 #@! TD*
G04 #@! TA.AperFunction,ComponentPad*
%ADD13O,1.600000X2.400000*%
G04 #@! TD*
G04 #@! TA.AperFunction,ComponentPad*
%ADD14R,1.600000X2.400000*%
G04 #@! TD*
G04 #@! TA.AperFunction,ComponentPad*
%ADD15O,1.700000X1.700000*%
G04 #@! TD*
G04 #@! TA.AperFunction,ComponentPad*
%ADD16R,1.700000X1.700000*%
G04 #@! TD*
G04 #@! TA.AperFunction,SMDPad,CuDef*
%ADD17R,0.900000X1.200000*%
G04 #@! TD*
G04 #@! TA.AperFunction,SMDPad,CuDef*
%ADD18R,0.750000X1.200000*%
G04 #@! TD*
G04 #@! TA.AperFunction,SMDPad,CuDef*
%ADD19R,1.200000X0.750000*%
G04 #@! TD*
G04 #@! TA.AperFunction,SMDPad,CuDef*
%ADD20R,7.875000X2.000000*%
G04 #@! TD*
G04 #@! TA.AperFunction,SMDPad,CuDef*
%ADD21R,0.800000X1.900000*%
G04 #@! TD*
G04 #@! TA.AperFunction,ComponentPad*
%ADD22C,1.524000*%
G04 #@! TD*
G04 #@! TA.AperFunction,SMDPad,CuDef*
%ADD23R,3.300000X1.700000*%
G04 #@! TD*
G04 #@! TA.AperFunction,SMDPad,CuDef*
%ADD24R,1.200000X0.900000*%
G04 #@! TD*
G04 #@! TA.AperFunction,SMDPad,CuDef*
%ADD25R,2.000000X1.500000*%
G04 #@! TD*
G04 #@! TA.AperFunction,SMDPad,CuDef*
%ADD26R,2.000000X3.800000*%
G04 #@! TD*
G04 #@! TA.AperFunction,ComponentPad*
%ADD27C,2.400000*%
G04 #@! TD*
G04 #@! TA.AperFunction,ComponentPad*
%ADD28R,2.500000X1.500000*%
G04 #@! TD*
G04 #@! TA.AperFunction,ComponentPad*
%ADD29O,2.500000X1.500000*%
G04 #@! TD*
G04 #@! TA.AperFunction,ComponentPad*
%ADD30O,3.500000X2.000000*%
G04 #@! TD*
G04 #@! TA.AperFunction,ComponentPad*
%ADD31O,15.000000X3.000000*%
G04 #@! TD*
G04 #@! TA.AperFunction,ComponentPad*
%ADD32C,1.800000*%
G04 #@! TD*
G04 #@! TA.AperFunction,ComponentPad*
%ADD33R,1.800000X1.800000*%
G04 #@! TD*
G04 #@! TA.AperFunction,SMDPad,CuDef*
%ADD34C,0.300000*%
G04 #@! TD*
G04 #@! TA.AperFunction,Conductor*
%ADD35C,0.100000*%
G04 #@! TD*
G04 #@! TA.AperFunction,SMDPad,CuDef*
%ADD36R,1.200000X1.900000*%
G04 #@! TD*
G04 #@! TA.AperFunction,ComponentPad*
%ADD37O,1.200000X1.900000*%
G04 #@! TD*
G04 #@! TA.AperFunction,SMDPad,CuDef*
%ADD38R,1.500000X1.900000*%
G04 #@! TD*
G04 #@! TA.AperFunction,SMDPad,CuDef*
%ADD39R,0.400000X1.350000*%
G04 #@! TD*
G04 #@! TA.AperFunction,ComponentPad*
%ADD40O,1.900000X1.200000*%
G04 #@! TD*
G04 #@! TA.AperFunction,ComponentPad*
%ADD41C,0.800000*%
G04 #@! TD*
G04 #@! TA.AperFunction,ViaPad*
%ADD42C,0.800000*%
G04 #@! TD*
G04 #@! TA.AperFunction,Conductor*
%ADD43C,0.381000*%
G04 #@! TD*
G04 #@! TA.AperFunction,Conductor*
%ADD44C,0.812800*%
G04 #@! TD*
G04 #@! TA.AperFunction,Conductor*
%ADD45C,0.508000*%
G04 #@! TD*
G04 #@! TA.AperFunction,Conductor*
%ADD46C,0.250000*%
G04 #@! TD*
G04 #@! TA.AperFunction,Conductor*
%ADD47C,0.254000*%
G04 #@! TD*
G04 APERTURE END LIST*
D10*
G04 #@! TO.P,U3,6*
G04 #@! TO.N,GND*
X135636000Y-154644000D03*
G04 #@! TO.P,U3,5*
G04 #@! TO.N,Net-(J3-Pad1)*
X135636000Y-157644000D03*
G04 #@! TO.P,U3,4*
G04 #@! TO.N,Net-(J3-Pad2)*
X135636000Y-165444000D03*
G04 #@! TO.P,U3,3*
G04 #@! TO.N,Net-(BT1-Pad1)*
X135636000Y-168444000D03*
G04 #@! TO.P,U3,2*
G04 #@! TO.N,N/C*
X158496000Y-154644000D03*
G04 #@! TO.P,U3,1*
X158496000Y-168444000D03*
G04 #@! TD*
D11*
G04 #@! TO.P,BZ1,2*
G04 #@! TO.N,Net-(BZ1-Pad2)*
X141600000Y-124000000D03*
D12*
G04 #@! TO.P,BZ1,1*
G04 #@! TO.N,VCC*
X134000000Y-124000000D03*
G04 #@! TD*
D13*
G04 #@! TO.P,U1,28*
G04 #@! TO.N,I2C_SCL*
X117475000Y-96520000D03*
G04 #@! TO.P,U1,14*
G04 #@! TO.N,D8*
X150495000Y-104140000D03*
G04 #@! TO.P,U1,27*
G04 #@! TO.N,I2C_SDA*
X120015000Y-96520000D03*
G04 #@! TO.P,U1,13*
G04 #@! TO.N,BT_B*
X147955000Y-104140000D03*
G04 #@! TO.P,U1,26*
G04 #@! TO.N,AN3*
X122555000Y-96520000D03*
G04 #@! TO.P,U1,12*
G04 #@! TO.N,BT_A*
X145415000Y-104140000D03*
G04 #@! TO.P,U1,25*
G04 #@! TO.N,AN2*
X125095000Y-96520000D03*
G04 #@! TO.P,U1,11*
G04 #@! TO.N,BT_RIGTH*
X142875000Y-104140000D03*
G04 #@! TO.P,U1,24*
G04 #@! TO.N,AN1*
X127635000Y-96520000D03*
G04 #@! TO.P,U1,10*
G04 #@! TO.N,Net-(C3-Pad2)*
X140335000Y-104140000D03*
G04 #@! TO.P,U1,23*
G04 #@! TO.N,AN0*
X130175000Y-96520000D03*
G04 #@! TO.P,U1,9*
G04 #@! TO.N,Net-(C2-Pad2)*
X137795000Y-104140000D03*
G04 #@! TO.P,U1,22*
G04 #@! TO.N,GND*
X132715000Y-96520000D03*
G04 #@! TO.P,U1,8*
X135255000Y-104140000D03*
G04 #@! TO.P,U1,21*
G04 #@! TO.N,N/C*
X135255000Y-96520000D03*
G04 #@! TO.P,U1,7*
G04 #@! TO.N,VCC*
X132715000Y-104140000D03*
G04 #@! TO.P,U1,20*
X137795000Y-96520000D03*
G04 #@! TO.P,U1,6*
G04 #@! TO.N,BT_DOWN*
X130175000Y-104140000D03*
G04 #@! TO.P,U1,19*
G04 #@! TO.N,SCK*
X140335000Y-96520000D03*
G04 #@! TO.P,U1,5*
G04 #@! TO.N,BT_UP*
X127635000Y-104140000D03*
G04 #@! TO.P,U1,18*
G04 #@! TO.N,MISO*
X142875000Y-96520000D03*
G04 #@! TO.P,U1,4*
G04 #@! TO.N,BT_LEFT*
X125095000Y-104140000D03*
G04 #@! TO.P,U1,17*
G04 #@! TO.N,MOSI*
X145415000Y-96520000D03*
G04 #@! TO.P,U1,3*
G04 #@! TO.N,RX*
X122555000Y-104140000D03*
G04 #@! TO.P,U1,16*
G04 #@! TO.N,IR*
X147955000Y-96520000D03*
G04 #@! TO.P,U1,2*
G04 #@! TO.N,TX*
X120015000Y-104140000D03*
G04 #@! TO.P,U1,15*
G04 #@! TO.N,BUZZER*
X150495000Y-96520000D03*
D14*
G04 #@! TO.P,U1,1*
G04 #@! TO.N,RST*
X117475000Y-104140000D03*
G04 #@! TD*
D11*
G04 #@! TO.P,SW1,1*
G04 #@! TO.N,BT_UP*
X123000000Y-129500000D03*
G04 #@! TO.P,SW1,2*
G04 #@! TO.N,GND*
X127500000Y-129500000D03*
G04 #@! TO.P,SW1,1*
G04 #@! TO.N,BT_UP*
X123000000Y-136000000D03*
G04 #@! TO.P,SW1,2*
G04 #@! TO.N,GND*
X127500000Y-136000000D03*
G04 #@! TD*
G04 #@! TO.P,SW2,2*
G04 #@! TO.N,GND*
X127500000Y-156000000D03*
G04 #@! TO.P,SW2,1*
G04 #@! TO.N,BT_DOWN*
X123000000Y-156000000D03*
G04 #@! TO.P,SW2,2*
G04 #@! TO.N,GND*
X127500000Y-149500000D03*
G04 #@! TO.P,SW2,1*
G04 #@! TO.N,BT_DOWN*
X123000000Y-149500000D03*
G04 #@! TD*
G04 #@! TO.P,SW3,1*
G04 #@! TO.N,BT_LEFT*
X115000000Y-139500000D03*
G04 #@! TO.P,SW3,2*
G04 #@! TO.N,GND*
X119500000Y-139500000D03*
G04 #@! TO.P,SW3,1*
G04 #@! TO.N,BT_LEFT*
X115000000Y-146000000D03*
G04 #@! TO.P,SW3,2*
G04 #@! TO.N,GND*
X119500000Y-146000000D03*
G04 #@! TD*
G04 #@! TO.P,SW4,2*
G04 #@! TO.N,GND*
X135500000Y-146000000D03*
G04 #@! TO.P,SW4,1*
G04 #@! TO.N,BT_RIGTH*
X131000000Y-146000000D03*
G04 #@! TO.P,SW4,2*
G04 #@! TO.N,GND*
X135500000Y-139500000D03*
G04 #@! TO.P,SW4,1*
G04 #@! TO.N,BT_RIGTH*
X131000000Y-139500000D03*
G04 #@! TD*
G04 #@! TO.P,SW5,1*
G04 #@! TO.N,BT_A*
X148000000Y-130500000D03*
G04 #@! TO.P,SW5,2*
G04 #@! TO.N,GND*
X152500000Y-130500000D03*
G04 #@! TO.P,SW5,1*
G04 #@! TO.N,BT_A*
X148000000Y-137000000D03*
G04 #@! TO.P,SW5,2*
G04 #@! TO.N,GND*
X152500000Y-137000000D03*
G04 #@! TD*
G04 #@! TO.P,SW6,2*
G04 #@! TO.N,GND*
X152455000Y-151130000D03*
G04 #@! TO.P,SW6,1*
G04 #@! TO.N,BT_B*
X147955000Y-151130000D03*
G04 #@! TO.P,SW6,2*
G04 #@! TO.N,GND*
X152455000Y-144630000D03*
G04 #@! TO.P,SW6,1*
G04 #@! TO.N,BT_B*
X147955000Y-144630000D03*
G04 #@! TD*
D15*
G04 #@! TO.P,ISP,6*
G04 #@! TO.N,GND*
X157480000Y-102870000D03*
G04 #@! TO.P,ISP,5*
G04 #@! TO.N,RST*
X154940000Y-102870000D03*
G04 #@! TO.P,ISP,4*
G04 #@! TO.N,MOSI*
X157480000Y-100330000D03*
G04 #@! TO.P,ISP,3*
G04 #@! TO.N,SCK*
X154940000Y-100330000D03*
G04 #@! TO.P,ISP,2*
G04 #@! TO.N,VCC*
X157480000Y-97790000D03*
D16*
G04 #@! TO.P,ISP,1*
G04 #@! TO.N,MISO*
X154940000Y-97790000D03*
G04 #@! TD*
D17*
G04 #@! TO.P,R1,2*
G04 #@! TO.N,RST*
X118745000Y-108120000D03*
G04 #@! TO.P,R1,1*
G04 #@! TO.N,VCC*
X118745000Y-110320000D03*
G04 #@! TD*
D18*
G04 #@! TO.P,C1,2*
G04 #@! TO.N,RST*
X116840000Y-108270000D03*
G04 #@! TO.P,C1,1*
G04 #@! TO.N,DTR*
X116840000Y-110170000D03*
G04 #@! TD*
D15*
G04 #@! TO.P,J2,6*
G04 #@! TO.N,GND*
X112395000Y-107315000D03*
G04 #@! TO.P,J2,5*
G04 #@! TO.N,N/C*
X112395000Y-104775000D03*
G04 #@! TO.P,J2,4*
G04 #@! TO.N,VCC*
X112395000Y-102235000D03*
G04 #@! TO.P,J2,3*
G04 #@! TO.N,TX*
X112395000Y-99695000D03*
G04 #@! TO.P,J2,2*
G04 #@! TO.N,RX*
X112395000Y-97155000D03*
D16*
G04 #@! TO.P,J2,1*
G04 #@! TO.N,DTR*
X112395000Y-94615000D03*
G04 #@! TD*
D19*
G04 #@! TO.P,C2,2*
G04 #@! TO.N,Net-(C2-Pad2)*
X136845000Y-114046000D03*
G04 #@! TO.P,C2,1*
G04 #@! TO.N,GND*
X138745000Y-114046000D03*
G04 #@! TD*
G04 #@! TO.P,C3,1*
G04 #@! TO.N,GND*
X140655000Y-114046000D03*
G04 #@! TO.P,C3,2*
G04 #@! TO.N,Net-(C3-Pad2)*
X142555000Y-114046000D03*
G04 #@! TD*
D20*
G04 #@! TO.P,Y1,2*
G04 #@! TO.N,Net-(C3-Pad2)*
X146907500Y-110490000D03*
G04 #@! TO.P,Y1,1*
G04 #@! TO.N,Net-(C2-Pad2)*
X135032500Y-110490000D03*
G04 #@! TD*
D21*
G04 #@! TO.P,Q1,3*
G04 #@! TO.N,Net-(BZ1-Pad2)*
X148336000Y-121896000D03*
G04 #@! TO.P,Q1,2*
G04 #@! TO.N,GND*
X147386000Y-118896000D03*
G04 #@! TO.P,Q1,1*
G04 #@! TO.N,Net-(Q1-Pad1)*
X149286000Y-118896000D03*
G04 #@! TD*
D19*
G04 #@! TO.P,C4,2*
G04 #@! TO.N,GND*
X134935000Y-106680000D03*
G04 #@! TO.P,C4,1*
G04 #@! TO.N,VCC*
X133035000Y-106680000D03*
G04 #@! TD*
D22*
G04 #@! TO.P,LCD1,4*
G04 #@! TO.N,GND*
X131064000Y-89598500D03*
G04 #@! TO.P,LCD1,3*
G04 #@! TO.N,VCC*
X133604000Y-89598500D03*
G04 #@! TO.P,LCD1,2*
G04 #@! TO.N,I2C_SCL*
X136144000Y-89598500D03*
G04 #@! TO.P,LCD1,1*
G04 #@! TO.N,I2C_SDA*
X138684000Y-89598500D03*
G04 #@! TD*
D17*
G04 #@! TO.P,R2,2*
G04 #@! TO.N,I2C_SDA*
X142875000Y-88476000D03*
G04 #@! TO.P,R2,1*
G04 #@! TO.N,VCC*
X142875000Y-86276000D03*
G04 #@! TD*
G04 #@! TO.P,R3,1*
G04 #@! TO.N,VCC*
X141097000Y-86276000D03*
G04 #@! TO.P,R3,2*
G04 #@! TO.N,I2C_SCL*
X141097000Y-88476000D03*
G04 #@! TD*
D19*
G04 #@! TO.P,C5,2*
G04 #@! TO.N,GND*
X150810000Y-166370000D03*
G04 #@! TO.P,C5,1*
G04 #@! TO.N,Net-(C5-Pad1)*
X148910000Y-166370000D03*
G04 #@! TD*
G04 #@! TO.P,C6,1*
G04 #@! TO.N,VCC*
X148910000Y-156210000D03*
G04 #@! TO.P,C6,2*
G04 #@! TO.N,GND*
X150810000Y-156210000D03*
G04 #@! TD*
D17*
G04 #@! TO.P,D1,2*
G04 #@! TO.N,Net-(D1-Pad2)*
X155194000Y-90140882D03*
G04 #@! TO.P,D1,1*
G04 #@! TO.N,GND*
X155194000Y-92340882D03*
G04 #@! TD*
G04 #@! TO.P,R4,2*
G04 #@! TO.N,SCK*
X156718000Y-92340882D03*
G04 #@! TO.P,R4,1*
G04 #@! TO.N,Net-(D1-Pad2)*
X156718000Y-90140882D03*
G04 #@! TD*
D23*
G04 #@! TO.P,D2,1*
G04 #@! TO.N,Net-(D2-Pad1)*
X125305000Y-167005000D03*
G04 #@! TO.P,D2,2*
G04 #@! TO.N,GND*
X119805000Y-167005000D03*
G04 #@! TD*
G04 #@! TO.P,D3,1*
G04 #@! TO.N,Net-(D3-Pad1)*
X125305000Y-170180000D03*
G04 #@! TO.P,D3,2*
G04 #@! TO.N,GND*
X119805000Y-170180000D03*
G04 #@! TD*
D24*
G04 #@! TO.P,R5,2*
G04 #@! TO.N,+5V*
X131910000Y-167005000D03*
G04 #@! TO.P,R5,1*
G04 #@! TO.N,Net-(D2-Pad1)*
X129710000Y-167005000D03*
G04 #@! TD*
G04 #@! TO.P,R6,1*
G04 #@! TO.N,GND*
X121455000Y-172720000D03*
G04 #@! TO.P,R6,2*
G04 #@! TO.N,Net-(D3-Pad1)*
X123655000Y-172720000D03*
G04 #@! TD*
G04 #@! TO.P,R7,2*
G04 #@! TO.N,BT_DOWN*
X121455000Y-163195000D03*
G04 #@! TO.P,R7,1*
G04 #@! TO.N,Net-(D2-Pad1)*
X123655000Y-163195000D03*
G04 #@! TD*
G04 #@! TO.P,R8,1*
G04 #@! TO.N,Net-(D3-Pad1)*
X123655000Y-164846000D03*
G04 #@! TO.P,R8,2*
G04 #@! TO.N,BT_LEFT*
X121455000Y-164846000D03*
G04 #@! TD*
D23*
G04 #@! TO.P,D4,2*
G04 #@! TO.N,+5V*
X140760000Y-168910000D03*
G04 #@! TO.P,D4,1*
G04 #@! TO.N,Net-(BT1-Pad1)*
X146260000Y-168910000D03*
G04 #@! TD*
D15*
G04 #@! TO.P,J3,2*
G04 #@! TO.N,Net-(J3-Pad2)*
X147955000Y-173355000D03*
D16*
G04 #@! TO.P,J3,1*
G04 #@! TO.N,Net-(J3-Pad1)*
X150495000Y-173355000D03*
G04 #@! TD*
D25*
G04 #@! TO.P,U2,1*
G04 #@! TO.N,GND*
X146710000Y-158990000D03*
G04 #@! TO.P,U2,3*
G04 #@! TO.N,Net-(C5-Pad1)*
X146710000Y-163590000D03*
G04 #@! TO.P,U2,2*
G04 #@! TO.N,VCC*
X146710000Y-161290000D03*
D26*
X153010000Y-161290000D03*
G04 #@! TD*
D27*
G04 #@! TO.P,BT1,2*
G04 #@! TO.N,GND*
X132080000Y-118110000D03*
G04 #@! TO.P,BT1,1*
G04 #@! TO.N,Net-(BT1-Pad1)*
X112080000Y-118110000D03*
G04 #@! TD*
D28*
G04 #@! TO.P,SW7,1*
G04 #@! TO.N,Net-(C5-Pad1)*
X114935000Y-157416500D03*
D29*
G04 #@! TO.P,SW7,2*
G04 #@! TO.N,Net-(BT1-Pad1)*
X114935000Y-159416500D03*
G04 #@! TO.P,SW7,3*
G04 #@! TO.N,N/C*
X114935000Y-161416500D03*
D30*
G04 #@! TO.P,SW7,*
G04 #@! TO.N,*
X114935000Y-155216500D03*
X114935000Y-163616500D03*
G04 #@! TD*
D31*
G04 #@! TO.P,REF\002A\002A,*
G04 #@! TO.N,*
X135000000Y-83000000D03*
G04 #@! TD*
D32*
G04 #@! TO.P,D5,2*
G04 #@! TO.N,Net-(D5-Pad2)*
X146685000Y-85725000D03*
D33*
G04 #@! TO.P,D5,1*
G04 #@! TO.N,Net-(D5-Pad1)*
X149225000Y-85725000D03*
G04 #@! TD*
D21*
G04 #@! TO.P,Q2,3*
G04 #@! TO.N,Net-(D5-Pad1)*
X150876000Y-92432000D03*
G04 #@! TO.P,Q2,2*
G04 #@! TO.N,GND*
X149926000Y-89432000D03*
G04 #@! TO.P,Q2,1*
G04 #@! TO.N,Net-(Q2-Pad1)*
X151826000Y-89432000D03*
G04 #@! TD*
D17*
G04 #@! TO.P,R9,2*
G04 #@! TO.N,BUZZER*
X151130000Y-116375000D03*
G04 #@! TO.P,R9,1*
G04 #@! TO.N,Net-(Q1-Pad1)*
X151130000Y-118575000D03*
G04 #@! TD*
G04 #@! TO.P,R10,2*
G04 #@! TO.N,IR*
X153574000Y-92340882D03*
G04 #@! TO.P,R10,1*
G04 #@! TO.N,Net-(Q2-Pad1)*
X153574000Y-90140882D03*
G04 #@! TD*
G04 #@! TO.P,R11,1*
G04 #@! TO.N,Net-(D5-Pad2)*
X158369000Y-90170000D03*
G04 #@! TO.P,R11,2*
G04 #@! TO.N,VCC*
X158369000Y-92370000D03*
G04 #@! TD*
D15*
G04 #@! TO.P,J5,4*
G04 #@! TO.N,GND*
X118618000Y-86106000D03*
G04 #@! TO.P,J5,3*
G04 #@! TO.N,VCC*
X121158000Y-86106000D03*
G04 #@! TO.P,J5,2*
G04 #@! TO.N,I2C_SCL*
X123698000Y-86106000D03*
D16*
G04 #@! TO.P,J5,1*
G04 #@! TO.N,I2C_SDA*
X126238000Y-86106000D03*
G04 #@! TD*
D15*
G04 #@! TO.P,J6,7*
G04 #@! TO.N,GND*
X157480000Y-128778000D03*
G04 #@! TO.P,J6,6*
G04 #@! TO.N,VCC*
X157480000Y-126238000D03*
G04 #@! TO.P,J6,5*
G04 #@! TO.N,AN3*
X157480000Y-123698000D03*
G04 #@! TO.P,J6,4*
G04 #@! TO.N,AN2*
X157480000Y-121158000D03*
G04 #@! TO.P,J6,3*
G04 #@! TO.N,AN1*
X157480000Y-118618000D03*
G04 #@! TO.P,J6,2*
G04 #@! TO.N,AN0*
X157480000Y-116078000D03*
D16*
G04 #@! TO.P,J6,1*
G04 #@! TO.N,D8*
X157480000Y-113538000D03*
G04 #@! TD*
D34*
G04 #@! TO.P,JP1,2*
G04 #@! TO.N,VCC*
X142875000Y-160565000D03*
D35*
G04 #@! TD*
G04 #@! TO.N,VCC*
G04 #@! TO.C,JP1*
G36*
X143625000Y-160065000D02*
X143625000Y-161215000D01*
X142875000Y-160715000D01*
X142125000Y-161215000D01*
X142125000Y-160065000D01*
X143625000Y-160065000D01*
X143625000Y-160065000D01*
G37*
D34*
G04 #@! TO.P,JP1,1*
G04 #@! TO.N,Net-(C5-Pad1)*
X142875000Y-162015000D03*
D35*
G04 #@! TD*
G04 #@! TO.N,Net-(C5-Pad1)*
G04 #@! TO.C,JP1*
G36*
X142875000Y-161015000D02*
X143625000Y-161515000D01*
X143625000Y-162515000D01*
X142125000Y-162515000D01*
X142125000Y-161515000D01*
X142875000Y-161015000D01*
X142875000Y-161015000D01*
G37*
D36*
G04 #@! TO.P,J4,6*
G04 #@! TO.N,GND*
X132101000Y-178529500D03*
X137901000Y-178529500D03*
D37*
X138501000Y-178529500D03*
X131501000Y-178529500D03*
D38*
X134001000Y-178529500D03*
D39*
G04 #@! TO.P,J4,3*
G04 #@! TO.N,Net-(D3-Pad1)*
X135001000Y-175829500D03*
G04 #@! TO.P,J4,4*
G04 #@! TO.N,N/C*
X135651000Y-175829500D03*
G04 #@! TO.P,J4,5*
G04 #@! TO.N,GND*
X136301000Y-175829500D03*
G04 #@! TO.P,J4,1*
G04 #@! TO.N,+5V*
X133701000Y-175829500D03*
G04 #@! TO.P,J4,2*
G04 #@! TO.N,Net-(D2-Pad1)*
X134351000Y-175829500D03*
D38*
G04 #@! TO.P,J4,6*
G04 #@! TO.N,GND*
X136001000Y-178529500D03*
D40*
X137901000Y-175829500D03*
X132101000Y-175829500D03*
D41*
G04 #@! TO.P,J4,7*
G04 #@! TO.N,N/C*
X136951000Y-176629500D03*
X133051000Y-176629500D03*
G04 #@! TD*
D42*
G04 #@! TO.N,RST*
X123190000Y-101600000D03*
X134620000Y-101819010D03*
X130175000Y-101819010D03*
G04 #@! TO.N,SCK*
X156718000Y-93726000D03*
G04 #@! TO.N,VCC*
X120015000Y-110490000D03*
X131572000Y-107696000D03*
X145415000Y-156210000D03*
G04 #@! TO.N,TX*
X118745000Y-100330000D03*
G04 #@! TO.N,RX*
X120015000Y-99695000D03*
G04 #@! TO.N,BUZZER*
X151130000Y-114300000D03*
X158750000Y-94615000D03*
X154940000Y-110490000D03*
G04 #@! TO.N,Net-(D3-Pad1)*
X133985000Y-172720000D03*
X135890000Y-173355000D03*
G04 #@! TO.N,+5V*
X132080000Y-173355000D03*
X135714500Y-171640500D03*
G04 #@! TO.N,Net-(C5-Pad1)*
X149225000Y-163830000D03*
X123190000Y-159385000D03*
G04 #@! TO.N,IR*
X152654000Y-93726000D03*
G04 #@! TD*
D43*
G04 #@! TO.N,Net-(BZ1-Pad2)*
X148336000Y-122446000D02*
X148336000Y-121896000D01*
X146782000Y-124000000D02*
X148336000Y-122446000D01*
X141600000Y-124000000D02*
X146782000Y-124000000D01*
G04 #@! TO.N,GND*
X135255000Y-106360000D02*
X134935000Y-106680000D01*
X135255000Y-104140000D02*
X135255000Y-106360000D01*
X155194000Y-92340882D02*
X155194000Y-92190882D01*
X136301000Y-175829500D02*
X137901000Y-175829500D01*
G04 #@! TO.N,RST*
X117475000Y-104540000D02*
X118745000Y-105810000D01*
X117475000Y-104140000D02*
X117475000Y-104540000D01*
X118745000Y-105810000D02*
X118745000Y-108120000D01*
X118595000Y-108270000D02*
X118745000Y-108120000D01*
X116840000Y-108270000D02*
X118595000Y-108270000D01*
X135185685Y-101819010D02*
X134620000Y-101819010D01*
X129955990Y-101600000D02*
X130175000Y-101819010D01*
X123190000Y-101600000D02*
X129955990Y-101600000D01*
X154940000Y-102870000D02*
X153889010Y-101819010D01*
X153889010Y-101819010D02*
X135185685Y-101819010D01*
G04 #@! TO.N,MOSI*
X145415000Y-96520000D02*
X145415000Y-96920000D01*
G04 #@! TO.N,SCK*
X140335000Y-96520000D02*
X140335000Y-96920000D01*
X140335000Y-96120000D02*
X140335000Y-96520000D01*
X156718000Y-92340882D02*
X156718000Y-93726000D01*
G04 #@! TO.N,VCC*
X137795000Y-96920000D02*
X139935000Y-99060000D01*
X139935000Y-99060000D02*
X151130000Y-99060000D01*
X151130000Y-99060000D02*
X153035000Y-97155000D01*
X153035000Y-97155000D02*
X153035000Y-96520000D01*
X153035000Y-96520000D02*
X153670000Y-95885000D01*
X118915000Y-110490000D02*
X118745000Y-110320000D01*
X120015000Y-110490000D02*
X118915000Y-110490000D01*
D44*
X148910000Y-159002800D02*
X148910000Y-156210000D01*
X153010000Y-161290000D02*
X151197200Y-161290000D01*
X151197200Y-161290000D02*
X148910000Y-159002800D01*
X148910000Y-160902800D02*
X148910000Y-159002800D01*
X148522800Y-161290000D02*
X148910000Y-160902800D01*
X146710000Y-161290000D02*
X148522800Y-161290000D01*
X132019000Y-107696000D02*
X133035000Y-106680000D01*
X131572000Y-107696000D02*
X132019000Y-107696000D01*
X132715000Y-106360000D02*
X133035000Y-106680000D01*
X132715000Y-104140000D02*
X132715000Y-106360000D01*
X137795000Y-96520000D02*
X137795000Y-99060000D01*
X137795000Y-99060000D02*
X136525000Y-100330000D01*
X136525000Y-100330000D02*
X133985000Y-100330000D01*
X133985000Y-100330000D02*
X132715000Y-101600000D01*
X132715000Y-101600000D02*
X132715000Y-104140000D01*
X145415000Y-156210000D02*
X148910000Y-156210000D01*
D43*
X133604000Y-89598500D02*
X133604000Y-88011000D01*
X135339000Y-86276000D02*
X141097000Y-86276000D01*
X141097000Y-86276000D02*
X142875000Y-86276000D01*
X153670000Y-95885000D02*
X156845000Y-95885000D01*
X157480000Y-96520000D02*
X157480000Y-97790000D01*
X156845000Y-95885000D02*
X157480000Y-96520000D01*
X158369000Y-92370000D02*
X158369000Y-93826058D01*
X157480000Y-94715058D02*
X157480000Y-96520000D01*
X158369000Y-93826058D02*
X157480000Y-94715058D01*
X121479919Y-87630000D02*
X133985000Y-87630000D01*
X121158000Y-87308081D02*
X121479919Y-87630000D01*
X121158000Y-86106000D02*
X121158000Y-87308081D01*
X133604000Y-88011000D02*
X133985000Y-87630000D01*
X133985000Y-87630000D02*
X135339000Y-86276000D01*
X144604000Y-160565000D02*
X142875000Y-160565000D01*
X146710000Y-161290000D02*
X145329000Y-161290000D01*
X145329000Y-161290000D02*
X144604000Y-160565000D01*
G04 #@! TO.N,DTR*
X111164000Y-94615000D02*
X110529000Y-95250000D01*
X112395000Y-94615000D02*
X111164000Y-94615000D01*
X110529000Y-95250000D02*
X110529000Y-107989000D01*
X112710000Y-110170000D02*
X116840000Y-110170000D01*
X110529000Y-107989000D02*
X112710000Y-110170000D01*
G04 #@! TO.N,TX*
X118745000Y-100330000D02*
X120015000Y-101600000D01*
X120015000Y-101600000D02*
X120015000Y-104140000D01*
X118745000Y-100330000D02*
X118745000Y-100330000D01*
G04 #@! TO.N,RX*
X120015000Y-99695000D02*
X120015000Y-99695000D01*
X122555000Y-104140000D02*
X122555000Y-102235000D01*
X122555000Y-102235000D02*
X120015000Y-99695000D01*
G04 #@! TO.N,Net-(C2-Pad2)*
X137795000Y-107727500D02*
X135032500Y-110490000D01*
X137795000Y-104140000D02*
X137795000Y-107727500D01*
D45*
X134300000Y-111222500D02*
X135032500Y-110490000D01*
D46*
X136845000Y-112302500D02*
X135032500Y-110490000D01*
X136845000Y-114046000D02*
X136845000Y-112302500D01*
D43*
G04 #@! TO.N,Net-(C3-Pad2)*
X140335000Y-106855000D02*
X143970000Y-110490000D01*
X140335000Y-104140000D02*
X140335000Y-106855000D01*
D45*
X147005000Y-110587500D02*
X146907500Y-110490000D01*
D46*
X143970000Y-110490000D02*
X146907500Y-110490000D01*
X142555000Y-111905000D02*
X143970000Y-110490000D01*
X142555000Y-114046000D02*
X142555000Y-111905000D01*
D43*
G04 #@! TO.N,BUZZER*
X151130000Y-116375000D02*
X151130000Y-114300000D01*
X158750000Y-94615000D02*
X159385000Y-95250000D01*
X159385000Y-95250000D02*
X159385000Y-106045000D01*
X159385000Y-106045000D02*
X154940000Y-110490000D01*
G04 #@! TO.N,BT_UP*
X123999999Y-128500001D02*
X123000000Y-129500000D01*
X127635000Y-124865000D02*
X123999999Y-128500001D01*
X127635000Y-104140000D02*
X127635000Y-124865000D01*
D45*
X123000000Y-129500000D02*
X123000000Y-136000000D01*
G04 #@! TO.N,BT_DOWN*
X123000000Y-156000000D02*
X123000000Y-154585787D01*
D43*
X121455000Y-157545000D02*
X123000000Y-156000000D01*
X121455000Y-163195000D02*
X121455000Y-157545000D01*
D45*
X123000000Y-154585787D02*
X123000000Y-149500000D01*
D43*
X130175000Y-104140000D02*
X130175000Y-104540000D01*
X130175000Y-104540000D02*
X128994000Y-105721000D01*
X128994000Y-105721000D02*
X128994000Y-114575672D01*
X125095000Y-147405000D02*
X123999999Y-148500001D01*
X123999999Y-148500001D02*
X123000000Y-149500000D01*
X125095000Y-128905000D02*
X125095000Y-147405000D01*
X130175000Y-123825000D02*
X125095000Y-128905000D01*
X130175000Y-115756672D02*
X130175000Y-123825000D01*
X128994000Y-114575672D02*
X130175000Y-115756672D01*
G04 #@! TO.N,BT_LEFT*
X125095000Y-104140000D02*
X125095000Y-125095000D01*
X125095000Y-125095000D02*
X123190000Y-127000000D01*
X123190000Y-127000000D02*
X118745000Y-127000000D01*
X115000000Y-130745000D02*
X115000000Y-139500000D01*
X118745000Y-127000000D02*
X115000000Y-130745000D01*
D45*
X115000000Y-139500000D02*
X115000000Y-146000000D01*
D43*
X121455000Y-164846000D02*
X121305000Y-164846000D01*
X121455000Y-164846000D02*
X119761000Y-164846000D01*
X119761000Y-164846000D02*
X118745000Y-163830000D01*
X118745000Y-149745000D02*
X115000000Y-146000000D01*
X118745000Y-163830000D02*
X118745000Y-149745000D01*
X115000000Y-147414213D02*
X115000000Y-146000000D01*
G04 #@! TO.N,BT_RIGTH*
X139065000Y-127635000D02*
X131000000Y-135700000D01*
X149225000Y-127635000D02*
X139065000Y-127635000D01*
X142875000Y-107315000D02*
X143510000Y-107950000D01*
X142875000Y-104140000D02*
X142875000Y-107315000D01*
X131000000Y-135700000D02*
X131000000Y-139500000D01*
X143510000Y-107950000D02*
X151765000Y-107950000D01*
X151765000Y-107950000D02*
X152400000Y-108585000D01*
X152400000Y-108585000D02*
X152400000Y-124460000D01*
X152400000Y-124460000D02*
X149225000Y-127635000D01*
D45*
X131000000Y-146000000D02*
X131000000Y-139500000D01*
D43*
G04 #@! TO.N,BT_A*
X153035000Y-125465000D02*
X148000000Y-130500000D01*
X153035000Y-107950000D02*
X153035000Y-125465000D01*
X152400000Y-107315000D02*
X153035000Y-107950000D01*
X146050000Y-107315000D02*
X152400000Y-107315000D01*
X145415000Y-104140000D02*
X145415000Y-106680000D01*
X145415000Y-106680000D02*
X146050000Y-107315000D01*
D45*
X148000000Y-130500000D02*
X148000000Y-137000000D01*
D43*
G04 #@! TO.N,BT_B*
X147955000Y-105721000D02*
X148914000Y-106680000D01*
X147955000Y-104140000D02*
X147955000Y-105721000D01*
X148914000Y-106680000D02*
X153035000Y-106680000D01*
X153035000Y-106680000D02*
X153890501Y-107535501D01*
X153890501Y-107535501D02*
X153890501Y-125315501D01*
X153890501Y-125315501D02*
X154940000Y-126365000D01*
X147955000Y-144630000D02*
X149375000Y-144630000D01*
X154940000Y-139065000D02*
X154940000Y-138430000D01*
X149375000Y-144630000D02*
X154940000Y-139065000D01*
X154940000Y-126365000D02*
X154940000Y-138430000D01*
X147955000Y-146044213D02*
X147955000Y-151130000D01*
X147955000Y-144630000D02*
X147955000Y-146044213D01*
G04 #@! TO.N,I2C_SCL*
X136144000Y-89598500D02*
X132978511Y-92763989D01*
X132978511Y-92763989D02*
X120831011Y-92763989D01*
X117475000Y-96120000D02*
X117475000Y-96520000D01*
X120831011Y-92763989D02*
X117475000Y-96120000D01*
X136144000Y-89598500D02*
X138112500Y-87630000D01*
X141097000Y-88476000D02*
X141097000Y-88392000D01*
X140335000Y-87630000D02*
X138112500Y-87630000D01*
X141097000Y-88392000D02*
X140335000Y-87630000D01*
G04 #@! TO.N,I2C_SDA*
X138684000Y-90676130D02*
X136015130Y-93345000D01*
X138684000Y-89598500D02*
X138684000Y-90676130D01*
X120015000Y-94615000D02*
X120015000Y-96520000D01*
X121285000Y-93345000D02*
X120015000Y-94615000D01*
X136015130Y-93345000D02*
X125095000Y-93345000D01*
X125095000Y-93345000D02*
X121285000Y-93345000D01*
X142875000Y-89535000D02*
X142875000Y-88476000D01*
X142049501Y-90360499D02*
X142875000Y-89535000D01*
X139445999Y-90360499D02*
X142049501Y-90360499D01*
X138684000Y-89598500D02*
X139445999Y-90360499D01*
D45*
G04 #@! TO.N,Net-(BT1-Pad1)*
X146260000Y-167552000D02*
X146260000Y-168910000D01*
X145078000Y-166370000D02*
X146260000Y-167552000D01*
X138430000Y-166370000D02*
X145078000Y-166370000D01*
X137355999Y-167444001D02*
X138430000Y-166370000D01*
X136635999Y-167444001D02*
X137355999Y-167444001D01*
X135636000Y-168444000D02*
X136635999Y-167444001D01*
D43*
G04 #@! TO.N,Net-(D1-Pad2)*
X155194000Y-90140882D02*
X156718000Y-90140882D01*
G04 #@! TO.N,Net-(D2-Pad1)*
X129587000Y-167005000D02*
X127336000Y-167005000D01*
X124636000Y-163195000D02*
X125305000Y-163864000D01*
X123655000Y-163195000D02*
X124636000Y-163195000D01*
X125305000Y-163864000D02*
X125305000Y-165774000D01*
X125305000Y-165774000D02*
X125305000Y-167005000D01*
X127336000Y-167005000D02*
X125305000Y-167005000D01*
X134775502Y-171920502D02*
X129860000Y-167005000D01*
X129860000Y-167005000D02*
X129710000Y-167005000D01*
X134775502Y-173099442D02*
X134775502Y-171920502D01*
X134351000Y-173523944D02*
X134775502Y-173099442D01*
X134351000Y-175829500D02*
X134351000Y-173523944D01*
G04 #@! TO.N,Net-(D3-Pad1)*
X123505000Y-164846000D02*
X122682000Y-165669000D01*
X123655000Y-164846000D02*
X123505000Y-164846000D01*
X124505000Y-170180000D02*
X125305000Y-170180000D01*
X122682000Y-168357000D02*
X124505000Y-170180000D01*
X122682000Y-165669000D02*
X122682000Y-168357000D01*
X125305000Y-170180000D02*
X125305000Y-172192500D01*
X124777500Y-172720000D02*
X123655000Y-172720000D01*
X125305000Y-172192500D02*
X124777500Y-172720000D01*
X127336000Y-170180000D02*
X125305000Y-170180000D01*
X130407500Y-170180000D02*
X127336000Y-170180000D01*
X131445000Y-170180000D02*
X133985000Y-172720000D01*
X130407500Y-170180000D02*
X131445000Y-170180000D01*
X135001000Y-174244000D02*
X135890000Y-173355000D01*
X135001000Y-175829500D02*
X135001000Y-174244000D01*
G04 #@! TO.N,+5V*
X131910000Y-167836000D02*
X135714500Y-171640500D01*
X131910000Y-167005000D02*
X131910000Y-167836000D01*
X140760000Y-168910000D02*
X138729000Y-168910000D01*
X133701000Y-175829500D02*
X133701000Y-174976000D01*
X133701000Y-174976000D02*
X132080000Y-173355000D01*
X138445000Y-168910000D02*
X140760000Y-168910000D01*
X135714500Y-171640500D02*
X138445000Y-168910000D01*
D44*
G04 #@! TO.N,Net-(C5-Pad1)*
X148910000Y-166370000D02*
X148685000Y-166370000D01*
D45*
X148985000Y-163590000D02*
X147570408Y-163590000D01*
X149225000Y-163830000D02*
X148985000Y-163590000D01*
X148910000Y-164145000D02*
X149225000Y-163830000D01*
X148910000Y-166370000D02*
X148910000Y-164145000D01*
X140095000Y-163590000D02*
X137160000Y-160655000D01*
X137160000Y-160655000D02*
X124460000Y-160655000D01*
X124460000Y-160655000D02*
X123190000Y-159385000D01*
D43*
X142875000Y-162015000D02*
X142875000Y-163590000D01*
D45*
X146710000Y-163590000D02*
X142875000Y-163590000D01*
X142875000Y-163590000D02*
X140095000Y-163590000D01*
D43*
G04 #@! TO.N,Net-(D5-Pad2)*
X146685000Y-85725000D02*
X146685000Y-83947000D01*
X146685000Y-83947000D02*
X146812000Y-83820000D01*
X146812000Y-83820000D02*
X150876000Y-83820000D01*
X150876000Y-83820000D02*
X152146000Y-85090000D01*
X152146000Y-85090000D02*
X152146000Y-85852000D01*
X152146000Y-85852000D02*
X154432000Y-88138000D01*
X154432000Y-88138000D02*
X157734000Y-88138000D01*
X158369000Y-88773000D02*
X158369000Y-90170000D01*
X157734000Y-88138000D02*
X158369000Y-88773000D01*
G04 #@! TO.N,Net-(D5-Pad1)*
X150506000Y-85725000D02*
X149225000Y-85725000D01*
X150876000Y-86095000D02*
X150506000Y-85725000D01*
X150876000Y-92432000D02*
X150876000Y-86095000D01*
G04 #@! TO.N,Net-(Q1-Pad1)*
X149225000Y-118835000D02*
X149286000Y-118896000D01*
X149286000Y-118896000D02*
X149286000Y-119446000D01*
X150809000Y-118896000D02*
X151130000Y-118575000D01*
X149286000Y-118896000D02*
X150809000Y-118896000D01*
G04 #@! TO.N,Net-(Q2-Pad1)*
X152865118Y-89432000D02*
X153574000Y-90140882D01*
X151826000Y-89432000D02*
X152865118Y-89432000D01*
G04 #@! TO.N,IR*
X152654000Y-93260882D02*
X153574000Y-92340882D01*
X152654000Y-93726000D02*
X152654000Y-93260882D01*
G04 #@! TD*
D47*
G04 #@! TO.N,GND*
G36*
X136760424Y-105574577D02*
X136969500Y-105714277D01*
X136969501Y-107385566D01*
X135512508Y-108842560D01*
X131095000Y-108842560D01*
X130847235Y-108891843D01*
X130637191Y-109032191D01*
X130496843Y-109242235D01*
X130447560Y-109490000D01*
X130447560Y-111490000D01*
X130496843Y-111737765D01*
X130637191Y-111947809D01*
X130847235Y-112088157D01*
X131095000Y-112137440D01*
X135605138Y-112137440D01*
X136085001Y-112617303D01*
X136085001Y-113055386D01*
X135997235Y-113072843D01*
X135787191Y-113213191D01*
X135646843Y-113423235D01*
X135597560Y-113671000D01*
X135597560Y-114421000D01*
X135646843Y-114668765D01*
X135787191Y-114878809D01*
X135997235Y-115019157D01*
X136245000Y-115068440D01*
X137445000Y-115068440D01*
X137692765Y-115019157D01*
X137784102Y-114958127D01*
X137785302Y-114959327D01*
X138018691Y-115056000D01*
X138459250Y-115056000D01*
X138618000Y-114897250D01*
X138618000Y-114173000D01*
X138872000Y-114173000D01*
X138872000Y-114897250D01*
X139030750Y-115056000D01*
X139471309Y-115056000D01*
X139700000Y-114961273D01*
X139928691Y-115056000D01*
X140369250Y-115056000D01*
X140528000Y-114897250D01*
X140528000Y-114173000D01*
X138872000Y-114173000D01*
X138618000Y-114173000D01*
X138598000Y-114173000D01*
X138598000Y-113919000D01*
X138618000Y-113919000D01*
X138618000Y-113194750D01*
X138872000Y-113194750D01*
X138872000Y-113919000D01*
X140528000Y-113919000D01*
X140528000Y-113194750D01*
X140369250Y-113036000D01*
X139928691Y-113036000D01*
X139700000Y-113130727D01*
X139471309Y-113036000D01*
X139030750Y-113036000D01*
X138872000Y-113194750D01*
X138618000Y-113194750D01*
X138459250Y-113036000D01*
X138018691Y-113036000D01*
X137785302Y-113132673D01*
X137784102Y-113133873D01*
X137692765Y-113072843D01*
X137605000Y-113055386D01*
X137605000Y-112377346D01*
X137619888Y-112302499D01*
X137605000Y-112227652D01*
X137605000Y-112227648D01*
X137587056Y-112137440D01*
X138970000Y-112137440D01*
X139217765Y-112088157D01*
X139427809Y-111947809D01*
X139568157Y-111737765D01*
X139617440Y-111490000D01*
X139617440Y-109490000D01*
X139568157Y-109242235D01*
X139427809Y-109032191D01*
X139217765Y-108891843D01*
X138970000Y-108842560D01*
X137847373Y-108842560D01*
X138321226Y-108368707D01*
X138390152Y-108322652D01*
X138572604Y-108049594D01*
X138620500Y-107808803D01*
X138620500Y-107808802D01*
X138636672Y-107727500D01*
X138620500Y-107646199D01*
X138620500Y-105714278D01*
X138829577Y-105574577D01*
X139065000Y-105222241D01*
X139300424Y-105574577D01*
X139509501Y-105714277D01*
X139509501Y-106773694D01*
X139493328Y-106855000D01*
X139551476Y-107147328D01*
X139557397Y-107177094D01*
X139739849Y-107450152D01*
X139808775Y-107496207D01*
X142322560Y-110009993D01*
X142322560Y-111062639D01*
X142070528Y-111314671D01*
X142007072Y-111357071D01*
X141964672Y-111420527D01*
X141964671Y-111420528D01*
X141839097Y-111608463D01*
X141780112Y-111905000D01*
X141795001Y-111979852D01*
X141795000Y-113055386D01*
X141707235Y-113072843D01*
X141615898Y-113133873D01*
X141614698Y-113132673D01*
X141381309Y-113036000D01*
X140940750Y-113036000D01*
X140782000Y-113194750D01*
X140782000Y-113919000D01*
X140802000Y-113919000D01*
X140802000Y-114173000D01*
X140782000Y-114173000D01*
X140782000Y-114897250D01*
X140940750Y-115056000D01*
X141381309Y-115056000D01*
X141614698Y-114959327D01*
X141615898Y-114958127D01*
X141707235Y-115019157D01*
X141955000Y-115068440D01*
X143155000Y-115068440D01*
X143402765Y-115019157D01*
X143612809Y-114878809D01*
X143753157Y-114668765D01*
X143802440Y-114421000D01*
X143802440Y-113671000D01*
X143753157Y-113423235D01*
X143612809Y-113213191D01*
X143402765Y-113072843D01*
X143315000Y-113055386D01*
X143315000Y-112219801D01*
X143397361Y-112137440D01*
X150845000Y-112137440D01*
X151092765Y-112088157D01*
X151302809Y-111947809D01*
X151443157Y-111737765D01*
X151492440Y-111490000D01*
X151492440Y-109490000D01*
X151443157Y-109242235D01*
X151302809Y-109032191D01*
X151092765Y-108891843D01*
X150845000Y-108842560D01*
X143489993Y-108842560D01*
X143421501Y-108774069D01*
X143510000Y-108791672D01*
X143591303Y-108775500D01*
X151423068Y-108775500D01*
X151574500Y-108926933D01*
X151574500Y-113363842D01*
X151335874Y-113265000D01*
X150924126Y-113265000D01*
X150543720Y-113422569D01*
X150252569Y-113713720D01*
X150095000Y-114094126D01*
X150095000Y-114505874D01*
X150252569Y-114886280D01*
X150304501Y-114938212D01*
X150304501Y-115262193D01*
X150222191Y-115317191D01*
X150081843Y-115527235D01*
X150032560Y-115775000D01*
X150032560Y-116975000D01*
X150081843Y-117222765D01*
X150222191Y-117432809D01*
X150285334Y-117475000D01*
X150222191Y-117517191D01*
X150192689Y-117561344D01*
X150143809Y-117488191D01*
X149933765Y-117347843D01*
X149686000Y-117298560D01*
X148886000Y-117298560D01*
X148638235Y-117347843D01*
X148428191Y-117488191D01*
X148338987Y-117621694D01*
X148324327Y-117586302D01*
X148145699Y-117407673D01*
X147912310Y-117311000D01*
X147671750Y-117311000D01*
X147513000Y-117469750D01*
X147513000Y-118769000D01*
X147533000Y-118769000D01*
X147533000Y-119023000D01*
X147513000Y-119023000D01*
X147513000Y-120322250D01*
X147598531Y-120407781D01*
X147478191Y-120488191D01*
X147337843Y-120698235D01*
X147288560Y-120946000D01*
X147288560Y-122326007D01*
X146440068Y-123174500D01*
X143027778Y-123174500D01*
X142986086Y-123073847D01*
X142526153Y-122613914D01*
X141925222Y-122365000D01*
X141274778Y-122365000D01*
X140673847Y-122613914D01*
X140213914Y-123073847D01*
X139965000Y-123674778D01*
X139965000Y-124325222D01*
X140213914Y-124926153D01*
X140673847Y-125386086D01*
X141274778Y-125635000D01*
X141925222Y-125635000D01*
X142526153Y-125386086D01*
X142986086Y-124926153D01*
X143027778Y-124825500D01*
X146700699Y-124825500D01*
X146782000Y-124841672D01*
X146863301Y-124825500D01*
X146863303Y-124825500D01*
X147104094Y-124777604D01*
X147377152Y-124595152D01*
X147423209Y-124526223D01*
X148455993Y-123493440D01*
X148736000Y-123493440D01*
X148983765Y-123444157D01*
X149193809Y-123303809D01*
X149334157Y-123093765D01*
X149383440Y-122846000D01*
X149383440Y-120946000D01*
X149334157Y-120698235D01*
X149197316Y-120493440D01*
X149686000Y-120493440D01*
X149933765Y-120444157D01*
X150143809Y-120303809D01*
X150284157Y-120093765D01*
X150333440Y-119846000D01*
X150333440Y-119721500D01*
X150354925Y-119721500D01*
X150432235Y-119773157D01*
X150680000Y-119822440D01*
X151574501Y-119822440D01*
X151574501Y-124118066D01*
X148883068Y-126809500D01*
X139146297Y-126809500D01*
X139064999Y-126793329D01*
X138983701Y-126809500D01*
X138983697Y-126809500D01*
X138742906Y-126857396D01*
X138742904Y-126857397D01*
X138742905Y-126857397D01*
X138538772Y-126993794D01*
X138538771Y-126993795D01*
X138469848Y-127039848D01*
X138423795Y-127108771D01*
X130473777Y-135058791D01*
X130404848Y-135104848D01*
X130222396Y-135377907D01*
X130182076Y-135580613D01*
X130158328Y-135700000D01*
X130174500Y-135781302D01*
X130174501Y-138072222D01*
X130073847Y-138113914D01*
X129613914Y-138573847D01*
X129365000Y-139174778D01*
X129365000Y-139825222D01*
X129613914Y-140426153D01*
X130073847Y-140886086D01*
X130111001Y-140901476D01*
X130111000Y-144598525D01*
X130073847Y-144613914D01*
X129613914Y-145073847D01*
X129365000Y-145674778D01*
X129365000Y-146325222D01*
X129613914Y-146926153D01*
X130073847Y-147386086D01*
X130674778Y-147635000D01*
X131325222Y-147635000D01*
X131926153Y-147386086D01*
X132159707Y-147152532D01*
X134527073Y-147152532D01*
X134625736Y-147419387D01*
X135235461Y-147645908D01*
X135885460Y-147621856D01*
X136374264Y-147419387D01*
X136472927Y-147152532D01*
X135500000Y-146179605D01*
X134527073Y-147152532D01*
X132159707Y-147152532D01*
X132386086Y-146926153D01*
X132635000Y-146325222D01*
X132635000Y-145735461D01*
X133854092Y-145735461D01*
X133878144Y-146385460D01*
X134080613Y-146874264D01*
X134347468Y-146972927D01*
X135320395Y-146000000D01*
X135679605Y-146000000D01*
X136652532Y-146972927D01*
X136919387Y-146874264D01*
X137145908Y-146264539D01*
X137121856Y-145614540D01*
X136919387Y-145125736D01*
X136652532Y-145027073D01*
X135679605Y-146000000D01*
X135320395Y-146000000D01*
X134347468Y-145027073D01*
X134080613Y-145125736D01*
X133854092Y-145735461D01*
X132635000Y-145735461D01*
X132635000Y-145674778D01*
X132386086Y-145073847D01*
X132159707Y-144847468D01*
X134527073Y-144847468D01*
X135500000Y-145820395D01*
X136472927Y-144847468D01*
X136374264Y-144580613D01*
X135764539Y-144354092D01*
X135114540Y-144378144D01*
X134625736Y-144580613D01*
X134527073Y-144847468D01*
X132159707Y-144847468D01*
X131926153Y-144613914D01*
X131889000Y-144598525D01*
X131889000Y-140901475D01*
X131926153Y-140886086D01*
X132159707Y-140652532D01*
X134527073Y-140652532D01*
X134625736Y-140919387D01*
X135235461Y-141145908D01*
X135885460Y-141121856D01*
X136374264Y-140919387D01*
X136472927Y-140652532D01*
X135500000Y-139679605D01*
X134527073Y-140652532D01*
X132159707Y-140652532D01*
X132386086Y-140426153D01*
X132635000Y-139825222D01*
X132635000Y-139235461D01*
X133854092Y-139235461D01*
X133878144Y-139885460D01*
X134080613Y-140374264D01*
X134347468Y-140472927D01*
X135320395Y-139500000D01*
X135679605Y-139500000D01*
X136652532Y-140472927D01*
X136919387Y-140374264D01*
X137145908Y-139764539D01*
X137121856Y-139114540D01*
X136919387Y-138625736D01*
X136652532Y-138527073D01*
X135679605Y-139500000D01*
X135320395Y-139500000D01*
X134347468Y-138527073D01*
X134080613Y-138625736D01*
X133854092Y-139235461D01*
X132635000Y-139235461D01*
X132635000Y-139174778D01*
X132386086Y-138573847D01*
X132159707Y-138347468D01*
X134527073Y-138347468D01*
X135500000Y-139320395D01*
X136472927Y-138347468D01*
X136374264Y-138080613D01*
X135764539Y-137854092D01*
X135114540Y-137878144D01*
X134625736Y-138080613D01*
X134527073Y-138347468D01*
X132159707Y-138347468D01*
X131926153Y-138113914D01*
X131825500Y-138072222D01*
X131825500Y-136041932D01*
X139406934Y-128460500D01*
X148872068Y-128460500D01*
X148425876Y-128906692D01*
X148325222Y-128865000D01*
X147674778Y-128865000D01*
X147073847Y-129113914D01*
X146613914Y-129573847D01*
X146365000Y-130174778D01*
X146365000Y-130825222D01*
X146613914Y-131426153D01*
X147073847Y-131886086D01*
X147111000Y-131901475D01*
X147111001Y-135598524D01*
X147073847Y-135613914D01*
X146613914Y-136073847D01*
X146365000Y-136674778D01*
X146365000Y-137325222D01*
X146613914Y-137926153D01*
X147073847Y-138386086D01*
X147674778Y-138635000D01*
X148325222Y-138635000D01*
X148926153Y-138386086D01*
X149159707Y-138152532D01*
X151527073Y-138152532D01*
X151625736Y-138419387D01*
X152235461Y-138645908D01*
X152885460Y-138621856D01*
X153374264Y-138419387D01*
X153472927Y-138152532D01*
X152500000Y-137179605D01*
X151527073Y-138152532D01*
X149159707Y-138152532D01*
X149386086Y-137926153D01*
X149635000Y-137325222D01*
X149635000Y-136735461D01*
X150854092Y-136735461D01*
X150878144Y-137385460D01*
X151080613Y-137874264D01*
X151347468Y-137972927D01*
X152320395Y-137000000D01*
X151347468Y-136027073D01*
X151080613Y-136125736D01*
X150854092Y-136735461D01*
X149635000Y-136735461D01*
X149635000Y-136674778D01*
X149386086Y-136073847D01*
X149159707Y-135847468D01*
X151527073Y-135847468D01*
X152500000Y-136820395D01*
X153472927Y-135847468D01*
X153374264Y-135580613D01*
X152764539Y-135354092D01*
X152114540Y-135378144D01*
X151625736Y-135580613D01*
X151527073Y-135847468D01*
X149159707Y-135847468D01*
X148926153Y-135613914D01*
X148889000Y-135598525D01*
X148889000Y-131901475D01*
X148926153Y-131886086D01*
X149159707Y-131652532D01*
X151527073Y-131652532D01*
X151625736Y-131919387D01*
X152235461Y-132145908D01*
X152885460Y-132121856D01*
X153374264Y-131919387D01*
X153472927Y-131652532D01*
X152500000Y-130679605D01*
X151527073Y-131652532D01*
X149159707Y-131652532D01*
X149386086Y-131426153D01*
X149635000Y-130825222D01*
X149635000Y-130235461D01*
X150854092Y-130235461D01*
X150878144Y-130885460D01*
X151080613Y-131374264D01*
X151347468Y-131472927D01*
X152320395Y-130500000D01*
X151347468Y-129527073D01*
X151080613Y-129625736D01*
X150854092Y-130235461D01*
X149635000Y-130235461D01*
X149635000Y-130174778D01*
X149593308Y-130074124D01*
X150319964Y-129347468D01*
X151527073Y-129347468D01*
X152500000Y-130320395D01*
X153472927Y-129347468D01*
X153374264Y-129080613D01*
X152764539Y-128854092D01*
X152114540Y-128878144D01*
X151625736Y-129080613D01*
X151527073Y-129347468D01*
X150319964Y-129347468D01*
X153537500Y-126129933D01*
X154114500Y-126706933D01*
X154114500Y-130096782D01*
X153919387Y-129625736D01*
X153652532Y-129527073D01*
X152679605Y-130500000D01*
X153652532Y-131472927D01*
X153919387Y-131374264D01*
X154114500Y-130849079D01*
X154114501Y-136596783D01*
X153919387Y-136125736D01*
X153652532Y-136027073D01*
X152679605Y-137000000D01*
X153652532Y-137972927D01*
X153919387Y-137874264D01*
X154114501Y-137349077D01*
X154114501Y-138348692D01*
X154114500Y-138348697D01*
X154114500Y-138723066D01*
X149237403Y-143600164D01*
X148881153Y-143243914D01*
X148280222Y-142995000D01*
X147629778Y-142995000D01*
X147028847Y-143243914D01*
X146568914Y-143703847D01*
X146320000Y-144304778D01*
X146320000Y-144955222D01*
X146568914Y-145556153D01*
X147028847Y-146016086D01*
X147129500Y-146057778D01*
X147129501Y-149702222D01*
X147028847Y-149743914D01*
X146568914Y-150203847D01*
X146320000Y-150804778D01*
X146320000Y-151455222D01*
X146568914Y-152056153D01*
X147028847Y-152516086D01*
X147629778Y-152765000D01*
X148280222Y-152765000D01*
X148881153Y-152516086D01*
X149114707Y-152282532D01*
X151482073Y-152282532D01*
X151580736Y-152549387D01*
X152190461Y-152775908D01*
X152840460Y-152751856D01*
X153329264Y-152549387D01*
X153427927Y-152282532D01*
X152455000Y-151309605D01*
X151482073Y-152282532D01*
X149114707Y-152282532D01*
X149341086Y-152056153D01*
X149590000Y-151455222D01*
X149590000Y-150865461D01*
X150809092Y-150865461D01*
X150833144Y-151515460D01*
X151035613Y-152004264D01*
X151302468Y-152102927D01*
X152275395Y-151130000D01*
X152634605Y-151130000D01*
X153607532Y-152102927D01*
X153874387Y-152004264D01*
X154100908Y-151394539D01*
X154076856Y-150744540D01*
X153874387Y-150255736D01*
X153607532Y-150157073D01*
X152634605Y-151130000D01*
X152275395Y-151130000D01*
X151302468Y-150157073D01*
X151035613Y-150255736D01*
X150809092Y-150865461D01*
X149590000Y-150865461D01*
X149590000Y-150804778D01*
X149341086Y-150203847D01*
X149114707Y-149977468D01*
X151482073Y-149977468D01*
X152455000Y-150950395D01*
X153427927Y-149977468D01*
X153329264Y-149710613D01*
X152719539Y-149484092D01*
X152069540Y-149508144D01*
X151580736Y-149710613D01*
X151482073Y-149977468D01*
X149114707Y-149977468D01*
X148881153Y-149743914D01*
X148780500Y-149702222D01*
X148780500Y-146057778D01*
X148881153Y-146016086D01*
X149114707Y-145782532D01*
X151482073Y-145782532D01*
X151580736Y-146049387D01*
X152190461Y-146275908D01*
X152840460Y-146251856D01*
X153329264Y-146049387D01*
X153427927Y-145782532D01*
X152455000Y-144809605D01*
X151482073Y-145782532D01*
X149114707Y-145782532D01*
X149341086Y-145556153D01*
X149376176Y-145471438D01*
X149456301Y-145455500D01*
X149456303Y-145455500D01*
X149697094Y-145407604D01*
X149970152Y-145225152D01*
X150016209Y-145156223D01*
X150810346Y-144362087D01*
X150809092Y-144365461D01*
X150833144Y-145015460D01*
X151035613Y-145504264D01*
X151302468Y-145602927D01*
X152275395Y-144630000D01*
X152634605Y-144630000D01*
X153607532Y-145602927D01*
X153874387Y-145504264D01*
X154100908Y-144894539D01*
X154076856Y-144244540D01*
X153874387Y-143755736D01*
X153607532Y-143657073D01*
X152634605Y-144630000D01*
X152275395Y-144630000D01*
X152261253Y-144615858D01*
X152440858Y-144436253D01*
X152455000Y-144450395D01*
X153427927Y-143477468D01*
X153329264Y-143210613D01*
X152719539Y-142984092D01*
X152167930Y-143004503D01*
X155466229Y-139706205D01*
X155535152Y-139660152D01*
X155587838Y-139581303D01*
X155700665Y-139412445D01*
X155717604Y-139387094D01*
X155765500Y-139146303D01*
X155765500Y-139146299D01*
X155781671Y-139065001D01*
X155765500Y-138983703D01*
X155765500Y-129134890D01*
X156038524Y-129134890D01*
X156208355Y-129544924D01*
X156598642Y-129973183D01*
X157123108Y-130219486D01*
X157353000Y-130098819D01*
X157353000Y-128905000D01*
X157607000Y-128905000D01*
X157607000Y-130098819D01*
X157836892Y-130219486D01*
X158361358Y-129973183D01*
X158751645Y-129544924D01*
X158921476Y-129134890D01*
X158800155Y-128905000D01*
X157607000Y-128905000D01*
X157353000Y-128905000D01*
X156159845Y-128905000D01*
X156038524Y-129134890D01*
X155765500Y-129134890D01*
X155765500Y-126446303D01*
X155781672Y-126365000D01*
X155717604Y-126042905D01*
X155626586Y-125906689D01*
X155535152Y-125769848D01*
X155466226Y-125723793D01*
X154716001Y-124973569D01*
X154716001Y-116078000D01*
X155965908Y-116078000D01*
X156081161Y-116657418D01*
X156409375Y-117148625D01*
X156707761Y-117348000D01*
X156409375Y-117547375D01*
X156081161Y-118038582D01*
X155965908Y-118618000D01*
X156081161Y-119197418D01*
X156409375Y-119688625D01*
X156707761Y-119888000D01*
X156409375Y-120087375D01*
X156081161Y-120578582D01*
X155965908Y-121158000D01*
X156081161Y-121737418D01*
X156409375Y-122228625D01*
X156707761Y-122428000D01*
X156409375Y-122627375D01*
X156081161Y-123118582D01*
X155965908Y-123698000D01*
X156081161Y-124277418D01*
X156409375Y-124768625D01*
X156707761Y-124968000D01*
X156409375Y-125167375D01*
X156081161Y-125658582D01*
X155965908Y-126238000D01*
X156081161Y-126817418D01*
X156409375Y-127308625D01*
X156728478Y-127521843D01*
X156598642Y-127582817D01*
X156208355Y-128011076D01*
X156038524Y-128421110D01*
X156159845Y-128651000D01*
X157353000Y-128651000D01*
X157353000Y-128631000D01*
X157607000Y-128631000D01*
X157607000Y-128651000D01*
X158800155Y-128651000D01*
X158921476Y-128421110D01*
X158751645Y-128011076D01*
X158361358Y-127582817D01*
X158231522Y-127521843D01*
X158550625Y-127308625D01*
X158878839Y-126817418D01*
X158994092Y-126238000D01*
X158878839Y-125658582D01*
X158550625Y-125167375D01*
X158252239Y-124968000D01*
X158550625Y-124768625D01*
X158878839Y-124277418D01*
X158994092Y-123698000D01*
X158878839Y-123118582D01*
X158550625Y-122627375D01*
X158252239Y-122428000D01*
X158550625Y-122228625D01*
X158878839Y-121737418D01*
X158994092Y-121158000D01*
X158878839Y-120578582D01*
X158550625Y-120087375D01*
X158252239Y-119888000D01*
X158550625Y-119688625D01*
X158878839Y-119197418D01*
X158994092Y-118618000D01*
X158878839Y-118038582D01*
X158550625Y-117547375D01*
X158252239Y-117348000D01*
X158550625Y-117148625D01*
X158878839Y-116657418D01*
X158994092Y-116078000D01*
X158878839Y-115498582D01*
X158550625Y-115007375D01*
X158532381Y-114995184D01*
X158577765Y-114986157D01*
X158787809Y-114845809D01*
X158928157Y-114635765D01*
X158977440Y-114388000D01*
X158977440Y-112688000D01*
X158928157Y-112440235D01*
X158787809Y-112230191D01*
X158577765Y-112089843D01*
X158330000Y-112040560D01*
X156630000Y-112040560D01*
X156382235Y-112089843D01*
X156172191Y-112230191D01*
X156031843Y-112440235D01*
X155982560Y-112688000D01*
X155982560Y-114388000D01*
X156031843Y-114635765D01*
X156172191Y-114845809D01*
X156382235Y-114986157D01*
X156427619Y-114995184D01*
X156409375Y-115007375D01*
X156081161Y-115498582D01*
X155965908Y-116078000D01*
X154716001Y-116078000D01*
X154716001Y-111517492D01*
X154734126Y-111525000D01*
X155145874Y-111525000D01*
X155526280Y-111367431D01*
X155817431Y-111076280D01*
X155975000Y-110695874D01*
X155975000Y-110622432D01*
X159265001Y-107332432D01*
X159265000Y-153191432D01*
X159133945Y-153103864D01*
X158657031Y-153009000D01*
X158334969Y-153009000D01*
X157858055Y-153103864D01*
X157317231Y-153465231D01*
X156955864Y-154006055D01*
X156828969Y-154644000D01*
X156955864Y-155281945D01*
X157317231Y-155822769D01*
X157858055Y-156184136D01*
X158334969Y-156279000D01*
X158657031Y-156279000D01*
X159133945Y-156184136D01*
X159265000Y-156096568D01*
X159265000Y-166991432D01*
X159133945Y-166903864D01*
X158657031Y-166809000D01*
X158334969Y-166809000D01*
X157858055Y-166903864D01*
X157317231Y-167265231D01*
X156955864Y-167806055D01*
X156828969Y-168444000D01*
X156955864Y-169081945D01*
X157317231Y-169622769D01*
X157858055Y-169984136D01*
X158334969Y-170079000D01*
X158657031Y-170079000D01*
X159133945Y-169984136D01*
X159265000Y-169896568D01*
X159265000Y-177947636D01*
X159206956Y-178352938D01*
X159059385Y-178677504D01*
X158826650Y-178947606D01*
X158527459Y-179141532D01*
X158161525Y-179250970D01*
X157972727Y-179265000D01*
X139656370Y-179265000D01*
X139736000Y-179006500D01*
X139736000Y-178656500D01*
X136128000Y-178656500D01*
X136128000Y-178676500D01*
X135874000Y-178676500D01*
X135874000Y-178656500D01*
X134128000Y-178656500D01*
X134128000Y-178676500D01*
X133874000Y-178676500D01*
X133874000Y-178656500D01*
X130266000Y-178656500D01*
X130266000Y-179006500D01*
X130345630Y-179265000D01*
X112052364Y-179265000D01*
X111647062Y-179206956D01*
X111322496Y-179059385D01*
X111052394Y-178826650D01*
X110858468Y-178527459D01*
X110749030Y-178161525D01*
X110735000Y-177972727D01*
X110735000Y-175555431D01*
X111765000Y-175555431D01*
X111765000Y-176444569D01*
X112105259Y-177266026D01*
X112733974Y-177894741D01*
X113555431Y-178235000D01*
X114444569Y-178235000D01*
X115266026Y-177894741D01*
X115894741Y-177266026D01*
X116235000Y-176444569D01*
X116235000Y-175555431D01*
X116216966Y-175511891D01*
X130557538Y-175511891D01*
X130682269Y-175702500D01*
X131974000Y-175702500D01*
X131974000Y-174594500D01*
X131624000Y-174594500D01*
X131161053Y-174737110D01*
X130787920Y-175046026D01*
X130561408Y-175474219D01*
X130557538Y-175511891D01*
X116216966Y-175511891D01*
X115894741Y-174733974D01*
X115266026Y-174105259D01*
X114444569Y-173765000D01*
X113555431Y-173765000D01*
X112733974Y-174105259D01*
X112105259Y-174733974D01*
X111765000Y-175555431D01*
X110735000Y-175555431D01*
X110735000Y-173005750D01*
X120220000Y-173005750D01*
X120220000Y-173296310D01*
X120316673Y-173529699D01*
X120495302Y-173708327D01*
X120728691Y-173805000D01*
X121169250Y-173805000D01*
X121328000Y-173646250D01*
X121328000Y-172847000D01*
X120378750Y-172847000D01*
X120220000Y-173005750D01*
X110735000Y-173005750D01*
X110735000Y-170465750D01*
X117520000Y-170465750D01*
X117520000Y-171156310D01*
X117616673Y-171389699D01*
X117795302Y-171568327D01*
X118028691Y-171665000D01*
X119519250Y-171665000D01*
X119678000Y-171506250D01*
X119678000Y-170307000D01*
X117678750Y-170307000D01*
X117520000Y-170465750D01*
X110735000Y-170465750D01*
X110735000Y-169203690D01*
X117520000Y-169203690D01*
X117520000Y-169894250D01*
X117678750Y-170053000D01*
X119678000Y-170053000D01*
X119678000Y-168853750D01*
X119932000Y-168853750D01*
X119932000Y-170053000D01*
X121931250Y-170053000D01*
X122090000Y-169894250D01*
X122090000Y-169203690D01*
X121993327Y-168970301D01*
X121814698Y-168791673D01*
X121581309Y-168695000D01*
X120090750Y-168695000D01*
X119932000Y-168853750D01*
X119678000Y-168853750D01*
X119519250Y-168695000D01*
X118028691Y-168695000D01*
X117795302Y-168791673D01*
X117616673Y-168970301D01*
X117520000Y-169203690D01*
X110735000Y-169203690D01*
X110735000Y-167290750D01*
X117520000Y-167290750D01*
X117520000Y-167981310D01*
X117616673Y-168214699D01*
X117795302Y-168393327D01*
X118028691Y-168490000D01*
X119519250Y-168490000D01*
X119678000Y-168331250D01*
X119678000Y-167132000D01*
X117678750Y-167132000D01*
X117520000Y-167290750D01*
X110735000Y-167290750D01*
X110735000Y-155216500D01*
X112517969Y-155216500D01*
X112644864Y-155854445D01*
X113006231Y-156395269D01*
X113081506Y-156445566D01*
X113037560Y-156666500D01*
X113037560Y-158166500D01*
X113086843Y-158414265D01*
X113227191Y-158624309D01*
X113276559Y-158657296D01*
X113130359Y-158876100D01*
X113022867Y-159416500D01*
X113130359Y-159956900D01*
X113436471Y-160415029D01*
X113438673Y-160416500D01*
X113436471Y-160417971D01*
X113130359Y-160876100D01*
X113022867Y-161416500D01*
X113130359Y-161956900D01*
X113314161Y-162231979D01*
X113006231Y-162437731D01*
X112644864Y-162978555D01*
X112517969Y-163616500D01*
X112644864Y-164254445D01*
X113006231Y-164795269D01*
X113547055Y-165156636D01*
X114023969Y-165251500D01*
X115846031Y-165251500D01*
X116322945Y-165156636D01*
X116863769Y-164795269D01*
X117225136Y-164254445D01*
X117352031Y-163616500D01*
X117225136Y-162978555D01*
X116863769Y-162437731D01*
X116555839Y-162231979D01*
X116739641Y-161956900D01*
X116847133Y-161416500D01*
X116739641Y-160876100D01*
X116433529Y-160417971D01*
X116431327Y-160416500D01*
X116433529Y-160415029D01*
X116739641Y-159956900D01*
X116847133Y-159416500D01*
X116739641Y-158876100D01*
X116593441Y-158657296D01*
X116642809Y-158624309D01*
X116783157Y-158414265D01*
X116832440Y-158166500D01*
X116832440Y-156666500D01*
X116788494Y-156445566D01*
X116863769Y-156395269D01*
X117225136Y-155854445D01*
X117352031Y-155216500D01*
X117225136Y-154578555D01*
X116863769Y-154037731D01*
X116322945Y-153676364D01*
X115846031Y-153581500D01*
X114023969Y-153581500D01*
X113547055Y-153676364D01*
X113006231Y-154037731D01*
X112644864Y-154578555D01*
X112517969Y-155216500D01*
X110735000Y-155216500D01*
X110735000Y-119360082D01*
X111040556Y-119665638D01*
X111714996Y-119945000D01*
X112445004Y-119945000D01*
X113119444Y-119665638D01*
X113635638Y-119149444D01*
X113915000Y-118475004D01*
X113915000Y-117744996D01*
X113635638Y-117070556D01*
X113119444Y-116554362D01*
X112445004Y-116275000D01*
X111714996Y-116275000D01*
X111040556Y-116554362D01*
X110735000Y-116859918D01*
X110735000Y-109362432D01*
X112068793Y-110696226D01*
X112114848Y-110765152D01*
X112251689Y-110856586D01*
X112387905Y-110947604D01*
X112710000Y-111011672D01*
X112791303Y-110995500D01*
X115862414Y-110995500D01*
X115866843Y-111017765D01*
X116007191Y-111227809D01*
X116217235Y-111368157D01*
X116465000Y-111417440D01*
X117215000Y-111417440D01*
X117462765Y-111368157D01*
X117672809Y-111227809D01*
X117704886Y-111179802D01*
X117837191Y-111377809D01*
X118047235Y-111518157D01*
X118295000Y-111567440D01*
X119195000Y-111567440D01*
X119442765Y-111518157D01*
X119576642Y-111428702D01*
X119809126Y-111525000D01*
X120220874Y-111525000D01*
X120601280Y-111367431D01*
X120892431Y-111076280D01*
X121050000Y-110695874D01*
X121050000Y-110284126D01*
X120892431Y-109903720D01*
X120601280Y-109612569D01*
X120220874Y-109455000D01*
X119809126Y-109455000D01*
X119787599Y-109463917D01*
X119652809Y-109262191D01*
X119589666Y-109220000D01*
X119652809Y-109177809D01*
X119793157Y-108967765D01*
X119842440Y-108720000D01*
X119842440Y-107520000D01*
X119793157Y-107272235D01*
X119652809Y-107062191D01*
X119570500Y-107007193D01*
X119570500Y-105914696D01*
X120015000Y-106003113D01*
X120574909Y-105891740D01*
X121049577Y-105574577D01*
X121285000Y-105222241D01*
X121520424Y-105574577D01*
X121995092Y-105891740D01*
X122555000Y-106003113D01*
X123114909Y-105891740D01*
X123589577Y-105574577D01*
X123825000Y-105222241D01*
X124060424Y-105574577D01*
X124269500Y-105714277D01*
X124269501Y-124753066D01*
X122848068Y-126174500D01*
X118826303Y-126174500D01*
X118745000Y-126158328D01*
X118422905Y-126222396D01*
X118331161Y-126283698D01*
X118149848Y-126404848D01*
X118103793Y-126473774D01*
X114473777Y-130103791D01*
X114404848Y-130149848D01*
X114222396Y-130422907D01*
X114176721Y-130652532D01*
X114158328Y-130745000D01*
X114174500Y-130826302D01*
X114174501Y-138072222D01*
X114073847Y-138113914D01*
X113613914Y-138573847D01*
X113365000Y-139174778D01*
X113365000Y-139825222D01*
X113613914Y-140426153D01*
X114073847Y-140886086D01*
X114111000Y-140901475D01*
X114111001Y-144598524D01*
X114073847Y-144613914D01*
X113613914Y-145073847D01*
X113365000Y-145674778D01*
X113365000Y-146325222D01*
X113613914Y-146926153D01*
X114073847Y-147386086D01*
X114174500Y-147427778D01*
X114174500Y-147495515D01*
X114222396Y-147736306D01*
X114404848Y-148009365D01*
X114677906Y-148191817D01*
X115000000Y-148255885D01*
X115322093Y-148191817D01*
X115595152Y-148009365D01*
X115693999Y-147861431D01*
X117919501Y-150086934D01*
X117919500Y-163748698D01*
X117903328Y-163830000D01*
X117919500Y-163911301D01*
X117919500Y-163911302D01*
X117967396Y-164152093D01*
X118149848Y-164425152D01*
X118218777Y-164471209D01*
X119119793Y-165372226D01*
X119165848Y-165441152D01*
X119283852Y-165520000D01*
X118028691Y-165520000D01*
X117795302Y-165616673D01*
X117616673Y-165795301D01*
X117520000Y-166028690D01*
X117520000Y-166719250D01*
X117678750Y-166878000D01*
X119678000Y-166878000D01*
X119678000Y-166858000D01*
X119932000Y-166858000D01*
X119932000Y-166878000D01*
X119952000Y-166878000D01*
X119952000Y-167132000D01*
X119932000Y-167132000D01*
X119932000Y-168331250D01*
X120090750Y-168490000D01*
X121581309Y-168490000D01*
X121814698Y-168393327D01*
X121842103Y-168365922D01*
X121891370Y-168613604D01*
X121904397Y-168679094D01*
X122086849Y-168952152D01*
X122155775Y-168998207D01*
X123007560Y-169849992D01*
X123007560Y-171030000D01*
X123056843Y-171277765D01*
X123197191Y-171487809D01*
X123398859Y-171622560D01*
X123055000Y-171622560D01*
X122807235Y-171671843D01*
X122597191Y-171812191D01*
X122556346Y-171873320D01*
X122414698Y-171731673D01*
X122181309Y-171635000D01*
X121740750Y-171635000D01*
X121582002Y-171793748D01*
X121582002Y-171664713D01*
X121814698Y-171568327D01*
X121993327Y-171389699D01*
X122090000Y-171156310D01*
X122090000Y-170465750D01*
X121931250Y-170307000D01*
X119932000Y-170307000D01*
X119932000Y-171506250D01*
X120090750Y-171665000D01*
X120656265Y-171665000D01*
X120495302Y-171731673D01*
X120316673Y-171910301D01*
X120220000Y-172143690D01*
X120220000Y-172434250D01*
X120378750Y-172593000D01*
X121328000Y-172593000D01*
X121328000Y-172573000D01*
X121582000Y-172573000D01*
X121582000Y-172593000D01*
X121602000Y-172593000D01*
X121602000Y-172847000D01*
X121582000Y-172847000D01*
X121582000Y-173646250D01*
X121740750Y-173805000D01*
X122181309Y-173805000D01*
X122414698Y-173708327D01*
X122556346Y-173566680D01*
X122597191Y-173627809D01*
X122807235Y-173768157D01*
X123055000Y-173817440D01*
X124255000Y-173817440D01*
X124502765Y-173768157D01*
X124712809Y-173627809D01*
X124759406Y-173558073D01*
X124777500Y-173561672D01*
X124858801Y-173545500D01*
X124858803Y-173545500D01*
X125099594Y-173497604D01*
X125372652Y-173315152D01*
X125418709Y-173246224D01*
X125831225Y-172833707D01*
X125900152Y-172787652D01*
X126082604Y-172514594D01*
X126130500Y-172273803D01*
X126146672Y-172192500D01*
X126130500Y-172111197D01*
X126130500Y-171677440D01*
X126955000Y-171677440D01*
X127202765Y-171628157D01*
X127412809Y-171487809D01*
X127553157Y-171277765D01*
X127602440Y-171030000D01*
X127602440Y-171005500D01*
X131103068Y-171005500D01*
X132510687Y-172413120D01*
X132285874Y-172320000D01*
X131874126Y-172320000D01*
X131493720Y-172477569D01*
X131202569Y-172768720D01*
X131045000Y-173149126D01*
X131045000Y-173560874D01*
X131202569Y-173941280D01*
X131493720Y-174232431D01*
X131874126Y-174390000D01*
X131947568Y-174390000D01*
X132228000Y-174670432D01*
X132228000Y-175702500D01*
X132248000Y-175702500D01*
X132248000Y-175956500D01*
X132228000Y-175956500D01*
X132228000Y-175988789D01*
X132173569Y-176043220D01*
X132016000Y-176423626D01*
X132016000Y-176835374D01*
X132061201Y-176944500D01*
X131974000Y-176944500D01*
X131974000Y-175956500D01*
X130682269Y-175956500D01*
X130557538Y-176147109D01*
X130561408Y-176184781D01*
X130787920Y-176612974D01*
X131161053Y-176921890D01*
X131314878Y-176969275D01*
X131218672Y-177009125D01*
X131183391Y-176986038D01*
X131145719Y-176989908D01*
X130717526Y-177216420D01*
X130408610Y-177589553D01*
X130266000Y-178052500D01*
X130266000Y-178402500D01*
X133874000Y-178402500D01*
X133874000Y-178382500D01*
X134128000Y-178382500D01*
X134128000Y-178402500D01*
X135874000Y-178402500D01*
X135874000Y-178382500D01*
X136128000Y-178382500D01*
X136128000Y-178402500D01*
X139736000Y-178402500D01*
X139736000Y-178052500D01*
X139593390Y-177589553D01*
X139284474Y-177216420D01*
X138856281Y-176989908D01*
X138818609Y-176986038D01*
X138783328Y-177009125D01*
X138687122Y-176969275D01*
X138840947Y-176921890D01*
X139214080Y-176612974D01*
X139440592Y-176184781D01*
X139444462Y-176147109D01*
X139319731Y-175956500D01*
X138028000Y-175956500D01*
X138028000Y-176944500D01*
X137940799Y-176944500D01*
X137986000Y-176835374D01*
X137986000Y-176423626D01*
X137828431Y-176043220D01*
X137774000Y-175988789D01*
X137774000Y-175956500D01*
X137754000Y-175956500D01*
X137754000Y-175702500D01*
X137774000Y-175702500D01*
X137774000Y-174594500D01*
X138028000Y-174594500D01*
X138028000Y-175702500D01*
X139319731Y-175702500D01*
X139415970Y-175555431D01*
X153765000Y-175555431D01*
X153765000Y-176444569D01*
X154105259Y-177266026D01*
X154733974Y-177894741D01*
X155555431Y-178235000D01*
X156444569Y-178235000D01*
X157266026Y-177894741D01*
X157894741Y-177266026D01*
X158235000Y-176444569D01*
X158235000Y-175555431D01*
X157894741Y-174733974D01*
X157266026Y-174105259D01*
X156444569Y-173765000D01*
X155555431Y-173765000D01*
X154733974Y-174105259D01*
X154105259Y-174733974D01*
X153765000Y-175555431D01*
X139415970Y-175555431D01*
X139444462Y-175511891D01*
X139440592Y-175474219D01*
X139214080Y-175046026D01*
X138840947Y-174737110D01*
X138378000Y-174594500D01*
X138028000Y-174594500D01*
X137774000Y-174594500D01*
X137424000Y-174594500D01*
X136976788Y-174732263D01*
X136860698Y-174616173D01*
X136627309Y-174519500D01*
X136559750Y-174519500D01*
X136401000Y-174678250D01*
X136401000Y-174834664D01*
X136308809Y-174696691D01*
X136098765Y-174556343D01*
X136074208Y-174551458D01*
X136042250Y-174519500D01*
X135974691Y-174519500D01*
X135954853Y-174527717D01*
X135896351Y-174516081D01*
X136022432Y-174390000D01*
X136095874Y-174390000D01*
X136476280Y-174232431D01*
X136767431Y-173941280D01*
X136925000Y-173560874D01*
X136925000Y-173355000D01*
X146440908Y-173355000D01*
X146556161Y-173934418D01*
X146884375Y-174425625D01*
X147375582Y-174753839D01*
X147808744Y-174840000D01*
X148101256Y-174840000D01*
X148534418Y-174753839D01*
X149025625Y-174425625D01*
X149037816Y-174407381D01*
X149046843Y-174452765D01*
X149187191Y-174662809D01*
X149397235Y-174803157D01*
X149645000Y-174852440D01*
X151345000Y-174852440D01*
X151592765Y-174803157D01*
X151802809Y-174662809D01*
X151943157Y-174452765D01*
X151992440Y-174205000D01*
X151992440Y-172505000D01*
X151943157Y-172257235D01*
X151802809Y-172047191D01*
X151592765Y-171906843D01*
X151345000Y-171857560D01*
X149645000Y-171857560D01*
X149397235Y-171906843D01*
X149187191Y-172047191D01*
X149046843Y-172257235D01*
X149037816Y-172302619D01*
X149025625Y-172284375D01*
X148534418Y-171956161D01*
X148101256Y-171870000D01*
X147808744Y-171870000D01*
X147375582Y-171956161D01*
X146884375Y-172284375D01*
X146556161Y-172775582D01*
X146440908Y-173355000D01*
X136925000Y-173355000D01*
X136925000Y-173149126D01*
X136767431Y-172768720D01*
X136476280Y-172477569D01*
X136380723Y-172437988D01*
X136591931Y-172226780D01*
X136749500Y-171846374D01*
X136749500Y-171772932D01*
X138512974Y-170009458D01*
X138652191Y-170217809D01*
X138862235Y-170358157D01*
X139110000Y-170407440D01*
X142410000Y-170407440D01*
X142657765Y-170358157D01*
X142867809Y-170217809D01*
X143008157Y-170007765D01*
X143057440Y-169760000D01*
X143057440Y-168060000D01*
X143008157Y-167812235D01*
X142867809Y-167602191D01*
X142657765Y-167461843D01*
X142410000Y-167412560D01*
X139110000Y-167412560D01*
X138862235Y-167461843D01*
X138652191Y-167602191D01*
X138511843Y-167812235D01*
X138462560Y-168060000D01*
X138462560Y-168071822D01*
X138444999Y-168068329D01*
X138363701Y-168084500D01*
X138363697Y-168084500D01*
X138122906Y-168132396D01*
X137849848Y-168314848D01*
X137803793Y-168383774D01*
X137193645Y-168993923D01*
X137303031Y-168444000D01*
X137281467Y-168335591D01*
X137355999Y-168350417D01*
X137443554Y-168333001D01*
X137443555Y-168333001D01*
X137702869Y-168281420D01*
X137996932Y-168084934D01*
X138046530Y-168010705D01*
X138798236Y-167259000D01*
X144709765Y-167259000D01*
X144863325Y-167412560D01*
X144610000Y-167412560D01*
X144362235Y-167461843D01*
X144152191Y-167602191D01*
X144011843Y-167812235D01*
X143962560Y-168060000D01*
X143962560Y-169760000D01*
X144011843Y-170007765D01*
X144152191Y-170217809D01*
X144362235Y-170358157D01*
X144610000Y-170407440D01*
X147910000Y-170407440D01*
X148157765Y-170358157D01*
X148367809Y-170217809D01*
X148508157Y-170007765D01*
X148557440Y-169760000D01*
X148557440Y-168060000D01*
X148508157Y-167812235D01*
X148367809Y-167602191D01*
X148157765Y-167461843D01*
X147910000Y-167412560D01*
X147138680Y-167412560D01*
X147097419Y-167205130D01*
X146900933Y-166911067D01*
X146826707Y-166861471D01*
X145768531Y-165803296D01*
X145718933Y-165729067D01*
X145424870Y-165532581D01*
X145165556Y-165481000D01*
X145165555Y-165481000D01*
X145078000Y-165463584D01*
X144990445Y-165481000D01*
X138517555Y-165481000D01*
X138430000Y-165463584D01*
X138342445Y-165481000D01*
X138342444Y-165481000D01*
X138083130Y-165532581D01*
X137789067Y-165729067D01*
X137739471Y-165803294D01*
X136987764Y-166555001D01*
X136860050Y-166555001D01*
X137176136Y-166081945D01*
X137303031Y-165444000D01*
X137176136Y-164806055D01*
X136814769Y-164265231D01*
X136273945Y-163903864D01*
X135797031Y-163809000D01*
X135474969Y-163809000D01*
X134998055Y-163903864D01*
X134457231Y-164265231D01*
X134095864Y-164806055D01*
X133968969Y-165444000D01*
X134095864Y-166081945D01*
X134457231Y-166622769D01*
X134937987Y-166944000D01*
X134457231Y-167265231D01*
X134095864Y-167806055D01*
X133968969Y-168444000D01*
X134039372Y-168797939D01*
X133042484Y-167801051D01*
X133108157Y-167702765D01*
X133157440Y-167455000D01*
X133157440Y-166555000D01*
X133108157Y-166307235D01*
X132967809Y-166097191D01*
X132757765Y-165956843D01*
X132510000Y-165907560D01*
X131310000Y-165907560D01*
X131062235Y-165956843D01*
X130852191Y-166097191D01*
X130810000Y-166160334D01*
X130767809Y-166097191D01*
X130557765Y-165956843D01*
X130310000Y-165907560D01*
X129110000Y-165907560D01*
X128862235Y-165956843D01*
X128652191Y-166097191D01*
X128597193Y-166179500D01*
X127602440Y-166179500D01*
X127602440Y-166155000D01*
X127553157Y-165907235D01*
X127412809Y-165697191D01*
X127202765Y-165556843D01*
X126955000Y-165507560D01*
X126130500Y-165507560D01*
X126130500Y-163945303D01*
X126146672Y-163864000D01*
X126082604Y-163541905D01*
X125946206Y-163337773D01*
X125900152Y-163268848D01*
X125831226Y-163222793D01*
X125277209Y-162668777D01*
X125231152Y-162599848D01*
X124958094Y-162417396D01*
X124775548Y-162381086D01*
X124712809Y-162287191D01*
X124502765Y-162146843D01*
X124255000Y-162097560D01*
X123055000Y-162097560D01*
X122807235Y-162146843D01*
X122597191Y-162287191D01*
X122555000Y-162350334D01*
X122512809Y-162287191D01*
X122302765Y-162146843D01*
X122280500Y-162142414D01*
X122280500Y-159893858D01*
X122312569Y-159971280D01*
X122603720Y-160262431D01*
X122956196Y-160408431D01*
X123769470Y-161221706D01*
X123819067Y-161295933D01*
X124113130Y-161492419D01*
X124372444Y-161544000D01*
X124372448Y-161544000D01*
X124459999Y-161561415D01*
X124547550Y-161544000D01*
X136791765Y-161544000D01*
X139404470Y-164156706D01*
X139454067Y-164230933D01*
X139748130Y-164427419D01*
X140007444Y-164479000D01*
X140007445Y-164479000D01*
X140095000Y-164496416D01*
X140182555Y-164479000D01*
X145090209Y-164479000D01*
X145111843Y-164587765D01*
X145252191Y-164797809D01*
X145462235Y-164938157D01*
X145710000Y-164987440D01*
X147710000Y-164987440D01*
X147957765Y-164938157D01*
X148021001Y-164895904D01*
X148021000Y-165424395D01*
X147852191Y-165537191D01*
X147711843Y-165747235D01*
X147662560Y-165995000D01*
X147662560Y-166172114D01*
X147623198Y-166370000D01*
X147662560Y-166567886D01*
X147662560Y-166745000D01*
X147711843Y-166992765D01*
X147852191Y-167202809D01*
X148062235Y-167343157D01*
X148310000Y-167392440D01*
X148487114Y-167392440D01*
X148582432Y-167411400D01*
X149012568Y-167411400D01*
X149107886Y-167392440D01*
X149510000Y-167392440D01*
X149757765Y-167343157D01*
X149849102Y-167282127D01*
X149850302Y-167283327D01*
X150083691Y-167380000D01*
X150524250Y-167380000D01*
X150683000Y-167221250D01*
X150683000Y-166497000D01*
X150937000Y-166497000D01*
X150937000Y-167221250D01*
X151095750Y-167380000D01*
X151536309Y-167380000D01*
X151769698Y-167283327D01*
X151948327Y-167104699D01*
X152045000Y-166871310D01*
X152045000Y-166655750D01*
X151886250Y-166497000D01*
X150937000Y-166497000D01*
X150683000Y-166497000D01*
X150663000Y-166497000D01*
X150663000Y-166243000D01*
X150683000Y-166243000D01*
X150683000Y-165518750D01*
X150937000Y-165518750D01*
X150937000Y-166243000D01*
X151886250Y-166243000D01*
X152045000Y-166084250D01*
X152045000Y-165868690D01*
X151948327Y-165635301D01*
X151769698Y-165456673D01*
X151536309Y-165360000D01*
X151095750Y-165360000D01*
X150937000Y-165518750D01*
X150683000Y-165518750D01*
X150524250Y-165360000D01*
X150083691Y-165360000D01*
X149850302Y-165456673D01*
X149849102Y-165457873D01*
X149799000Y-165424396D01*
X149799000Y-164712518D01*
X149811280Y-164707431D01*
X150102431Y-164416280D01*
X150260000Y-164035874D01*
X150260000Y-163624126D01*
X150102431Y-163243720D01*
X149811280Y-162952569D01*
X149430874Y-162795000D01*
X149395355Y-162795000D01*
X149331870Y-162752581D01*
X149072556Y-162701000D01*
X149072555Y-162701000D01*
X148985000Y-162683584D01*
X148897445Y-162701000D01*
X148329791Y-162701000D01*
X148308157Y-162592235D01*
X148206436Y-162440000D01*
X148279001Y-162331400D01*
X148420236Y-162331400D01*
X148522800Y-162351801D01*
X148625364Y-162331400D01*
X148625368Y-162331400D01*
X148929134Y-162270977D01*
X149273607Y-162040807D01*
X149331708Y-161953853D01*
X149573854Y-161711707D01*
X149660807Y-161653607D01*
X149831935Y-161397497D01*
X150388294Y-161953856D01*
X150446393Y-162040807D01*
X150533344Y-162098906D01*
X150533345Y-162098907D01*
X150673507Y-162192560D01*
X150790866Y-162270977D01*
X151094632Y-162331400D01*
X151094636Y-162331400D01*
X151197199Y-162351801D01*
X151299762Y-162331400D01*
X151362560Y-162331400D01*
X151362560Y-163190000D01*
X151411843Y-163437765D01*
X151552191Y-163647809D01*
X151762235Y-163788157D01*
X152010000Y-163837440D01*
X154010000Y-163837440D01*
X154257765Y-163788157D01*
X154467809Y-163647809D01*
X154608157Y-163437765D01*
X154657440Y-163190000D01*
X154657440Y-159390000D01*
X154608157Y-159142235D01*
X154467809Y-158932191D01*
X154257765Y-158791843D01*
X154010000Y-158742560D01*
X152010000Y-158742560D01*
X151762235Y-158791843D01*
X151552191Y-158932191D01*
X151411843Y-159142235D01*
X151362560Y-159390000D01*
X151362560Y-159982598D01*
X149951400Y-158571439D01*
X149951400Y-157165203D01*
X150083691Y-157220000D01*
X150524250Y-157220000D01*
X150683000Y-157061250D01*
X150683000Y-156337000D01*
X150937000Y-156337000D01*
X150937000Y-157061250D01*
X151095750Y-157220000D01*
X151536309Y-157220000D01*
X151769698Y-157123327D01*
X151948327Y-156944699D01*
X152045000Y-156711310D01*
X152045000Y-156495750D01*
X151886250Y-156337000D01*
X150937000Y-156337000D01*
X150683000Y-156337000D01*
X150663000Y-156337000D01*
X150663000Y-156083000D01*
X150683000Y-156083000D01*
X150683000Y-155358750D01*
X150937000Y-155358750D01*
X150937000Y-156083000D01*
X151886250Y-156083000D01*
X152045000Y-155924250D01*
X152045000Y-155708690D01*
X151948327Y-155475301D01*
X151769698Y-155296673D01*
X151536309Y-155200000D01*
X151095750Y-155200000D01*
X150937000Y-155358750D01*
X150683000Y-155358750D01*
X150524250Y-155200000D01*
X150083691Y-155200000D01*
X149850302Y-155296673D01*
X149849102Y-155297873D01*
X149757765Y-155236843D01*
X149510000Y-155187560D01*
X149107886Y-155187560D01*
X149012568Y-155168600D01*
X148910000Y-155148198D01*
X148807433Y-155168600D01*
X145312432Y-155168600D01*
X145280257Y-155175000D01*
X145209126Y-155175000D01*
X145143409Y-155202221D01*
X145008666Y-155229023D01*
X144894438Y-155305348D01*
X144828720Y-155332569D01*
X144778421Y-155382868D01*
X144664193Y-155459193D01*
X144587868Y-155573421D01*
X144537569Y-155623720D01*
X144510348Y-155689438D01*
X144434023Y-155803666D01*
X144407221Y-155938409D01*
X144380000Y-156004126D01*
X144380000Y-156075257D01*
X144353198Y-156210000D01*
X144380000Y-156344743D01*
X144380000Y-156415874D01*
X144407221Y-156481591D01*
X144434023Y-156616334D01*
X144510348Y-156730562D01*
X144537569Y-156796280D01*
X144587868Y-156846579D01*
X144664193Y-156960807D01*
X144778421Y-157037132D01*
X144828720Y-157087431D01*
X144894438Y-157114652D01*
X145008666Y-157190977D01*
X145143409Y-157217779D01*
X145209126Y-157245000D01*
X145280257Y-157245000D01*
X145312432Y-157251400D01*
X147868601Y-157251400D01*
X147868600Y-157618376D01*
X147836309Y-157605000D01*
X146995750Y-157605000D01*
X146837000Y-157763750D01*
X146837000Y-158863000D01*
X146857000Y-158863000D01*
X146857000Y-159117000D01*
X146837000Y-159117000D01*
X146837000Y-159137000D01*
X146583000Y-159137000D01*
X146583000Y-159117000D01*
X145233750Y-159117000D01*
X145075000Y-159275750D01*
X145075000Y-159866310D01*
X145086788Y-159894769D01*
X144926094Y-159787396D01*
X144685303Y-159739500D01*
X144685301Y-159739500D01*
X144604000Y-159723328D01*
X144522699Y-159739500D01*
X144171216Y-159739500D01*
X144082809Y-159607191D01*
X143872765Y-159466843D01*
X143625000Y-159417560D01*
X142125000Y-159417560D01*
X141877235Y-159466843D01*
X141667191Y-159607191D01*
X141526843Y-159817235D01*
X141477560Y-160065000D01*
X141477560Y-161215000D01*
X141513574Y-161333945D01*
X141477560Y-161515000D01*
X141477560Y-162515000D01*
X141514557Y-162701000D01*
X140463236Y-162701000D01*
X137850531Y-160088296D01*
X137800933Y-160014067D01*
X137506870Y-159817581D01*
X137247556Y-159766000D01*
X137247555Y-159766000D01*
X137160000Y-159748584D01*
X137072445Y-159766000D01*
X124828236Y-159766000D01*
X124213431Y-159151196D01*
X124067431Y-158798720D01*
X123776280Y-158507569D01*
X123395874Y-158350000D01*
X122984126Y-158350000D01*
X122603720Y-158507569D01*
X122312569Y-158798720D01*
X122280500Y-158876142D01*
X122280500Y-157886932D01*
X122574124Y-157593308D01*
X122674778Y-157635000D01*
X123325222Y-157635000D01*
X123926153Y-157386086D01*
X124159707Y-157152532D01*
X126527073Y-157152532D01*
X126625736Y-157419387D01*
X127235461Y-157645908D01*
X127287024Y-157644000D01*
X133968969Y-157644000D01*
X134095864Y-158281945D01*
X134457231Y-158822769D01*
X134998055Y-159184136D01*
X135474969Y-159279000D01*
X135797031Y-159279000D01*
X136273945Y-159184136D01*
X136814769Y-158822769D01*
X137176136Y-158281945D01*
X137209603Y-158113690D01*
X145075000Y-158113690D01*
X145075000Y-158704250D01*
X145233750Y-158863000D01*
X146583000Y-158863000D01*
X146583000Y-157763750D01*
X146424250Y-157605000D01*
X145583691Y-157605000D01*
X145350302Y-157701673D01*
X145171673Y-157880301D01*
X145075000Y-158113690D01*
X137209603Y-158113690D01*
X137303031Y-157644000D01*
X137176136Y-157006055D01*
X136814769Y-156465231D01*
X136284404Y-156110853D01*
X136595994Y-155967505D01*
X137029402Y-155499385D01*
X137226124Y-155024434D01*
X137106777Y-154771000D01*
X135763000Y-154771000D01*
X135763000Y-154791000D01*
X135509000Y-154791000D01*
X135509000Y-154771000D01*
X134165223Y-154771000D01*
X134045876Y-155024434D01*
X134242598Y-155499385D01*
X134676006Y-155967505D01*
X134987596Y-156110853D01*
X134457231Y-156465231D01*
X134095864Y-157006055D01*
X133968969Y-157644000D01*
X127287024Y-157644000D01*
X127885460Y-157621856D01*
X128374264Y-157419387D01*
X128472927Y-157152532D01*
X127500000Y-156179605D01*
X126527073Y-157152532D01*
X124159707Y-157152532D01*
X124386086Y-156926153D01*
X124635000Y-156325222D01*
X124635000Y-155735461D01*
X125854092Y-155735461D01*
X125878144Y-156385460D01*
X126080613Y-156874264D01*
X126347468Y-156972927D01*
X127320395Y-156000000D01*
X127679605Y-156000000D01*
X128652532Y-156972927D01*
X128919387Y-156874264D01*
X129145908Y-156264539D01*
X129121856Y-155614540D01*
X128919387Y-155125736D01*
X128652532Y-155027073D01*
X127679605Y-156000000D01*
X127320395Y-156000000D01*
X126347468Y-155027073D01*
X126080613Y-155125736D01*
X125854092Y-155735461D01*
X124635000Y-155735461D01*
X124635000Y-155674778D01*
X124386086Y-155073847D01*
X124159707Y-154847468D01*
X126527073Y-154847468D01*
X127500000Y-155820395D01*
X128472927Y-154847468D01*
X128374264Y-154580613D01*
X127764539Y-154354092D01*
X127114540Y-154378144D01*
X126625736Y-154580613D01*
X126527073Y-154847468D01*
X124159707Y-154847468D01*
X123926153Y-154613914D01*
X123889000Y-154598525D01*
X123889000Y-154263566D01*
X134045876Y-154263566D01*
X134165223Y-154517000D01*
X135509000Y-154517000D01*
X135509000Y-153172681D01*
X135763000Y-153172681D01*
X135763000Y-154517000D01*
X137106777Y-154517000D01*
X137226124Y-154263566D01*
X137029402Y-153788615D01*
X136595994Y-153320495D01*
X136016435Y-153053867D01*
X135763000Y-153172681D01*
X135509000Y-153172681D01*
X135255565Y-153053867D01*
X134676006Y-153320495D01*
X134242598Y-153788615D01*
X134045876Y-154263566D01*
X123889000Y-154263566D01*
X123889000Y-150901475D01*
X123926153Y-150886086D01*
X124159707Y-150652532D01*
X126527073Y-150652532D01*
X126625736Y-150919387D01*
X127235461Y-151145908D01*
X127885460Y-151121856D01*
X128374264Y-150919387D01*
X128472927Y-150652532D01*
X127500000Y-149679605D01*
X126527073Y-150652532D01*
X124159707Y-150652532D01*
X124386086Y-150426153D01*
X124635000Y-149825222D01*
X124635000Y-149235461D01*
X125854092Y-149235461D01*
X125878144Y-149885460D01*
X126080613Y-150374264D01*
X126347468Y-150472927D01*
X127320395Y-149500000D01*
X127679605Y-149500000D01*
X128652532Y-150472927D01*
X128919387Y-150374264D01*
X129145908Y-149764539D01*
X129121856Y-149114540D01*
X128919387Y-148625736D01*
X128652532Y-148527073D01*
X127679605Y-149500000D01*
X127320395Y-149500000D01*
X126347468Y-148527073D01*
X126080613Y-148625736D01*
X125854092Y-149235461D01*
X124635000Y-149235461D01*
X124635000Y-149174778D01*
X124593308Y-149074125D01*
X124641205Y-149026228D01*
X124641207Y-149026225D01*
X125319964Y-148347468D01*
X126527073Y-148347468D01*
X127500000Y-149320395D01*
X128472927Y-148347468D01*
X128374264Y-148080613D01*
X127764539Y-147854092D01*
X127114540Y-147878144D01*
X126625736Y-148080613D01*
X126527073Y-148347468D01*
X125319964Y-148347468D01*
X125621226Y-148046207D01*
X125690152Y-148000152D01*
X125872604Y-147727094D01*
X125920500Y-147486303D01*
X125920500Y-147486299D01*
X125936671Y-147405001D01*
X125920500Y-147323703D01*
X125920500Y-137152532D01*
X126527073Y-137152532D01*
X126625736Y-137419387D01*
X127235461Y-137645908D01*
X127885460Y-137621856D01*
X128374264Y-137419387D01*
X128472927Y-137152532D01*
X127500000Y-136179605D01*
X126527073Y-137152532D01*
X125920500Y-137152532D01*
X125920500Y-136487717D01*
X126080613Y-136874264D01*
X126347468Y-136972927D01*
X127320395Y-136000000D01*
X127679605Y-136000000D01*
X128652532Y-136972927D01*
X128919387Y-136874264D01*
X129145908Y-136264539D01*
X129121856Y-135614540D01*
X128919387Y-135125736D01*
X128652532Y-135027073D01*
X127679605Y-136000000D01*
X127320395Y-136000000D01*
X126347468Y-135027073D01*
X126080613Y-135125736D01*
X125920500Y-135556711D01*
X125920500Y-134847468D01*
X126527073Y-134847468D01*
X127500000Y-135820395D01*
X128472927Y-134847468D01*
X128374264Y-134580613D01*
X127764539Y-134354092D01*
X127114540Y-134378144D01*
X126625736Y-134580613D01*
X126527073Y-134847468D01*
X125920500Y-134847468D01*
X125920500Y-130652532D01*
X126527073Y-130652532D01*
X126625736Y-130919387D01*
X127235461Y-131145908D01*
X127885460Y-131121856D01*
X128374264Y-130919387D01*
X128472927Y-130652532D01*
X127500000Y-129679605D01*
X126527073Y-130652532D01*
X125920500Y-130652532D01*
X125920500Y-129987717D01*
X126080613Y-130374264D01*
X126347468Y-130472927D01*
X127320395Y-129500000D01*
X127679605Y-129500000D01*
X128652532Y-130472927D01*
X128919387Y-130374264D01*
X129145908Y-129764539D01*
X129121856Y-129114540D01*
X128919387Y-128625736D01*
X128652532Y-128527073D01*
X127679605Y-129500000D01*
X127320395Y-129500000D01*
X127306253Y-129485858D01*
X127485858Y-129306253D01*
X127500000Y-129320395D01*
X128472927Y-128347468D01*
X128374264Y-128080613D01*
X127764539Y-127854092D01*
X127296003Y-127871429D01*
X130701226Y-124466207D01*
X130770152Y-124420152D01*
X130952604Y-124147094D01*
X131000500Y-123906303D01*
X131000500Y-123906302D01*
X131016672Y-123825000D01*
X131000500Y-123743699D01*
X131000500Y-123000000D01*
X132352560Y-123000000D01*
X132352560Y-125000000D01*
X132401843Y-125247765D01*
X132542191Y-125457809D01*
X132752235Y-125598157D01*
X133000000Y-125647440D01*
X135000000Y-125647440D01*
X135247765Y-125598157D01*
X135457809Y-125457809D01*
X135598157Y-125247765D01*
X135647440Y-125000000D01*
X135647440Y-123000000D01*
X135598157Y-122752235D01*
X135457809Y-122542191D01*
X135247765Y-122401843D01*
X135000000Y-122352560D01*
X133000000Y-122352560D01*
X132752235Y-122401843D01*
X132542191Y-122542191D01*
X132401843Y-122752235D01*
X132352560Y-123000000D01*
X131000500Y-123000000D01*
X131000500Y-119496097D01*
X131085565Y-119694788D01*
X131767734Y-119954707D01*
X132497443Y-119933786D01*
X133074435Y-119694788D01*
X133197570Y-119407175D01*
X132080000Y-118289605D01*
X132065858Y-118303748D01*
X131886253Y-118124143D01*
X131900395Y-118110000D01*
X132259605Y-118110000D01*
X133377175Y-119227570D01*
X133484199Y-119181750D01*
X146351000Y-119181750D01*
X146351000Y-119972309D01*
X146447673Y-120205698D01*
X146626301Y-120384327D01*
X146859690Y-120481000D01*
X147100250Y-120481000D01*
X147259000Y-120322250D01*
X147259000Y-119023000D01*
X146509750Y-119023000D01*
X146351000Y-119181750D01*
X133484199Y-119181750D01*
X133664788Y-119104435D01*
X133924707Y-118422266D01*
X133907431Y-117819691D01*
X146351000Y-117819691D01*
X146351000Y-118610250D01*
X146509750Y-118769000D01*
X147259000Y-118769000D01*
X147259000Y-117469750D01*
X147100250Y-117311000D01*
X146859690Y-117311000D01*
X146626301Y-117407673D01*
X146447673Y-117586302D01*
X146351000Y-117819691D01*
X133907431Y-117819691D01*
X133903786Y-117692557D01*
X133664788Y-117115565D01*
X133377175Y-116992430D01*
X132259605Y-118110000D01*
X131900395Y-118110000D01*
X131886253Y-118095858D01*
X132065858Y-117916253D01*
X132080000Y-117930395D01*
X133197570Y-116812825D01*
X133074435Y-116525212D01*
X132392266Y-116265293D01*
X131662557Y-116286214D01*
X131085565Y-116525212D01*
X131000500Y-116723903D01*
X131000500Y-115837969D01*
X131016671Y-115756671D01*
X131000500Y-115675373D01*
X131000500Y-115675369D01*
X130952604Y-115434578D01*
X130770152Y-115161520D01*
X130701226Y-115115465D01*
X129819500Y-114233740D01*
X129819500Y-106062932D01*
X129928376Y-105954056D01*
X130175000Y-106003113D01*
X130734909Y-105891740D01*
X131209577Y-105574577D01*
X131445000Y-105222241D01*
X131673601Y-105564365D01*
X131673601Y-106257432D01*
X131653199Y-106360000D01*
X131691199Y-106551040D01*
X131587639Y-106654600D01*
X131469432Y-106654600D01*
X131437257Y-106661000D01*
X131366126Y-106661000D01*
X131300409Y-106688221D01*
X131165666Y-106715023D01*
X131051438Y-106791348D01*
X130985720Y-106818569D01*
X130935421Y-106868868D01*
X130821193Y-106945193D01*
X130744868Y-107059421D01*
X130694569Y-107109720D01*
X130667348Y-107175438D01*
X130591023Y-107289666D01*
X130564221Y-107424409D01*
X130537000Y-107490126D01*
X130537000Y-107561257D01*
X130510198Y-107696000D01*
X130537000Y-107830743D01*
X130537000Y-107901874D01*
X130564221Y-107967591D01*
X130591023Y-108102334D01*
X130667348Y-108216562D01*
X130694569Y-108282280D01*
X130744868Y-108332579D01*
X130821193Y-108446807D01*
X130935421Y-108523132D01*
X130985720Y-108573431D01*
X131051438Y-108600652D01*
X131165666Y-108676977D01*
X131300409Y-108703779D01*
X131366126Y-108731000D01*
X131437257Y-108731000D01*
X131469432Y-108737400D01*
X131916436Y-108737400D01*
X132019000Y-108757801D01*
X132121564Y-108737400D01*
X132121568Y-108737400D01*
X132425334Y-108676977D01*
X132769807Y-108446807D01*
X132827908Y-108359854D01*
X133485322Y-107702440D01*
X133635000Y-107702440D01*
X133882765Y-107653157D01*
X133974102Y-107592127D01*
X133975302Y-107593327D01*
X134208691Y-107690000D01*
X134649250Y-107690000D01*
X134808000Y-107531250D01*
X134808000Y-106807000D01*
X135062000Y-106807000D01*
X135062000Y-107531250D01*
X135220750Y-107690000D01*
X135661309Y-107690000D01*
X135894698Y-107593327D01*
X136073327Y-107414699D01*
X136170000Y-107181310D01*
X136170000Y-106965750D01*
X136011250Y-106807000D01*
X135062000Y-106807000D01*
X134808000Y-106807000D01*
X134788000Y-106807000D01*
X134788000Y-106553000D01*
X134808000Y-106553000D01*
X134808000Y-106533000D01*
X135062000Y-106533000D01*
X135062000Y-106553000D01*
X136011250Y-106553000D01*
X136170000Y-106394250D01*
X136170000Y-106178690D01*
X136073327Y-105945301D01*
X135916620Y-105788594D01*
X136179896Y-105644500D01*
X136522501Y-105218501D01*
X136760424Y-105574577D01*
X136760424Y-105574577D01*
G37*
X136760424Y-105574577D02*
X136969500Y-105714277D01*
X136969501Y-107385566D01*
X135512508Y-108842560D01*
X131095000Y-108842560D01*
X130847235Y-108891843D01*
X130637191Y-109032191D01*
X130496843Y-109242235D01*
X130447560Y-109490000D01*
X130447560Y-111490000D01*
X130496843Y-111737765D01*
X130637191Y-111947809D01*
X130847235Y-112088157D01*
X131095000Y-112137440D01*
X135605138Y-112137440D01*
X136085001Y-112617303D01*
X136085001Y-113055386D01*
X135997235Y-113072843D01*
X135787191Y-113213191D01*
X135646843Y-113423235D01*
X135597560Y-113671000D01*
X135597560Y-114421000D01*
X135646843Y-114668765D01*
X135787191Y-114878809D01*
X135997235Y-115019157D01*
X136245000Y-115068440D01*
X137445000Y-115068440D01*
X137692765Y-115019157D01*
X137784102Y-114958127D01*
X137785302Y-114959327D01*
X138018691Y-115056000D01*
X138459250Y-115056000D01*
X138618000Y-114897250D01*
X138618000Y-114173000D01*
X138872000Y-114173000D01*
X138872000Y-114897250D01*
X139030750Y-115056000D01*
X139471309Y-115056000D01*
X139700000Y-114961273D01*
X139928691Y-115056000D01*
X140369250Y-115056000D01*
X140528000Y-114897250D01*
X140528000Y-114173000D01*
X138872000Y-114173000D01*
X138618000Y-114173000D01*
X138598000Y-114173000D01*
X138598000Y-113919000D01*
X138618000Y-113919000D01*
X138618000Y-113194750D01*
X138872000Y-113194750D01*
X138872000Y-113919000D01*
X140528000Y-113919000D01*
X140528000Y-113194750D01*
X140369250Y-113036000D01*
X139928691Y-113036000D01*
X139700000Y-113130727D01*
X139471309Y-113036000D01*
X139030750Y-113036000D01*
X138872000Y-113194750D01*
X138618000Y-113194750D01*
X138459250Y-113036000D01*
X138018691Y-113036000D01*
X137785302Y-113132673D01*
X137784102Y-113133873D01*
X137692765Y-113072843D01*
X137605000Y-113055386D01*
X137605000Y-112377346D01*
X137619888Y-112302499D01*
X137605000Y-112227652D01*
X137605000Y-112227648D01*
X137587056Y-112137440D01*
X138970000Y-112137440D01*
X139217765Y-112088157D01*
X139427809Y-111947809D01*
X139568157Y-111737765D01*
X139617440Y-111490000D01*
X139617440Y-109490000D01*
X139568157Y-109242235D01*
X139427809Y-109032191D01*
X139217765Y-108891843D01*
X138970000Y-108842560D01*
X137847373Y-108842560D01*
X138321226Y-108368707D01*
X138390152Y-108322652D01*
X138572604Y-108049594D01*
X138620500Y-107808803D01*
X138620500Y-107808802D01*
X138636672Y-107727500D01*
X138620500Y-107646199D01*
X138620500Y-105714278D01*
X138829577Y-105574577D01*
X139065000Y-105222241D01*
X139300424Y-105574577D01*
X139509501Y-105714277D01*
X139509501Y-106773694D01*
X139493328Y-106855000D01*
X139551476Y-107147328D01*
X139557397Y-107177094D01*
X139739849Y-107450152D01*
X139808775Y-107496207D01*
X142322560Y-110009993D01*
X142322560Y-111062639D01*
X142070528Y-111314671D01*
X142007072Y-111357071D01*
X141964672Y-111420527D01*
X141964671Y-111420528D01*
X141839097Y-111608463D01*
X141780112Y-111905000D01*
X141795001Y-111979852D01*
X141795000Y-113055386D01*
X141707235Y-113072843D01*
X141615898Y-113133873D01*
X141614698Y-113132673D01*
X141381309Y-113036000D01*
X140940750Y-113036000D01*
X140782000Y-113194750D01*
X140782000Y-113919000D01*
X140802000Y-113919000D01*
X140802000Y-114173000D01*
X140782000Y-114173000D01*
X140782000Y-114897250D01*
X140940750Y-115056000D01*
X141381309Y-115056000D01*
X141614698Y-114959327D01*
X141615898Y-114958127D01*
X141707235Y-115019157D01*
X141955000Y-115068440D01*
X143155000Y-115068440D01*
X143402765Y-115019157D01*
X143612809Y-114878809D01*
X143753157Y-114668765D01*
X143802440Y-114421000D01*
X143802440Y-113671000D01*
X143753157Y-113423235D01*
X143612809Y-113213191D01*
X143402765Y-113072843D01*
X143315000Y-113055386D01*
X143315000Y-112219801D01*
X143397361Y-112137440D01*
X150845000Y-112137440D01*
X151092765Y-112088157D01*
X151302809Y-111947809D01*
X151443157Y-111737765D01*
X151492440Y-111490000D01*
X151492440Y-109490000D01*
X151443157Y-109242235D01*
X151302809Y-109032191D01*
X151092765Y-108891843D01*
X150845000Y-108842560D01*
X143489993Y-108842560D01*
X143421501Y-108774069D01*
X143510000Y-108791672D01*
X143591303Y-108775500D01*
X151423068Y-108775500D01*
X151574500Y-108926933D01*
X151574500Y-113363842D01*
X151335874Y-113265000D01*
X150924126Y-113265000D01*
X150543720Y-113422569D01*
X150252569Y-113713720D01*
X150095000Y-114094126D01*
X150095000Y-114505874D01*
X150252569Y-114886280D01*
X150304501Y-114938212D01*
X150304501Y-115262193D01*
X150222191Y-115317191D01*
X150081843Y-115527235D01*
X150032560Y-115775000D01*
X150032560Y-116975000D01*
X150081843Y-117222765D01*
X150222191Y-117432809D01*
X150285334Y-117475000D01*
X150222191Y-117517191D01*
X150192689Y-117561344D01*
X150143809Y-117488191D01*
X149933765Y-117347843D01*
X149686000Y-117298560D01*
X148886000Y-117298560D01*
X148638235Y-117347843D01*
X148428191Y-117488191D01*
X148338987Y-117621694D01*
X148324327Y-117586302D01*
X148145699Y-117407673D01*
X147912310Y-117311000D01*
X147671750Y-117311000D01*
X147513000Y-117469750D01*
X147513000Y-118769000D01*
X147533000Y-118769000D01*
X147533000Y-119023000D01*
X147513000Y-119023000D01*
X147513000Y-120322250D01*
X147598531Y-120407781D01*
X147478191Y-120488191D01*
X147337843Y-120698235D01*
X147288560Y-120946000D01*
X147288560Y-122326007D01*
X146440068Y-123174500D01*
X143027778Y-123174500D01*
X142986086Y-123073847D01*
X142526153Y-122613914D01*
X141925222Y-122365000D01*
X141274778Y-122365000D01*
X140673847Y-122613914D01*
X140213914Y-123073847D01*
X139965000Y-123674778D01*
X139965000Y-124325222D01*
X140213914Y-124926153D01*
X140673847Y-125386086D01*
X141274778Y-125635000D01*
X141925222Y-125635000D01*
X142526153Y-125386086D01*
X142986086Y-124926153D01*
X143027778Y-124825500D01*
X146700699Y-124825500D01*
X146782000Y-124841672D01*
X146863301Y-124825500D01*
X146863303Y-124825500D01*
X147104094Y-124777604D01*
X147377152Y-124595152D01*
X147423209Y-124526223D01*
X148455993Y-123493440D01*
X148736000Y-123493440D01*
X148983765Y-123444157D01*
X149193809Y-123303809D01*
X149334157Y-123093765D01*
X149383440Y-122846000D01*
X149383440Y-120946000D01*
X149334157Y-120698235D01*
X149197316Y-120493440D01*
X149686000Y-120493440D01*
X149933765Y-120444157D01*
X150143809Y-120303809D01*
X150284157Y-120093765D01*
X150333440Y-119846000D01*
X150333440Y-119721500D01*
X150354925Y-119721500D01*
X150432235Y-119773157D01*
X150680000Y-119822440D01*
X151574501Y-119822440D01*
X151574501Y-124118066D01*
X148883068Y-126809500D01*
X139146297Y-126809500D01*
X139064999Y-126793329D01*
X138983701Y-126809500D01*
X138983697Y-126809500D01*
X138742906Y-126857396D01*
X138742904Y-126857397D01*
X138742905Y-126857397D01*
X138538772Y-126993794D01*
X138538771Y-126993795D01*
X138469848Y-127039848D01*
X138423795Y-127108771D01*
X130473777Y-135058791D01*
X130404848Y-135104848D01*
X130222396Y-135377907D01*
X130182076Y-135580613D01*
X130158328Y-135700000D01*
X130174500Y-135781302D01*
X130174501Y-138072222D01*
X130073847Y-138113914D01*
X129613914Y-138573847D01*
X129365000Y-139174778D01*
X129365000Y-139825222D01*
X129613914Y-140426153D01*
X130073847Y-140886086D01*
X130111001Y-140901476D01*
X130111000Y-144598525D01*
X130073847Y-144613914D01*
X129613914Y-145073847D01*
X129365000Y-145674778D01*
X129365000Y-146325222D01*
X129613914Y-146926153D01*
X130073847Y-147386086D01*
X130674778Y-147635000D01*
X131325222Y-147635000D01*
X131926153Y-147386086D01*
X132159707Y-147152532D01*
X134527073Y-147152532D01*
X134625736Y-147419387D01*
X135235461Y-147645908D01*
X135885460Y-147621856D01*
X136374264Y-147419387D01*
X136472927Y-147152532D01*
X135500000Y-146179605D01*
X134527073Y-147152532D01*
X132159707Y-147152532D01*
X132386086Y-146926153D01*
X132635000Y-146325222D01*
X132635000Y-145735461D01*
X133854092Y-145735461D01*
X133878144Y-146385460D01*
X134080613Y-146874264D01*
X134347468Y-146972927D01*
X135320395Y-146000000D01*
X135679605Y-146000000D01*
X136652532Y-146972927D01*
X136919387Y-146874264D01*
X137145908Y-146264539D01*
X137121856Y-145614540D01*
X136919387Y-145125736D01*
X136652532Y-145027073D01*
X135679605Y-146000000D01*
X135320395Y-146000000D01*
X134347468Y-145027073D01*
X134080613Y-145125736D01*
X133854092Y-145735461D01*
X132635000Y-145735461D01*
X132635000Y-145674778D01*
X132386086Y-145073847D01*
X132159707Y-144847468D01*
X134527073Y-144847468D01*
X135500000Y-145820395D01*
X136472927Y-144847468D01*
X136374264Y-144580613D01*
X135764539Y-144354092D01*
X135114540Y-144378144D01*
X134625736Y-144580613D01*
X134527073Y-144847468D01*
X132159707Y-144847468D01*
X131926153Y-144613914D01*
X131889000Y-144598525D01*
X131889000Y-140901475D01*
X131926153Y-140886086D01*
X132159707Y-140652532D01*
X134527073Y-140652532D01*
X134625736Y-140919387D01*
X135235461Y-141145908D01*
X135885460Y-141121856D01*
X136374264Y-140919387D01*
X136472927Y-140652532D01*
X135500000Y-139679605D01*
X134527073Y-140652532D01*
X132159707Y-140652532D01*
X132386086Y-140426153D01*
X132635000Y-139825222D01*
X132635000Y-139235461D01*
X133854092Y-139235461D01*
X133878144Y-139885460D01*
X134080613Y-140374264D01*
X134347468Y-140472927D01*
X135320395Y-139500000D01*
X135679605Y-139500000D01*
X136652532Y-140472927D01*
X136919387Y-140374264D01*
X137145908Y-139764539D01*
X137121856Y-139114540D01*
X136919387Y-138625736D01*
X136652532Y-138527073D01*
X135679605Y-139500000D01*
X135320395Y-139500000D01*
X134347468Y-138527073D01*
X134080613Y-138625736D01*
X133854092Y-139235461D01*
X132635000Y-139235461D01*
X132635000Y-139174778D01*
X132386086Y-138573847D01*
X132159707Y-138347468D01*
X134527073Y-138347468D01*
X135500000Y-139320395D01*
X136472927Y-138347468D01*
X136374264Y-138080613D01*
X135764539Y-137854092D01*
X135114540Y-137878144D01*
X134625736Y-138080613D01*
X134527073Y-138347468D01*
X132159707Y-138347468D01*
X131926153Y-138113914D01*
X131825500Y-138072222D01*
X131825500Y-136041932D01*
X139406934Y-128460500D01*
X148872068Y-128460500D01*
X148425876Y-128906692D01*
X148325222Y-128865000D01*
X147674778Y-128865000D01*
X147073847Y-129113914D01*
X146613914Y-129573847D01*
X146365000Y-130174778D01*
X146365000Y-130825222D01*
X146613914Y-131426153D01*
X147073847Y-131886086D01*
X147111000Y-131901475D01*
X147111001Y-135598524D01*
X147073847Y-135613914D01*
X146613914Y-136073847D01*
X146365000Y-136674778D01*
X146365000Y-137325222D01*
X146613914Y-137926153D01*
X147073847Y-138386086D01*
X147674778Y-138635000D01*
X148325222Y-138635000D01*
X148926153Y-138386086D01*
X149159707Y-138152532D01*
X151527073Y-138152532D01*
X151625736Y-138419387D01*
X152235461Y-138645908D01*
X152885460Y-138621856D01*
X153374264Y-138419387D01*
X153472927Y-138152532D01*
X152500000Y-137179605D01*
X151527073Y-138152532D01*
X149159707Y-138152532D01*
X149386086Y-137926153D01*
X149635000Y-137325222D01*
X149635000Y-136735461D01*
X150854092Y-136735461D01*
X150878144Y-137385460D01*
X151080613Y-137874264D01*
X151347468Y-137972927D01*
X152320395Y-137000000D01*
X151347468Y-136027073D01*
X151080613Y-136125736D01*
X150854092Y-136735461D01*
X149635000Y-136735461D01*
X149635000Y-136674778D01*
X149386086Y-136073847D01*
X149159707Y-135847468D01*
X151527073Y-135847468D01*
X152500000Y-136820395D01*
X153472927Y-135847468D01*
X153374264Y-135580613D01*
X152764539Y-135354092D01*
X152114540Y-135378144D01*
X151625736Y-135580613D01*
X151527073Y-135847468D01*
X149159707Y-135847468D01*
X148926153Y-135613914D01*
X148889000Y-135598525D01*
X148889000Y-131901475D01*
X148926153Y-131886086D01*
X149159707Y-131652532D01*
X151527073Y-131652532D01*
X151625736Y-131919387D01*
X152235461Y-132145908D01*
X152885460Y-132121856D01*
X153374264Y-131919387D01*
X153472927Y-131652532D01*
X152500000Y-130679605D01*
X151527073Y-131652532D01*
X149159707Y-131652532D01*
X149386086Y-131426153D01*
X149635000Y-130825222D01*
X149635000Y-130235461D01*
X150854092Y-130235461D01*
X150878144Y-130885460D01*
X151080613Y-131374264D01*
X151347468Y-131472927D01*
X152320395Y-130500000D01*
X151347468Y-129527073D01*
X151080613Y-129625736D01*
X150854092Y-130235461D01*
X149635000Y-130235461D01*
X149635000Y-130174778D01*
X149593308Y-130074124D01*
X150319964Y-129347468D01*
X151527073Y-129347468D01*
X152500000Y-130320395D01*
X153472927Y-129347468D01*
X153374264Y-129080613D01*
X152764539Y-128854092D01*
X152114540Y-128878144D01*
X151625736Y-129080613D01*
X151527073Y-129347468D01*
X150319964Y-129347468D01*
X153537500Y-126129933D01*
X154114500Y-126706933D01*
X154114500Y-130096782D01*
X153919387Y-129625736D01*
X153652532Y-129527073D01*
X152679605Y-130500000D01*
X153652532Y-131472927D01*
X153919387Y-131374264D01*
X154114500Y-130849079D01*
X154114501Y-136596783D01*
X153919387Y-136125736D01*
X153652532Y-136027073D01*
X152679605Y-137000000D01*
X153652532Y-137972927D01*
X153919387Y-137874264D01*
X154114501Y-137349077D01*
X154114501Y-138348692D01*
X154114500Y-138348697D01*
X154114500Y-138723066D01*
X149237403Y-143600164D01*
X148881153Y-143243914D01*
X148280222Y-142995000D01*
X147629778Y-142995000D01*
X147028847Y-143243914D01*
X146568914Y-143703847D01*
X146320000Y-144304778D01*
X146320000Y-144955222D01*
X146568914Y-145556153D01*
X147028847Y-146016086D01*
X147129500Y-146057778D01*
X147129501Y-149702222D01*
X147028847Y-149743914D01*
X146568914Y-150203847D01*
X146320000Y-150804778D01*
X146320000Y-151455222D01*
X146568914Y-152056153D01*
X147028847Y-152516086D01*
X147629778Y-152765000D01*
X148280222Y-152765000D01*
X148881153Y-152516086D01*
X149114707Y-152282532D01*
X151482073Y-152282532D01*
X151580736Y-152549387D01*
X152190461Y-152775908D01*
X152840460Y-152751856D01*
X153329264Y-152549387D01*
X153427927Y-152282532D01*
X152455000Y-151309605D01*
X151482073Y-152282532D01*
X149114707Y-152282532D01*
X149341086Y-152056153D01*
X149590000Y-151455222D01*
X149590000Y-150865461D01*
X150809092Y-150865461D01*
X150833144Y-151515460D01*
X151035613Y-152004264D01*
X151302468Y-152102927D01*
X152275395Y-151130000D01*
X152634605Y-151130000D01*
X153607532Y-152102927D01*
X153874387Y-152004264D01*
X154100908Y-151394539D01*
X154076856Y-150744540D01*
X153874387Y-150255736D01*
X153607532Y-150157073D01*
X152634605Y-151130000D01*
X152275395Y-151130000D01*
X151302468Y-150157073D01*
X151035613Y-150255736D01*
X150809092Y-150865461D01*
X149590000Y-150865461D01*
X149590000Y-150804778D01*
X149341086Y-150203847D01*
X149114707Y-149977468D01*
X151482073Y-149977468D01*
X152455000Y-150950395D01*
X153427927Y-149977468D01*
X153329264Y-149710613D01*
X152719539Y-149484092D01*
X152069540Y-149508144D01*
X151580736Y-149710613D01*
X151482073Y-149977468D01*
X149114707Y-149977468D01*
X148881153Y-149743914D01*
X148780500Y-149702222D01*
X148780500Y-146057778D01*
X148881153Y-146016086D01*
X149114707Y-145782532D01*
X151482073Y-145782532D01*
X151580736Y-146049387D01*
X152190461Y-146275908D01*
X152840460Y-146251856D01*
X153329264Y-146049387D01*
X153427927Y-145782532D01*
X152455000Y-144809605D01*
X151482073Y-145782532D01*
X149114707Y-145782532D01*
X149341086Y-145556153D01*
X149376176Y-145471438D01*
X149456301Y-145455500D01*
X149456303Y-145455500D01*
X149697094Y-145407604D01*
X149970152Y-145225152D01*
X150016209Y-145156223D01*
X150810346Y-144362087D01*
X150809092Y-144365461D01*
X150833144Y-145015460D01*
X151035613Y-145504264D01*
X151302468Y-145602927D01*
X152275395Y-144630000D01*
X152634605Y-144630000D01*
X153607532Y-145602927D01*
X153874387Y-145504264D01*
X154100908Y-144894539D01*
X154076856Y-144244540D01*
X153874387Y-143755736D01*
X153607532Y-143657073D01*
X152634605Y-144630000D01*
X152275395Y-144630000D01*
X152261253Y-144615858D01*
X152440858Y-144436253D01*
X152455000Y-144450395D01*
X153427927Y-143477468D01*
X153329264Y-143210613D01*
X152719539Y-142984092D01*
X152167930Y-143004503D01*
X155466229Y-139706205D01*
X155535152Y-139660152D01*
X155587838Y-139581303D01*
X155700665Y-139412445D01*
X155717604Y-139387094D01*
X155765500Y-139146303D01*
X155765500Y-139146299D01*
X155781671Y-139065001D01*
X155765500Y-138983703D01*
X155765500Y-129134890D01*
X156038524Y-129134890D01*
X156208355Y-129544924D01*
X156598642Y-129973183D01*
X157123108Y-130219486D01*
X157353000Y-130098819D01*
X157353000Y-128905000D01*
X157607000Y-128905000D01*
X157607000Y-130098819D01*
X157836892Y-130219486D01*
X158361358Y-129973183D01*
X158751645Y-129544924D01*
X158921476Y-129134890D01*
X158800155Y-128905000D01*
X157607000Y-128905000D01*
X157353000Y-128905000D01*
X156159845Y-128905000D01*
X156038524Y-129134890D01*
X155765500Y-129134890D01*
X155765500Y-126446303D01*
X155781672Y-126365000D01*
X155717604Y-126042905D01*
X155626586Y-125906689D01*
X155535152Y-125769848D01*
X155466226Y-125723793D01*
X154716001Y-124973569D01*
X154716001Y-116078000D01*
X155965908Y-116078000D01*
X156081161Y-116657418D01*
X156409375Y-117148625D01*
X156707761Y-117348000D01*
X156409375Y-117547375D01*
X156081161Y-118038582D01*
X155965908Y-118618000D01*
X156081161Y-119197418D01*
X156409375Y-119688625D01*
X156707761Y-119888000D01*
X156409375Y-120087375D01*
X156081161Y-120578582D01*
X155965908Y-121158000D01*
X156081161Y-121737418D01*
X156409375Y-122228625D01*
X156707761Y-122428000D01*
X156409375Y-122627375D01*
X156081161Y-123118582D01*
X155965908Y-123698000D01*
X156081161Y-124277418D01*
X156409375Y-124768625D01*
X156707761Y-124968000D01*
X156409375Y-125167375D01*
X156081161Y-125658582D01*
X155965908Y-126238000D01*
X156081161Y-126817418D01*
X156409375Y-127308625D01*
X156728478Y-127521843D01*
X156598642Y-127582817D01*
X156208355Y-128011076D01*
X156038524Y-128421110D01*
X156159845Y-128651000D01*
X157353000Y-128651000D01*
X157353000Y-128631000D01*
X157607000Y-128631000D01*
X157607000Y-128651000D01*
X158800155Y-128651000D01*
X158921476Y-128421110D01*
X158751645Y-128011076D01*
X158361358Y-127582817D01*
X158231522Y-127521843D01*
X158550625Y-127308625D01*
X158878839Y-126817418D01*
X158994092Y-126238000D01*
X158878839Y-125658582D01*
X158550625Y-125167375D01*
X158252239Y-124968000D01*
X158550625Y-124768625D01*
X158878839Y-124277418D01*
X158994092Y-123698000D01*
X158878839Y-123118582D01*
X158550625Y-122627375D01*
X158252239Y-122428000D01*
X158550625Y-122228625D01*
X158878839Y-121737418D01*
X158994092Y-121158000D01*
X158878839Y-120578582D01*
X158550625Y-120087375D01*
X158252239Y-119888000D01*
X158550625Y-119688625D01*
X158878839Y-119197418D01*
X158994092Y-118618000D01*
X158878839Y-118038582D01*
X158550625Y-117547375D01*
X158252239Y-117348000D01*
X158550625Y-117148625D01*
X158878839Y-116657418D01*
X158994092Y-116078000D01*
X158878839Y-115498582D01*
X158550625Y-115007375D01*
X158532381Y-114995184D01*
X158577765Y-114986157D01*
X158787809Y-114845809D01*
X158928157Y-114635765D01*
X158977440Y-114388000D01*
X158977440Y-112688000D01*
X158928157Y-112440235D01*
X158787809Y-112230191D01*
X158577765Y-112089843D01*
X158330000Y-112040560D01*
X156630000Y-112040560D01*
X156382235Y-112089843D01*
X156172191Y-112230191D01*
X156031843Y-112440235D01*
X155982560Y-112688000D01*
X155982560Y-114388000D01*
X156031843Y-114635765D01*
X156172191Y-114845809D01*
X156382235Y-114986157D01*
X156427619Y-114995184D01*
X156409375Y-115007375D01*
X156081161Y-115498582D01*
X155965908Y-116078000D01*
X154716001Y-116078000D01*
X154716001Y-111517492D01*
X154734126Y-111525000D01*
X155145874Y-111525000D01*
X155526280Y-111367431D01*
X155817431Y-111076280D01*
X155975000Y-110695874D01*
X155975000Y-110622432D01*
X159265001Y-107332432D01*
X159265000Y-153191432D01*
X159133945Y-153103864D01*
X158657031Y-153009000D01*
X158334969Y-153009000D01*
X157858055Y-153103864D01*
X157317231Y-153465231D01*
X156955864Y-154006055D01*
X156828969Y-154644000D01*
X156955864Y-155281945D01*
X157317231Y-155822769D01*
X157858055Y-156184136D01*
X158334969Y-156279000D01*
X158657031Y-156279000D01*
X159133945Y-156184136D01*
X159265000Y-156096568D01*
X159265000Y-166991432D01*
X159133945Y-166903864D01*
X158657031Y-166809000D01*
X158334969Y-166809000D01*
X157858055Y-166903864D01*
X157317231Y-167265231D01*
X156955864Y-167806055D01*
X156828969Y-168444000D01*
X156955864Y-169081945D01*
X157317231Y-169622769D01*
X157858055Y-169984136D01*
X158334969Y-170079000D01*
X158657031Y-170079000D01*
X159133945Y-169984136D01*
X159265000Y-169896568D01*
X159265000Y-177947636D01*
X159206956Y-178352938D01*
X159059385Y-178677504D01*
X158826650Y-178947606D01*
X158527459Y-179141532D01*
X158161525Y-179250970D01*
X157972727Y-179265000D01*
X139656370Y-179265000D01*
X139736000Y-179006500D01*
X139736000Y-178656500D01*
X136128000Y-178656500D01*
X136128000Y-178676500D01*
X135874000Y-178676500D01*
X135874000Y-178656500D01*
X134128000Y-178656500D01*
X134128000Y-178676500D01*
X133874000Y-178676500D01*
X133874000Y-178656500D01*
X130266000Y-178656500D01*
X130266000Y-179006500D01*
X130345630Y-179265000D01*
X112052364Y-179265000D01*
X111647062Y-179206956D01*
X111322496Y-179059385D01*
X111052394Y-178826650D01*
X110858468Y-178527459D01*
X110749030Y-178161525D01*
X110735000Y-177972727D01*
X110735000Y-175555431D01*
X111765000Y-175555431D01*
X111765000Y-176444569D01*
X112105259Y-177266026D01*
X112733974Y-177894741D01*
X113555431Y-178235000D01*
X114444569Y-178235000D01*
X115266026Y-177894741D01*
X115894741Y-177266026D01*
X116235000Y-176444569D01*
X116235000Y-175555431D01*
X116216966Y-175511891D01*
X130557538Y-175511891D01*
X130682269Y-175702500D01*
X131974000Y-175702500D01*
X131974000Y-174594500D01*
X131624000Y-174594500D01*
X131161053Y-174737110D01*
X130787920Y-175046026D01*
X130561408Y-175474219D01*
X130557538Y-175511891D01*
X116216966Y-175511891D01*
X115894741Y-174733974D01*
X115266026Y-174105259D01*
X114444569Y-173765000D01*
X113555431Y-173765000D01*
X112733974Y-174105259D01*
X112105259Y-174733974D01*
X111765000Y-175555431D01*
X110735000Y-175555431D01*
X110735000Y-173005750D01*
X120220000Y-173005750D01*
X120220000Y-173296310D01*
X120316673Y-173529699D01*
X120495302Y-173708327D01*
X120728691Y-173805000D01*
X121169250Y-173805000D01*
X121328000Y-173646250D01*
X121328000Y-172847000D01*
X120378750Y-172847000D01*
X120220000Y-173005750D01*
X110735000Y-173005750D01*
X110735000Y-170465750D01*
X117520000Y-170465750D01*
X117520000Y-171156310D01*
X117616673Y-171389699D01*
X117795302Y-171568327D01*
X118028691Y-171665000D01*
X119519250Y-171665000D01*
X119678000Y-171506250D01*
X119678000Y-170307000D01*
X117678750Y-170307000D01*
X117520000Y-170465750D01*
X110735000Y-170465750D01*
X110735000Y-169203690D01*
X117520000Y-169203690D01*
X117520000Y-169894250D01*
X117678750Y-170053000D01*
X119678000Y-170053000D01*
X119678000Y-168853750D01*
X119932000Y-168853750D01*
X119932000Y-170053000D01*
X121931250Y-170053000D01*
X122090000Y-169894250D01*
X122090000Y-169203690D01*
X121993327Y-168970301D01*
X121814698Y-168791673D01*
X121581309Y-168695000D01*
X120090750Y-168695000D01*
X119932000Y-168853750D01*
X119678000Y-168853750D01*
X119519250Y-168695000D01*
X118028691Y-168695000D01*
X117795302Y-168791673D01*
X117616673Y-168970301D01*
X117520000Y-169203690D01*
X110735000Y-169203690D01*
X110735000Y-167290750D01*
X117520000Y-167290750D01*
X117520000Y-167981310D01*
X117616673Y-168214699D01*
X117795302Y-168393327D01*
X118028691Y-168490000D01*
X119519250Y-168490000D01*
X119678000Y-168331250D01*
X119678000Y-167132000D01*
X117678750Y-167132000D01*
X117520000Y-167290750D01*
X110735000Y-167290750D01*
X110735000Y-155216500D01*
X112517969Y-155216500D01*
X112644864Y-155854445D01*
X113006231Y-156395269D01*
X113081506Y-156445566D01*
X113037560Y-156666500D01*
X113037560Y-158166500D01*
X113086843Y-158414265D01*
X113227191Y-158624309D01*
X113276559Y-158657296D01*
X113130359Y-158876100D01*
X113022867Y-159416500D01*
X113130359Y-159956900D01*
X113436471Y-160415029D01*
X113438673Y-160416500D01*
X113436471Y-160417971D01*
X113130359Y-160876100D01*
X113022867Y-161416500D01*
X113130359Y-161956900D01*
X113314161Y-162231979D01*
X113006231Y-162437731D01*
X112644864Y-162978555D01*
X112517969Y-163616500D01*
X112644864Y-164254445D01*
X113006231Y-164795269D01*
X113547055Y-165156636D01*
X114023969Y-165251500D01*
X115846031Y-165251500D01*
X116322945Y-165156636D01*
X116863769Y-164795269D01*
X117225136Y-164254445D01*
X117352031Y-163616500D01*
X117225136Y-162978555D01*
X116863769Y-162437731D01*
X116555839Y-162231979D01*
X116739641Y-161956900D01*
X116847133Y-161416500D01*
X116739641Y-160876100D01*
X116433529Y-160417971D01*
X116431327Y-160416500D01*
X116433529Y-160415029D01*
X116739641Y-159956900D01*
X116847133Y-159416500D01*
X116739641Y-158876100D01*
X116593441Y-158657296D01*
X116642809Y-158624309D01*
X116783157Y-158414265D01*
X116832440Y-158166500D01*
X116832440Y-156666500D01*
X116788494Y-156445566D01*
X116863769Y-156395269D01*
X117225136Y-155854445D01*
X117352031Y-155216500D01*
X117225136Y-154578555D01*
X116863769Y-154037731D01*
X116322945Y-153676364D01*
X115846031Y-153581500D01*
X114023969Y-153581500D01*
X113547055Y-153676364D01*
X113006231Y-154037731D01*
X112644864Y-154578555D01*
X112517969Y-155216500D01*
X110735000Y-155216500D01*
X110735000Y-119360082D01*
X111040556Y-119665638D01*
X111714996Y-119945000D01*
X112445004Y-119945000D01*
X113119444Y-119665638D01*
X113635638Y-119149444D01*
X113915000Y-118475004D01*
X113915000Y-117744996D01*
X113635638Y-117070556D01*
X113119444Y-116554362D01*
X112445004Y-116275000D01*
X111714996Y-116275000D01*
X111040556Y-116554362D01*
X110735000Y-116859918D01*
X110735000Y-109362432D01*
X112068793Y-110696226D01*
X112114848Y-110765152D01*
X112251689Y-110856586D01*
X112387905Y-110947604D01*
X112710000Y-111011672D01*
X112791303Y-110995500D01*
X115862414Y-110995500D01*
X115866843Y-111017765D01*
X116007191Y-111227809D01*
X116217235Y-111368157D01*
X116465000Y-111417440D01*
X117215000Y-111417440D01*
X117462765Y-111368157D01*
X117672809Y-111227809D01*
X117704886Y-111179802D01*
X117837191Y-111377809D01*
X118047235Y-111518157D01*
X118295000Y-111567440D01*
X119195000Y-111567440D01*
X119442765Y-111518157D01*
X119576642Y-111428702D01*
X119809126Y-111525000D01*
X120220874Y-111525000D01*
X120601280Y-111367431D01*
X120892431Y-111076280D01*
X121050000Y-110695874D01*
X121050000Y-110284126D01*
X120892431Y-109903720D01*
X120601280Y-109612569D01*
X120220874Y-109455000D01*
X119809126Y-109455000D01*
X119787599Y-109463917D01*
X119652809Y-109262191D01*
X119589666Y-109220000D01*
X119652809Y-109177809D01*
X119793157Y-108967765D01*
X119842440Y-108720000D01*
X119842440Y-107520000D01*
X119793157Y-107272235D01*
X119652809Y-107062191D01*
X119570500Y-107007193D01*
X119570500Y-105914696D01*
X120015000Y-106003113D01*
X120574909Y-105891740D01*
X121049577Y-105574577D01*
X121285000Y-105222241D01*
X121520424Y-105574577D01*
X121995092Y-105891740D01*
X122555000Y-106003113D01*
X123114909Y-105891740D01*
X123589577Y-105574577D01*
X123825000Y-105222241D01*
X124060424Y-105574577D01*
X124269500Y-105714277D01*
X124269501Y-124753066D01*
X122848068Y-126174500D01*
X118826303Y-126174500D01*
X118745000Y-126158328D01*
X118422905Y-126222396D01*
X118331161Y-126283698D01*
X118149848Y-126404848D01*
X118103793Y-126473774D01*
X114473777Y-130103791D01*
X114404848Y-130149848D01*
X114222396Y-130422907D01*
X114176721Y-130652532D01*
X114158328Y-130745000D01*
X114174500Y-130826302D01*
X114174501Y-138072222D01*
X114073847Y-138113914D01*
X113613914Y-138573847D01*
X113365000Y-139174778D01*
X113365000Y-139825222D01*
X113613914Y-140426153D01*
X114073847Y-140886086D01*
X114111000Y-140901475D01*
X114111001Y-144598524D01*
X114073847Y-144613914D01*
X113613914Y-145073847D01*
X113365000Y-145674778D01*
X113365000Y-146325222D01*
X113613914Y-146926153D01*
X114073847Y-147386086D01*
X114174500Y-147427778D01*
X114174500Y-147495515D01*
X114222396Y-147736306D01*
X114404848Y-148009365D01*
X114677906Y-148191817D01*
X115000000Y-148255885D01*
X115322093Y-148191817D01*
X115595152Y-148009365D01*
X115693999Y-147861431D01*
X117919501Y-150086934D01*
X117919500Y-163748698D01*
X117903328Y-163830000D01*
X117919500Y-163911301D01*
X117919500Y-163911302D01*
X117967396Y-164152093D01*
X118149848Y-164425152D01*
X118218777Y-164471209D01*
X119119793Y-165372226D01*
X119165848Y-165441152D01*
X119283852Y-165520000D01*
X118028691Y-165520000D01*
X117795302Y-165616673D01*
X117616673Y-165795301D01*
X117520000Y-166028690D01*
X117520000Y-166719250D01*
X117678750Y-166878000D01*
X119678000Y-166878000D01*
X119678000Y-166858000D01*
X119932000Y-166858000D01*
X119932000Y-166878000D01*
X119952000Y-166878000D01*
X119952000Y-167132000D01*
X119932000Y-167132000D01*
X119932000Y-168331250D01*
X120090750Y-168490000D01*
X121581309Y-168490000D01*
X121814698Y-168393327D01*
X121842103Y-168365922D01*
X121891370Y-168613604D01*
X121904397Y-168679094D01*
X122086849Y-168952152D01*
X122155775Y-168998207D01*
X123007560Y-169849992D01*
X123007560Y-171030000D01*
X123056843Y-171277765D01*
X123197191Y-171487809D01*
X123398859Y-171622560D01*
X123055000Y-171622560D01*
X122807235Y-171671843D01*
X122597191Y-171812191D01*
X122556346Y-171873320D01*
X122414698Y-171731673D01*
X122181309Y-171635000D01*
X121740750Y-171635000D01*
X121582002Y-171793748D01*
X121582002Y-171664713D01*
X121814698Y-171568327D01*
X121993327Y-171389699D01*
X122090000Y-171156310D01*
X122090000Y-170465750D01*
X121931250Y-170307000D01*
X119932000Y-170307000D01*
X119932000Y-171506250D01*
X120090750Y-171665000D01*
X120656265Y-171665000D01*
X120495302Y-171731673D01*
X120316673Y-171910301D01*
X120220000Y-172143690D01*
X120220000Y-172434250D01*
X120378750Y-172593000D01*
X121328000Y-172593000D01*
X121328000Y-172573000D01*
X121582000Y-172573000D01*
X121582000Y-172593000D01*
X121602000Y-172593000D01*
X121602000Y-172847000D01*
X121582000Y-172847000D01*
X121582000Y-173646250D01*
X121740750Y-173805000D01*
X122181309Y-173805000D01*
X122414698Y-173708327D01*
X122556346Y-173566680D01*
X122597191Y-173627809D01*
X122807235Y-173768157D01*
X123055000Y-173817440D01*
X124255000Y-173817440D01*
X124502765Y-173768157D01*
X124712809Y-173627809D01*
X124759406Y-173558073D01*
X124777500Y-173561672D01*
X124858801Y-173545500D01*
X124858803Y-173545500D01*
X125099594Y-173497604D01*
X125372652Y-173315152D01*
X125418709Y-173246224D01*
X125831225Y-172833707D01*
X125900152Y-172787652D01*
X126082604Y-172514594D01*
X126130500Y-172273803D01*
X126146672Y-172192500D01*
X126130500Y-172111197D01*
X126130500Y-171677440D01*
X126955000Y-171677440D01*
X127202765Y-171628157D01*
X127412809Y-171487809D01*
X127553157Y-171277765D01*
X127602440Y-171030000D01*
X127602440Y-171005500D01*
X131103068Y-171005500D01*
X132510687Y-172413120D01*
X132285874Y-172320000D01*
X131874126Y-172320000D01*
X131493720Y-172477569D01*
X131202569Y-172768720D01*
X131045000Y-173149126D01*
X131045000Y-173560874D01*
X131202569Y-173941280D01*
X131493720Y-174232431D01*
X131874126Y-174390000D01*
X131947568Y-174390000D01*
X132228000Y-174670432D01*
X132228000Y-175702500D01*
X132248000Y-175702500D01*
X132248000Y-175956500D01*
X132228000Y-175956500D01*
X132228000Y-175988789D01*
X132173569Y-176043220D01*
X132016000Y-176423626D01*
X132016000Y-176835374D01*
X132061201Y-176944500D01*
X131974000Y-176944500D01*
X131974000Y-175956500D01*
X130682269Y-175956500D01*
X130557538Y-176147109D01*
X130561408Y-176184781D01*
X130787920Y-176612974D01*
X131161053Y-176921890D01*
X131314878Y-176969275D01*
X131218672Y-177009125D01*
X131183391Y-176986038D01*
X131145719Y-176989908D01*
X130717526Y-177216420D01*
X130408610Y-177589553D01*
X130266000Y-178052500D01*
X130266000Y-178402500D01*
X133874000Y-178402500D01*
X133874000Y-178382500D01*
X134128000Y-178382500D01*
X134128000Y-178402500D01*
X135874000Y-178402500D01*
X135874000Y-178382500D01*
X136128000Y-178382500D01*
X136128000Y-178402500D01*
X139736000Y-178402500D01*
X139736000Y-178052500D01*
X139593390Y-177589553D01*
X139284474Y-177216420D01*
X138856281Y-176989908D01*
X138818609Y-176986038D01*
X138783328Y-177009125D01*
X138687122Y-176969275D01*
X138840947Y-176921890D01*
X139214080Y-176612974D01*
X139440592Y-176184781D01*
X139444462Y-176147109D01*
X139319731Y-175956500D01*
X138028000Y-175956500D01*
X138028000Y-176944500D01*
X137940799Y-176944500D01*
X137986000Y-176835374D01*
X137986000Y-176423626D01*
X137828431Y-176043220D01*
X137774000Y-175988789D01*
X137774000Y-175956500D01*
X137754000Y-175956500D01*
X137754000Y-175702500D01*
X137774000Y-175702500D01*
X137774000Y-174594500D01*
X138028000Y-174594500D01*
X138028000Y-175702500D01*
X139319731Y-175702500D01*
X139415970Y-175555431D01*
X153765000Y-175555431D01*
X153765000Y-176444569D01*
X154105259Y-177266026D01*
X154733974Y-177894741D01*
X155555431Y-178235000D01*
X156444569Y-178235000D01*
X157266026Y-177894741D01*
X157894741Y-177266026D01*
X158235000Y-176444569D01*
X158235000Y-175555431D01*
X157894741Y-174733974D01*
X157266026Y-174105259D01*
X156444569Y-173765000D01*
X155555431Y-173765000D01*
X154733974Y-174105259D01*
X154105259Y-174733974D01*
X153765000Y-175555431D01*
X139415970Y-175555431D01*
X139444462Y-175511891D01*
X139440592Y-175474219D01*
X139214080Y-175046026D01*
X138840947Y-174737110D01*
X138378000Y-174594500D01*
X138028000Y-174594500D01*
X137774000Y-174594500D01*
X137424000Y-174594500D01*
X136976788Y-174732263D01*
X136860698Y-174616173D01*
X136627309Y-174519500D01*
X136559750Y-174519500D01*
X136401000Y-174678250D01*
X136401000Y-174834664D01*
X136308809Y-174696691D01*
X136098765Y-174556343D01*
X136074208Y-174551458D01*
X136042250Y-174519500D01*
X135974691Y-174519500D01*
X135954853Y-174527717D01*
X135896351Y-174516081D01*
X136022432Y-174390000D01*
X136095874Y-174390000D01*
X136476280Y-174232431D01*
X136767431Y-173941280D01*
X136925000Y-173560874D01*
X136925000Y-173355000D01*
X146440908Y-173355000D01*
X146556161Y-173934418D01*
X146884375Y-174425625D01*
X147375582Y-174753839D01*
X147808744Y-174840000D01*
X148101256Y-174840000D01*
X148534418Y-174753839D01*
X149025625Y-174425625D01*
X149037816Y-174407381D01*
X149046843Y-174452765D01*
X149187191Y-174662809D01*
X149397235Y-174803157D01*
X149645000Y-174852440D01*
X151345000Y-174852440D01*
X151592765Y-174803157D01*
X151802809Y-174662809D01*
X151943157Y-174452765D01*
X151992440Y-174205000D01*
X151992440Y-172505000D01*
X151943157Y-172257235D01*
X151802809Y-172047191D01*
X151592765Y-171906843D01*
X151345000Y-171857560D01*
X149645000Y-171857560D01*
X149397235Y-171906843D01*
X149187191Y-172047191D01*
X149046843Y-172257235D01*
X149037816Y-172302619D01*
X149025625Y-172284375D01*
X148534418Y-171956161D01*
X148101256Y-171870000D01*
X147808744Y-171870000D01*
X147375582Y-171956161D01*
X146884375Y-172284375D01*
X146556161Y-172775582D01*
X146440908Y-173355000D01*
X136925000Y-173355000D01*
X136925000Y-173149126D01*
X136767431Y-172768720D01*
X136476280Y-172477569D01*
X136380723Y-172437988D01*
X136591931Y-172226780D01*
X136749500Y-171846374D01*
X136749500Y-171772932D01*
X138512974Y-170009458D01*
X138652191Y-170217809D01*
X138862235Y-170358157D01*
X139110000Y-170407440D01*
X142410000Y-170407440D01*
X142657765Y-170358157D01*
X142867809Y-170217809D01*
X143008157Y-170007765D01*
X143057440Y-169760000D01*
X143057440Y-168060000D01*
X143008157Y-167812235D01*
X142867809Y-167602191D01*
X142657765Y-167461843D01*
X142410000Y-167412560D01*
X139110000Y-167412560D01*
X138862235Y-167461843D01*
X138652191Y-167602191D01*
X138511843Y-167812235D01*
X138462560Y-168060000D01*
X138462560Y-168071822D01*
X138444999Y-168068329D01*
X138363701Y-168084500D01*
X138363697Y-168084500D01*
X138122906Y-168132396D01*
X137849848Y-168314848D01*
X137803793Y-168383774D01*
X137193645Y-168993923D01*
X137303031Y-168444000D01*
X137281467Y-168335591D01*
X137355999Y-168350417D01*
X137443554Y-168333001D01*
X137443555Y-168333001D01*
X137702869Y-168281420D01*
X137996932Y-168084934D01*
X138046530Y-168010705D01*
X138798236Y-167259000D01*
X144709765Y-167259000D01*
X144863325Y-167412560D01*
X144610000Y-167412560D01*
X144362235Y-167461843D01*
X144152191Y-167602191D01*
X144011843Y-167812235D01*
X143962560Y-168060000D01*
X143962560Y-169760000D01*
X144011843Y-170007765D01*
X144152191Y-170217809D01*
X144362235Y-170358157D01*
X144610000Y-170407440D01*
X147910000Y-170407440D01*
X148157765Y-170358157D01*
X148367809Y-170217809D01*
X148508157Y-170007765D01*
X148557440Y-169760000D01*
X148557440Y-168060000D01*
X148508157Y-167812235D01*
X148367809Y-167602191D01*
X148157765Y-167461843D01*
X147910000Y-167412560D01*
X147138680Y-167412560D01*
X147097419Y-167205130D01*
X146900933Y-166911067D01*
X146826707Y-166861471D01*
X145768531Y-165803296D01*
X145718933Y-165729067D01*
X145424870Y-165532581D01*
X145165556Y-165481000D01*
X145165555Y-165481000D01*
X145078000Y-165463584D01*
X144990445Y-165481000D01*
X138517555Y-165481000D01*
X138430000Y-165463584D01*
X138342445Y-165481000D01*
X138342444Y-165481000D01*
X138083130Y-165532581D01*
X137789067Y-165729067D01*
X137739471Y-165803294D01*
X136987764Y-166555001D01*
X136860050Y-166555001D01*
X137176136Y-166081945D01*
X137303031Y-165444000D01*
X137176136Y-164806055D01*
X136814769Y-164265231D01*
X136273945Y-163903864D01*
X135797031Y-163809000D01*
X135474969Y-163809000D01*
X134998055Y-163903864D01*
X134457231Y-164265231D01*
X134095864Y-164806055D01*
X133968969Y-165444000D01*
X134095864Y-166081945D01*
X134457231Y-166622769D01*
X134937987Y-166944000D01*
X134457231Y-167265231D01*
X134095864Y-167806055D01*
X133968969Y-168444000D01*
X134039372Y-168797939D01*
X133042484Y-167801051D01*
X133108157Y-167702765D01*
X133157440Y-167455000D01*
X133157440Y-166555000D01*
X133108157Y-166307235D01*
X132967809Y-166097191D01*
X132757765Y-165956843D01*
X132510000Y-165907560D01*
X131310000Y-165907560D01*
X131062235Y-165956843D01*
X130852191Y-166097191D01*
X130810000Y-166160334D01*
X130767809Y-166097191D01*
X130557765Y-165956843D01*
X130310000Y-165907560D01*
X129110000Y-165907560D01*
X128862235Y-165956843D01*
X128652191Y-166097191D01*
X128597193Y-166179500D01*
X127602440Y-166179500D01*
X127602440Y-166155000D01*
X127553157Y-165907235D01*
X127412809Y-165697191D01*
X127202765Y-165556843D01*
X126955000Y-165507560D01*
X126130500Y-165507560D01*
X126130500Y-163945303D01*
X126146672Y-163864000D01*
X126082604Y-163541905D01*
X125946206Y-163337773D01*
X125900152Y-163268848D01*
X125831226Y-163222793D01*
X125277209Y-162668777D01*
X125231152Y-162599848D01*
X124958094Y-162417396D01*
X124775548Y-162381086D01*
X124712809Y-162287191D01*
X124502765Y-162146843D01*
X124255000Y-162097560D01*
X123055000Y-162097560D01*
X122807235Y-162146843D01*
X122597191Y-162287191D01*
X122555000Y-162350334D01*
X122512809Y-162287191D01*
X122302765Y-162146843D01*
X122280500Y-162142414D01*
X122280500Y-159893858D01*
X122312569Y-159971280D01*
X122603720Y-160262431D01*
X122956196Y-160408431D01*
X123769470Y-161221706D01*
X123819067Y-161295933D01*
X124113130Y-161492419D01*
X124372444Y-161544000D01*
X124372448Y-161544000D01*
X124459999Y-161561415D01*
X124547550Y-161544000D01*
X136791765Y-161544000D01*
X139404470Y-164156706D01*
X139454067Y-164230933D01*
X139748130Y-164427419D01*
X140007444Y-164479000D01*
X140007445Y-164479000D01*
X140095000Y-164496416D01*
X140182555Y-164479000D01*
X145090209Y-164479000D01*
X145111843Y-164587765D01*
X145252191Y-164797809D01*
X145462235Y-164938157D01*
X145710000Y-164987440D01*
X147710000Y-164987440D01*
X147957765Y-164938157D01*
X148021001Y-164895904D01*
X148021000Y-165424395D01*
X147852191Y-165537191D01*
X147711843Y-165747235D01*
X147662560Y-165995000D01*
X147662560Y-166172114D01*
X147623198Y-166370000D01*
X147662560Y-166567886D01*
X147662560Y-166745000D01*
X147711843Y-166992765D01*
X147852191Y-167202809D01*
X148062235Y-167343157D01*
X148310000Y-167392440D01*
X148487114Y-167392440D01*
X148582432Y-167411400D01*
X149012568Y-167411400D01*
X149107886Y-167392440D01*
X149510000Y-167392440D01*
X149757765Y-167343157D01*
X149849102Y-167282127D01*
X149850302Y-167283327D01*
X150083691Y-167380000D01*
X150524250Y-167380000D01*
X150683000Y-167221250D01*
X150683000Y-166497000D01*
X150937000Y-166497000D01*
X150937000Y-167221250D01*
X151095750Y-167380000D01*
X151536309Y-167380000D01*
X151769698Y-167283327D01*
X151948327Y-167104699D01*
X152045000Y-166871310D01*
X152045000Y-166655750D01*
X151886250Y-166497000D01*
X150937000Y-166497000D01*
X150683000Y-166497000D01*
X150663000Y-166497000D01*
X150663000Y-166243000D01*
X150683000Y-166243000D01*
X150683000Y-165518750D01*
X150937000Y-165518750D01*
X150937000Y-166243000D01*
X151886250Y-166243000D01*
X152045000Y-166084250D01*
X152045000Y-165868690D01*
X151948327Y-165635301D01*
X151769698Y-165456673D01*
X151536309Y-165360000D01*
X151095750Y-165360000D01*
X150937000Y-165518750D01*
X150683000Y-165518750D01*
X150524250Y-165360000D01*
X150083691Y-165360000D01*
X149850302Y-165456673D01*
X149849102Y-165457873D01*
X149799000Y-165424396D01*
X149799000Y-164712518D01*
X149811280Y-164707431D01*
X150102431Y-164416280D01*
X150260000Y-164035874D01*
X150260000Y-163624126D01*
X150102431Y-163243720D01*
X149811280Y-162952569D01*
X149430874Y-162795000D01*
X149395355Y-162795000D01*
X149331870Y-162752581D01*
X149072556Y-162701000D01*
X149072555Y-162701000D01*
X148985000Y-162683584D01*
X148897445Y-162701000D01*
X148329791Y-162701000D01*
X148308157Y-162592235D01*
X148206436Y-162440000D01*
X148279001Y-162331400D01*
X148420236Y-162331400D01*
X148522800Y-162351801D01*
X148625364Y-162331400D01*
X148625368Y-162331400D01*
X148929134Y-162270977D01*
X149273607Y-162040807D01*
X149331708Y-161953853D01*
X149573854Y-161711707D01*
X149660807Y-161653607D01*
X149831935Y-161397497D01*
X150388294Y-161953856D01*
X150446393Y-162040807D01*
X150533344Y-162098906D01*
X150533345Y-162098907D01*
X150673507Y-162192560D01*
X150790866Y-162270977D01*
X151094632Y-162331400D01*
X151094636Y-162331400D01*
X151197199Y-162351801D01*
X151299762Y-162331400D01*
X151362560Y-162331400D01*
X151362560Y-163190000D01*
X151411843Y-163437765D01*
X151552191Y-163647809D01*
X151762235Y-163788157D01*
X152010000Y-163837440D01*
X154010000Y-163837440D01*
X154257765Y-163788157D01*
X154467809Y-163647809D01*
X154608157Y-163437765D01*
X154657440Y-163190000D01*
X154657440Y-159390000D01*
X154608157Y-159142235D01*
X154467809Y-158932191D01*
X154257765Y-158791843D01*
X154010000Y-158742560D01*
X152010000Y-158742560D01*
X151762235Y-158791843D01*
X151552191Y-158932191D01*
X151411843Y-159142235D01*
X151362560Y-159390000D01*
X151362560Y-159982598D01*
X149951400Y-158571439D01*
X149951400Y-157165203D01*
X150083691Y-157220000D01*
X150524250Y-157220000D01*
X150683000Y-157061250D01*
X150683000Y-156337000D01*
X150937000Y-156337000D01*
X150937000Y-157061250D01*
X151095750Y-157220000D01*
X151536309Y-157220000D01*
X151769698Y-157123327D01*
X151948327Y-156944699D01*
X152045000Y-156711310D01*
X152045000Y-156495750D01*
X151886250Y-156337000D01*
X150937000Y-156337000D01*
X150683000Y-156337000D01*
X150663000Y-156337000D01*
X150663000Y-156083000D01*
X150683000Y-156083000D01*
X150683000Y-155358750D01*
X150937000Y-155358750D01*
X150937000Y-156083000D01*
X151886250Y-156083000D01*
X152045000Y-155924250D01*
X152045000Y-155708690D01*
X151948327Y-155475301D01*
X151769698Y-155296673D01*
X151536309Y-155200000D01*
X151095750Y-155200000D01*
X150937000Y-155358750D01*
X150683000Y-155358750D01*
X150524250Y-155200000D01*
X150083691Y-155200000D01*
X149850302Y-155296673D01*
X149849102Y-155297873D01*
X149757765Y-155236843D01*
X149510000Y-155187560D01*
X149107886Y-155187560D01*
X149012568Y-155168600D01*
X148910000Y-155148198D01*
X148807433Y-155168600D01*
X145312432Y-155168600D01*
X145280257Y-155175000D01*
X145209126Y-155175000D01*
X145143409Y-155202221D01*
X145008666Y-155229023D01*
X144894438Y-155305348D01*
X144828720Y-155332569D01*
X144778421Y-155382868D01*
X144664193Y-155459193D01*
X144587868Y-155573421D01*
X144537569Y-155623720D01*
X144510348Y-155689438D01*
X144434023Y-155803666D01*
X144407221Y-155938409D01*
X144380000Y-156004126D01*
X144380000Y-156075257D01*
X144353198Y-156210000D01*
X144380000Y-156344743D01*
X144380000Y-156415874D01*
X144407221Y-156481591D01*
X144434023Y-156616334D01*
X144510348Y-156730562D01*
X144537569Y-156796280D01*
X144587868Y-156846579D01*
X144664193Y-156960807D01*
X144778421Y-157037132D01*
X144828720Y-157087431D01*
X144894438Y-157114652D01*
X145008666Y-157190977D01*
X145143409Y-157217779D01*
X145209126Y-157245000D01*
X145280257Y-157245000D01*
X145312432Y-157251400D01*
X147868601Y-157251400D01*
X147868600Y-157618376D01*
X147836309Y-157605000D01*
X146995750Y-157605000D01*
X146837000Y-157763750D01*
X146837000Y-158863000D01*
X146857000Y-158863000D01*
X146857000Y-159117000D01*
X146837000Y-159117000D01*
X146837000Y-159137000D01*
X146583000Y-159137000D01*
X146583000Y-159117000D01*
X145233750Y-159117000D01*
X145075000Y-159275750D01*
X145075000Y-159866310D01*
X145086788Y-159894769D01*
X144926094Y-159787396D01*
X144685303Y-159739500D01*
X144685301Y-159739500D01*
X144604000Y-159723328D01*
X144522699Y-159739500D01*
X144171216Y-159739500D01*
X144082809Y-159607191D01*
X143872765Y-159466843D01*
X143625000Y-159417560D01*
X142125000Y-159417560D01*
X141877235Y-159466843D01*
X141667191Y-159607191D01*
X141526843Y-159817235D01*
X141477560Y-160065000D01*
X141477560Y-161215000D01*
X141513574Y-161333945D01*
X141477560Y-161515000D01*
X141477560Y-162515000D01*
X141514557Y-162701000D01*
X140463236Y-162701000D01*
X137850531Y-160088296D01*
X137800933Y-160014067D01*
X137506870Y-159817581D01*
X137247556Y-159766000D01*
X137247555Y-159766000D01*
X137160000Y-159748584D01*
X137072445Y-159766000D01*
X124828236Y-159766000D01*
X124213431Y-159151196D01*
X124067431Y-158798720D01*
X123776280Y-158507569D01*
X123395874Y-158350000D01*
X122984126Y-158350000D01*
X122603720Y-158507569D01*
X122312569Y-158798720D01*
X122280500Y-158876142D01*
X122280500Y-157886932D01*
X122574124Y-157593308D01*
X122674778Y-157635000D01*
X123325222Y-157635000D01*
X123926153Y-157386086D01*
X124159707Y-157152532D01*
X126527073Y-157152532D01*
X126625736Y-157419387D01*
X127235461Y-157645908D01*
X127287024Y-157644000D01*
X133968969Y-157644000D01*
X134095864Y-158281945D01*
X134457231Y-158822769D01*
X134998055Y-159184136D01*
X135474969Y-159279000D01*
X135797031Y-159279000D01*
X136273945Y-159184136D01*
X136814769Y-158822769D01*
X137176136Y-158281945D01*
X137209603Y-158113690D01*
X145075000Y-158113690D01*
X145075000Y-158704250D01*
X145233750Y-158863000D01*
X146583000Y-158863000D01*
X146583000Y-157763750D01*
X146424250Y-157605000D01*
X145583691Y-157605000D01*
X145350302Y-157701673D01*
X145171673Y-157880301D01*
X145075000Y-158113690D01*
X137209603Y-158113690D01*
X137303031Y-157644000D01*
X137176136Y-157006055D01*
X136814769Y-156465231D01*
X136284404Y-156110853D01*
X136595994Y-155967505D01*
X137029402Y-155499385D01*
X137226124Y-155024434D01*
X137106777Y-154771000D01*
X135763000Y-154771000D01*
X135763000Y-154791000D01*
X135509000Y-154791000D01*
X135509000Y-154771000D01*
X134165223Y-154771000D01*
X134045876Y-155024434D01*
X134242598Y-155499385D01*
X134676006Y-155967505D01*
X134987596Y-156110853D01*
X134457231Y-156465231D01*
X134095864Y-157006055D01*
X133968969Y-157644000D01*
X127287024Y-157644000D01*
X127885460Y-157621856D01*
X128374264Y-157419387D01*
X128472927Y-157152532D01*
X127500000Y-156179605D01*
X126527073Y-157152532D01*
X124159707Y-157152532D01*
X124386086Y-156926153D01*
X124635000Y-156325222D01*
X124635000Y-155735461D01*
X125854092Y-155735461D01*
X125878144Y-156385460D01*
X126080613Y-156874264D01*
X126347468Y-156972927D01*
X127320395Y-156000000D01*
X127679605Y-156000000D01*
X128652532Y-156972927D01*
X128919387Y-156874264D01*
X129145908Y-156264539D01*
X129121856Y-155614540D01*
X128919387Y-155125736D01*
X128652532Y-155027073D01*
X127679605Y-156000000D01*
X127320395Y-156000000D01*
X126347468Y-155027073D01*
X126080613Y-155125736D01*
X125854092Y-155735461D01*
X124635000Y-155735461D01*
X124635000Y-155674778D01*
X124386086Y-155073847D01*
X124159707Y-154847468D01*
X126527073Y-154847468D01*
X127500000Y-155820395D01*
X128472927Y-154847468D01*
X128374264Y-154580613D01*
X127764539Y-154354092D01*
X127114540Y-154378144D01*
X126625736Y-154580613D01*
X126527073Y-154847468D01*
X124159707Y-154847468D01*
X123926153Y-154613914D01*
X123889000Y-154598525D01*
X123889000Y-154263566D01*
X134045876Y-154263566D01*
X134165223Y-154517000D01*
X135509000Y-154517000D01*
X135509000Y-153172681D01*
X135763000Y-153172681D01*
X135763000Y-154517000D01*
X137106777Y-154517000D01*
X137226124Y-154263566D01*
X137029402Y-153788615D01*
X136595994Y-153320495D01*
X136016435Y-153053867D01*
X135763000Y-153172681D01*
X135509000Y-153172681D01*
X135255565Y-153053867D01*
X134676006Y-153320495D01*
X134242598Y-153788615D01*
X134045876Y-154263566D01*
X123889000Y-154263566D01*
X123889000Y-150901475D01*
X123926153Y-150886086D01*
X124159707Y-150652532D01*
X126527073Y-150652532D01*
X126625736Y-150919387D01*
X127235461Y-151145908D01*
X127885460Y-151121856D01*
X128374264Y-150919387D01*
X128472927Y-150652532D01*
X127500000Y-149679605D01*
X126527073Y-150652532D01*
X124159707Y-150652532D01*
X124386086Y-150426153D01*
X124635000Y-149825222D01*
X124635000Y-149235461D01*
X125854092Y-149235461D01*
X125878144Y-149885460D01*
X126080613Y-150374264D01*
X126347468Y-150472927D01*
X127320395Y-149500000D01*
X127679605Y-149500000D01*
X128652532Y-150472927D01*
X128919387Y-150374264D01*
X129145908Y-149764539D01*
X129121856Y-149114540D01*
X128919387Y-148625736D01*
X128652532Y-148527073D01*
X127679605Y-149500000D01*
X127320395Y-149500000D01*
X126347468Y-148527073D01*
X126080613Y-148625736D01*
X125854092Y-149235461D01*
X124635000Y-149235461D01*
X124635000Y-149174778D01*
X124593308Y-149074125D01*
X124641205Y-149026228D01*
X124641207Y-149026225D01*
X125319964Y-148347468D01*
X126527073Y-148347468D01*
X127500000Y-149320395D01*
X128472927Y-148347468D01*
X128374264Y-148080613D01*
X127764539Y-147854092D01*
X127114540Y-147878144D01*
X126625736Y-148080613D01*
X126527073Y-148347468D01*
X125319964Y-148347468D01*
X125621226Y-148046207D01*
X125690152Y-148000152D01*
X125872604Y-147727094D01*
X125920500Y-147486303D01*
X125920500Y-147486299D01*
X125936671Y-147405001D01*
X125920500Y-147323703D01*
X125920500Y-137152532D01*
X126527073Y-137152532D01*
X126625736Y-137419387D01*
X127235461Y-137645908D01*
X127885460Y-137621856D01*
X128374264Y-137419387D01*
X128472927Y-137152532D01*
X127500000Y-136179605D01*
X126527073Y-137152532D01*
X125920500Y-137152532D01*
X125920500Y-136487717D01*
X126080613Y-136874264D01*
X126347468Y-136972927D01*
X127320395Y-136000000D01*
X127679605Y-136000000D01*
X128652532Y-136972927D01*
X128919387Y-136874264D01*
X129145908Y-136264539D01*
X129121856Y-135614540D01*
X128919387Y-135125736D01*
X128652532Y-135027073D01*
X127679605Y-136000000D01*
X127320395Y-136000000D01*
X126347468Y-135027073D01*
X126080613Y-135125736D01*
X125920500Y-135556711D01*
X125920500Y-134847468D01*
X126527073Y-134847468D01*
X127500000Y-135820395D01*
X128472927Y-134847468D01*
X128374264Y-134580613D01*
X127764539Y-134354092D01*
X127114540Y-134378144D01*
X126625736Y-134580613D01*
X126527073Y-134847468D01*
X125920500Y-134847468D01*
X125920500Y-130652532D01*
X126527073Y-130652532D01*
X126625736Y-130919387D01*
X127235461Y-131145908D01*
X127885460Y-131121856D01*
X128374264Y-130919387D01*
X128472927Y-130652532D01*
X127500000Y-129679605D01*
X126527073Y-130652532D01*
X125920500Y-130652532D01*
X125920500Y-129987717D01*
X126080613Y-130374264D01*
X126347468Y-130472927D01*
X127320395Y-129500000D01*
X127679605Y-129500000D01*
X128652532Y-130472927D01*
X128919387Y-130374264D01*
X129145908Y-129764539D01*
X129121856Y-129114540D01*
X128919387Y-128625736D01*
X128652532Y-128527073D01*
X127679605Y-129500000D01*
X127320395Y-129500000D01*
X127306253Y-129485858D01*
X127485858Y-129306253D01*
X127500000Y-129320395D01*
X128472927Y-128347468D01*
X128374264Y-128080613D01*
X127764539Y-127854092D01*
X127296003Y-127871429D01*
X130701226Y-124466207D01*
X130770152Y-124420152D01*
X130952604Y-124147094D01*
X131000500Y-123906303D01*
X131000500Y-123906302D01*
X131016672Y-123825000D01*
X131000500Y-123743699D01*
X131000500Y-123000000D01*
X132352560Y-123000000D01*
X132352560Y-125000000D01*
X132401843Y-125247765D01*
X132542191Y-125457809D01*
X132752235Y-125598157D01*
X133000000Y-125647440D01*
X135000000Y-125647440D01*
X135247765Y-125598157D01*
X135457809Y-125457809D01*
X135598157Y-125247765D01*
X135647440Y-125000000D01*
X135647440Y-123000000D01*
X135598157Y-122752235D01*
X135457809Y-122542191D01*
X135247765Y-122401843D01*
X135000000Y-122352560D01*
X133000000Y-122352560D01*
X132752235Y-122401843D01*
X132542191Y-122542191D01*
X132401843Y-122752235D01*
X132352560Y-123000000D01*
X131000500Y-123000000D01*
X131000500Y-119496097D01*
X131085565Y-119694788D01*
X131767734Y-119954707D01*
X132497443Y-119933786D01*
X133074435Y-119694788D01*
X133197570Y-119407175D01*
X132080000Y-118289605D01*
X132065858Y-118303748D01*
X131886253Y-118124143D01*
X131900395Y-118110000D01*
X132259605Y-118110000D01*
X133377175Y-119227570D01*
X133484199Y-119181750D01*
X146351000Y-119181750D01*
X146351000Y-119972309D01*
X146447673Y-120205698D01*
X146626301Y-120384327D01*
X146859690Y-120481000D01*
X147100250Y-120481000D01*
X147259000Y-120322250D01*
X147259000Y-119023000D01*
X146509750Y-119023000D01*
X146351000Y-119181750D01*
X133484199Y-119181750D01*
X133664788Y-119104435D01*
X133924707Y-118422266D01*
X133907431Y-117819691D01*
X146351000Y-117819691D01*
X146351000Y-118610250D01*
X146509750Y-118769000D01*
X147259000Y-118769000D01*
X147259000Y-117469750D01*
X147100250Y-117311000D01*
X146859690Y-117311000D01*
X146626301Y-117407673D01*
X146447673Y-117586302D01*
X146351000Y-117819691D01*
X133907431Y-117819691D01*
X133903786Y-117692557D01*
X133664788Y-117115565D01*
X133377175Y-116992430D01*
X132259605Y-118110000D01*
X131900395Y-118110000D01*
X131886253Y-118095858D01*
X132065858Y-117916253D01*
X132080000Y-117930395D01*
X133197570Y-116812825D01*
X133074435Y-116525212D01*
X132392266Y-116265293D01*
X131662557Y-116286214D01*
X131085565Y-116525212D01*
X131000500Y-116723903D01*
X131000500Y-115837969D01*
X131016671Y-115756671D01*
X131000500Y-115675373D01*
X131000500Y-115675369D01*
X130952604Y-115434578D01*
X130770152Y-115161520D01*
X130701226Y-115115465D01*
X129819500Y-114233740D01*
X129819500Y-106062932D01*
X129928376Y-105954056D01*
X130175000Y-106003113D01*
X130734909Y-105891740D01*
X131209577Y-105574577D01*
X131445000Y-105222241D01*
X131673601Y-105564365D01*
X131673601Y-106257432D01*
X131653199Y-106360000D01*
X131691199Y-106551040D01*
X131587639Y-106654600D01*
X131469432Y-106654600D01*
X131437257Y-106661000D01*
X131366126Y-106661000D01*
X131300409Y-106688221D01*
X131165666Y-106715023D01*
X131051438Y-106791348D01*
X130985720Y-106818569D01*
X130935421Y-106868868D01*
X130821193Y-106945193D01*
X130744868Y-107059421D01*
X130694569Y-107109720D01*
X130667348Y-107175438D01*
X130591023Y-107289666D01*
X130564221Y-107424409D01*
X130537000Y-107490126D01*
X130537000Y-107561257D01*
X130510198Y-107696000D01*
X130537000Y-107830743D01*
X130537000Y-107901874D01*
X130564221Y-107967591D01*
X130591023Y-108102334D01*
X130667348Y-108216562D01*
X130694569Y-108282280D01*
X130744868Y-108332579D01*
X130821193Y-108446807D01*
X130935421Y-108523132D01*
X130985720Y-108573431D01*
X131051438Y-108600652D01*
X131165666Y-108676977D01*
X131300409Y-108703779D01*
X131366126Y-108731000D01*
X131437257Y-108731000D01*
X131469432Y-108737400D01*
X131916436Y-108737400D01*
X132019000Y-108757801D01*
X132121564Y-108737400D01*
X132121568Y-108737400D01*
X132425334Y-108676977D01*
X132769807Y-108446807D01*
X132827908Y-108359854D01*
X133485322Y-107702440D01*
X133635000Y-107702440D01*
X133882765Y-107653157D01*
X133974102Y-107592127D01*
X133975302Y-107593327D01*
X134208691Y-107690000D01*
X134649250Y-107690000D01*
X134808000Y-107531250D01*
X134808000Y-106807000D01*
X135062000Y-106807000D01*
X135062000Y-107531250D01*
X135220750Y-107690000D01*
X135661309Y-107690000D01*
X135894698Y-107593327D01*
X136073327Y-107414699D01*
X136170000Y-107181310D01*
X136170000Y-106965750D01*
X136011250Y-106807000D01*
X135062000Y-106807000D01*
X134808000Y-106807000D01*
X134788000Y-106807000D01*
X134788000Y-106553000D01*
X134808000Y-106553000D01*
X134808000Y-106533000D01*
X135062000Y-106533000D01*
X135062000Y-106553000D01*
X136011250Y-106553000D01*
X136170000Y-106394250D01*
X136170000Y-106178690D01*
X136073327Y-105945301D01*
X135916620Y-105788594D01*
X136179896Y-105644500D01*
X136522501Y-105218501D01*
X136760424Y-105574577D01*
G36*
X123473775Y-127858793D02*
X123473772Y-127858795D01*
X123425875Y-127906692D01*
X123325222Y-127865000D01*
X122674778Y-127865000D01*
X122073847Y-128113914D01*
X121613914Y-128573847D01*
X121365000Y-129174778D01*
X121365000Y-129825222D01*
X121613914Y-130426153D01*
X122073847Y-130886086D01*
X122111000Y-130901475D01*
X122111001Y-134598524D01*
X122073847Y-134613914D01*
X121613914Y-135073847D01*
X121365000Y-135674778D01*
X121365000Y-136325222D01*
X121613914Y-136926153D01*
X122073847Y-137386086D01*
X122674778Y-137635000D01*
X123325222Y-137635000D01*
X123926153Y-137386086D01*
X124269500Y-137042739D01*
X124269501Y-147063066D01*
X123473775Y-147858793D01*
X123473772Y-147858795D01*
X123425875Y-147906692D01*
X123325222Y-147865000D01*
X122674778Y-147865000D01*
X122073847Y-148113914D01*
X121613914Y-148573847D01*
X121365000Y-149174778D01*
X121365000Y-149825222D01*
X121613914Y-150426153D01*
X122073847Y-150886086D01*
X122111001Y-150901476D01*
X122111000Y-154598525D01*
X122073847Y-154613914D01*
X121613914Y-155073847D01*
X121365000Y-155674778D01*
X121365000Y-156325222D01*
X121406692Y-156425876D01*
X120928775Y-156903793D01*
X120859849Y-156949848D01*
X120813794Y-157018774D01*
X120677397Y-157222906D01*
X120613328Y-157545000D01*
X120629501Y-157626306D01*
X120629500Y-162142414D01*
X120607235Y-162146843D01*
X120397191Y-162287191D01*
X120256843Y-162497235D01*
X120207560Y-162745000D01*
X120207560Y-163645000D01*
X120256843Y-163892765D01*
X120342193Y-164020500D01*
X120102933Y-164020500D01*
X119570500Y-163488068D01*
X119570500Y-149826303D01*
X119586672Y-149745000D01*
X119522604Y-149422905D01*
X119386206Y-149218773D01*
X119340152Y-149149848D01*
X119271226Y-149103793D01*
X117319965Y-147152532D01*
X118527073Y-147152532D01*
X118625736Y-147419387D01*
X119235461Y-147645908D01*
X119885460Y-147621856D01*
X120374264Y-147419387D01*
X120472927Y-147152532D01*
X119500000Y-146179605D01*
X118527073Y-147152532D01*
X117319965Y-147152532D01*
X116593308Y-146425876D01*
X116635000Y-146325222D01*
X116635000Y-145735461D01*
X117854092Y-145735461D01*
X117878144Y-146385460D01*
X118080613Y-146874264D01*
X118347468Y-146972927D01*
X119320395Y-146000000D01*
X119679605Y-146000000D01*
X120652532Y-146972927D01*
X120919387Y-146874264D01*
X121145908Y-146264539D01*
X121121856Y-145614540D01*
X120919387Y-145125736D01*
X120652532Y-145027073D01*
X119679605Y-146000000D01*
X119320395Y-146000000D01*
X118347468Y-145027073D01*
X118080613Y-145125736D01*
X117854092Y-145735461D01*
X116635000Y-145735461D01*
X116635000Y-145674778D01*
X116386086Y-145073847D01*
X116159707Y-144847468D01*
X118527073Y-144847468D01*
X119500000Y-145820395D01*
X120472927Y-144847468D01*
X120374264Y-144580613D01*
X119764539Y-144354092D01*
X119114540Y-144378144D01*
X118625736Y-144580613D01*
X118527073Y-144847468D01*
X116159707Y-144847468D01*
X115926153Y-144613914D01*
X115889000Y-144598525D01*
X115889000Y-140901475D01*
X115926153Y-140886086D01*
X116159707Y-140652532D01*
X118527073Y-140652532D01*
X118625736Y-140919387D01*
X119235461Y-141145908D01*
X119885460Y-141121856D01*
X120374264Y-140919387D01*
X120472927Y-140652532D01*
X119500000Y-139679605D01*
X118527073Y-140652532D01*
X116159707Y-140652532D01*
X116386086Y-140426153D01*
X116635000Y-139825222D01*
X116635000Y-139235461D01*
X117854092Y-139235461D01*
X117878144Y-139885460D01*
X118080613Y-140374264D01*
X118347468Y-140472927D01*
X119320395Y-139500000D01*
X119679605Y-139500000D01*
X120652532Y-140472927D01*
X120919387Y-140374264D01*
X121145908Y-139764539D01*
X121121856Y-139114540D01*
X120919387Y-138625736D01*
X120652532Y-138527073D01*
X119679605Y-139500000D01*
X119320395Y-139500000D01*
X118347468Y-138527073D01*
X118080613Y-138625736D01*
X117854092Y-139235461D01*
X116635000Y-139235461D01*
X116635000Y-139174778D01*
X116386086Y-138573847D01*
X116159707Y-138347468D01*
X118527073Y-138347468D01*
X119500000Y-139320395D01*
X120472927Y-138347468D01*
X120374264Y-138080613D01*
X119764539Y-137854092D01*
X119114540Y-137878144D01*
X118625736Y-138080613D01*
X118527073Y-138347468D01*
X116159707Y-138347468D01*
X115926153Y-138113914D01*
X115825500Y-138072222D01*
X115825500Y-131086932D01*
X119086933Y-127825500D01*
X123108699Y-127825500D01*
X123190000Y-127841672D01*
X123271301Y-127825500D01*
X123271303Y-127825500D01*
X123512094Y-127777604D01*
X123641290Y-127691277D01*
X123473775Y-127858793D01*
X123473775Y-127858793D01*
G37*
X123473775Y-127858793D02*
X123473772Y-127858795D01*
X123425875Y-127906692D01*
X123325222Y-127865000D01*
X122674778Y-127865000D01*
X122073847Y-128113914D01*
X121613914Y-128573847D01*
X121365000Y-129174778D01*
X121365000Y-129825222D01*
X121613914Y-130426153D01*
X122073847Y-130886086D01*
X122111000Y-130901475D01*
X122111001Y-134598524D01*
X122073847Y-134613914D01*
X121613914Y-135073847D01*
X121365000Y-135674778D01*
X121365000Y-136325222D01*
X121613914Y-136926153D01*
X122073847Y-137386086D01*
X122674778Y-137635000D01*
X123325222Y-137635000D01*
X123926153Y-137386086D01*
X124269500Y-137042739D01*
X124269501Y-147063066D01*
X123473775Y-147858793D01*
X123473772Y-147858795D01*
X123425875Y-147906692D01*
X123325222Y-147865000D01*
X122674778Y-147865000D01*
X122073847Y-148113914D01*
X121613914Y-148573847D01*
X121365000Y-149174778D01*
X121365000Y-149825222D01*
X121613914Y-150426153D01*
X122073847Y-150886086D01*
X122111001Y-150901476D01*
X122111000Y-154598525D01*
X122073847Y-154613914D01*
X121613914Y-155073847D01*
X121365000Y-155674778D01*
X121365000Y-156325222D01*
X121406692Y-156425876D01*
X120928775Y-156903793D01*
X120859849Y-156949848D01*
X120813794Y-157018774D01*
X120677397Y-157222906D01*
X120613328Y-157545000D01*
X120629501Y-157626306D01*
X120629500Y-162142414D01*
X120607235Y-162146843D01*
X120397191Y-162287191D01*
X120256843Y-162497235D01*
X120207560Y-162745000D01*
X120207560Y-163645000D01*
X120256843Y-163892765D01*
X120342193Y-164020500D01*
X120102933Y-164020500D01*
X119570500Y-163488068D01*
X119570500Y-149826303D01*
X119586672Y-149745000D01*
X119522604Y-149422905D01*
X119386206Y-149218773D01*
X119340152Y-149149848D01*
X119271226Y-149103793D01*
X117319965Y-147152532D01*
X118527073Y-147152532D01*
X118625736Y-147419387D01*
X119235461Y-147645908D01*
X119885460Y-147621856D01*
X120374264Y-147419387D01*
X120472927Y-147152532D01*
X119500000Y-146179605D01*
X118527073Y-147152532D01*
X117319965Y-147152532D01*
X116593308Y-146425876D01*
X116635000Y-146325222D01*
X116635000Y-145735461D01*
X117854092Y-145735461D01*
X117878144Y-146385460D01*
X118080613Y-146874264D01*
X118347468Y-146972927D01*
X119320395Y-146000000D01*
X119679605Y-146000000D01*
X120652532Y-146972927D01*
X120919387Y-146874264D01*
X121145908Y-146264539D01*
X121121856Y-145614540D01*
X120919387Y-145125736D01*
X120652532Y-145027073D01*
X119679605Y-146000000D01*
X119320395Y-146000000D01*
X118347468Y-145027073D01*
X118080613Y-145125736D01*
X117854092Y-145735461D01*
X116635000Y-145735461D01*
X116635000Y-145674778D01*
X116386086Y-145073847D01*
X116159707Y-144847468D01*
X118527073Y-144847468D01*
X119500000Y-145820395D01*
X120472927Y-144847468D01*
X120374264Y-144580613D01*
X119764539Y-144354092D01*
X119114540Y-144378144D01*
X118625736Y-144580613D01*
X118527073Y-144847468D01*
X116159707Y-144847468D01*
X115926153Y-144613914D01*
X115889000Y-144598525D01*
X115889000Y-140901475D01*
X115926153Y-140886086D01*
X116159707Y-140652532D01*
X118527073Y-140652532D01*
X118625736Y-140919387D01*
X119235461Y-141145908D01*
X119885460Y-141121856D01*
X120374264Y-140919387D01*
X120472927Y-140652532D01*
X119500000Y-139679605D01*
X118527073Y-140652532D01*
X116159707Y-140652532D01*
X116386086Y-140426153D01*
X116635000Y-139825222D01*
X116635000Y-139235461D01*
X117854092Y-139235461D01*
X117878144Y-139885460D01*
X118080613Y-140374264D01*
X118347468Y-140472927D01*
X119320395Y-139500000D01*
X119679605Y-139500000D01*
X120652532Y-140472927D01*
X120919387Y-140374264D01*
X121145908Y-139764539D01*
X121121856Y-139114540D01*
X120919387Y-138625736D01*
X120652532Y-138527073D01*
X119679605Y-139500000D01*
X119320395Y-139500000D01*
X118347468Y-138527073D01*
X118080613Y-138625736D01*
X117854092Y-139235461D01*
X116635000Y-139235461D01*
X116635000Y-139174778D01*
X116386086Y-138573847D01*
X116159707Y-138347468D01*
X118527073Y-138347468D01*
X119500000Y-139320395D01*
X120472927Y-138347468D01*
X120374264Y-138080613D01*
X119764539Y-137854092D01*
X119114540Y-137878144D01*
X118625736Y-138080613D01*
X118527073Y-138347468D01*
X116159707Y-138347468D01*
X115926153Y-138113914D01*
X115825500Y-138072222D01*
X115825500Y-131086932D01*
X119086933Y-127825500D01*
X123108699Y-127825500D01*
X123190000Y-127841672D01*
X123271301Y-127825500D01*
X123271303Y-127825500D01*
X123512094Y-127777604D01*
X123641290Y-127691277D01*
X123473775Y-127858793D01*
G36*
X153425908Y-102870000D02*
X153541161Y-103449418D01*
X153869375Y-103940625D01*
X154360582Y-104268839D01*
X154793744Y-104355000D01*
X155086256Y-104355000D01*
X155519418Y-104268839D01*
X156010625Y-103940625D01*
X156211353Y-103640214D01*
X156598642Y-104065183D01*
X157123108Y-104311486D01*
X157353000Y-104190819D01*
X157353000Y-102997000D01*
X157333000Y-102997000D01*
X157333000Y-102743000D01*
X157353000Y-102743000D01*
X157353000Y-102723000D01*
X157607000Y-102723000D01*
X157607000Y-102743000D01*
X157627000Y-102743000D01*
X157627000Y-102997000D01*
X157607000Y-102997000D01*
X157607000Y-104190819D01*
X157836892Y-104311486D01*
X158361358Y-104065183D01*
X158559501Y-103847762D01*
X158559501Y-105703066D01*
X154807568Y-109455000D01*
X154734126Y-109455000D01*
X154716001Y-109462508D01*
X154716001Y-107616798D01*
X154732172Y-107535500D01*
X154716001Y-107454202D01*
X154716001Y-107454198D01*
X154668105Y-107213407D01*
X154485653Y-106940349D01*
X154416727Y-106894294D01*
X153676209Y-106153777D01*
X153630152Y-106084848D01*
X153357094Y-105902396D01*
X153116303Y-105854500D01*
X153116301Y-105854500D01*
X153035000Y-105838328D01*
X152953699Y-105854500D01*
X151110643Y-105854500D01*
X151529577Y-105574577D01*
X151846740Y-105099909D01*
X151930000Y-104681332D01*
X151930000Y-103598667D01*
X151846740Y-103180091D01*
X151529576Y-102705423D01*
X151438413Y-102644510D01*
X153470761Y-102644510D01*
X153425908Y-102870000D01*
X153425908Y-102870000D01*
G37*
X153425908Y-102870000D02*
X153541161Y-103449418D01*
X153869375Y-103940625D01*
X154360582Y-104268839D01*
X154793744Y-104355000D01*
X155086256Y-104355000D01*
X155519418Y-104268839D01*
X156010625Y-103940625D01*
X156211353Y-103640214D01*
X156598642Y-104065183D01*
X157123108Y-104311486D01*
X157353000Y-104190819D01*
X157353000Y-102997000D01*
X157333000Y-102997000D01*
X157333000Y-102743000D01*
X157353000Y-102743000D01*
X157353000Y-102723000D01*
X157607000Y-102723000D01*
X157607000Y-102743000D01*
X157627000Y-102743000D01*
X157627000Y-102997000D01*
X157607000Y-102997000D01*
X157607000Y-104190819D01*
X157836892Y-104311486D01*
X158361358Y-104065183D01*
X158559501Y-103847762D01*
X158559501Y-105703066D01*
X154807568Y-109455000D01*
X154734126Y-109455000D01*
X154716001Y-109462508D01*
X154716001Y-107616798D01*
X154732172Y-107535500D01*
X154716001Y-107454202D01*
X154716001Y-107454198D01*
X154668105Y-107213407D01*
X154485653Y-106940349D01*
X154416727Y-106894294D01*
X153676209Y-106153777D01*
X153630152Y-106084848D01*
X153357094Y-105902396D01*
X153116303Y-105854500D01*
X153116301Y-105854500D01*
X153035000Y-105838328D01*
X152953699Y-105854500D01*
X151110643Y-105854500D01*
X151529577Y-105574577D01*
X151846740Y-105099909D01*
X151930000Y-104681332D01*
X151930000Y-103598667D01*
X151846740Y-103180091D01*
X151529576Y-102705423D01*
X151438413Y-102644510D01*
X153470761Y-102644510D01*
X153425908Y-102870000D01*
G36*
X158352940Y-80793044D02*
X158677504Y-80940614D01*
X158947607Y-81173350D01*
X159141532Y-81472539D01*
X159250970Y-81838479D01*
X159265001Y-82027286D01*
X159265001Y-89104301D01*
X159194500Y-89057193D01*
X159194500Y-88854303D01*
X159210672Y-88773000D01*
X159146604Y-88450906D01*
X159010206Y-88246773D01*
X158964152Y-88177848D01*
X158895226Y-88131793D01*
X158375209Y-87611777D01*
X158329152Y-87542848D01*
X158056094Y-87360396D01*
X157815303Y-87312500D01*
X157815301Y-87312500D01*
X157734000Y-87296328D01*
X157652699Y-87312500D01*
X154773933Y-87312500D01*
X152971500Y-85510068D01*
X152971500Y-85171297D01*
X152987671Y-85089999D01*
X152971500Y-85008701D01*
X152971500Y-85008697D01*
X152923604Y-84767906D01*
X152741152Y-84494848D01*
X152672226Y-84448793D01*
X151778864Y-83555431D01*
X153765000Y-83555431D01*
X153765000Y-84444569D01*
X154105259Y-85266026D01*
X154733974Y-85894741D01*
X155555431Y-86235000D01*
X156444569Y-86235000D01*
X157266026Y-85894741D01*
X157894741Y-85266026D01*
X158235000Y-84444569D01*
X158235000Y-83555431D01*
X157894741Y-82733974D01*
X157266026Y-82105259D01*
X156444569Y-81765000D01*
X155555431Y-81765000D01*
X154733974Y-82105259D01*
X154105259Y-82733974D01*
X153765000Y-83555431D01*
X151778864Y-83555431D01*
X151517209Y-83293777D01*
X151471152Y-83224848D01*
X151198094Y-83042396D01*
X150957303Y-82994500D01*
X150957301Y-82994500D01*
X150876000Y-82978328D01*
X150794699Y-82994500D01*
X146893297Y-82994500D01*
X146811999Y-82978329D01*
X146730702Y-82994500D01*
X146730697Y-82994500D01*
X146489906Y-83042396D01*
X146216848Y-83224848D01*
X146170791Y-83293777D01*
X146158775Y-83305793D01*
X146089849Y-83351848D01*
X146043794Y-83420774D01*
X145907397Y-83624906D01*
X145843328Y-83947000D01*
X145859501Y-84028306D01*
X145859501Y-84405461D01*
X145815493Y-84423690D01*
X145383690Y-84855493D01*
X145150000Y-85419670D01*
X145150000Y-86030330D01*
X145383690Y-86594507D01*
X145815493Y-87026310D01*
X146379670Y-87260000D01*
X146990330Y-87260000D01*
X147554507Y-87026310D01*
X147723725Y-86857092D01*
X147726843Y-86872765D01*
X147867191Y-87082809D01*
X148077235Y-87223157D01*
X148325000Y-87272440D01*
X150050501Y-87272440D01*
X150050500Y-91002602D01*
X150018191Y-91024191D01*
X149877843Y-91234235D01*
X149828560Y-91482000D01*
X149828560Y-93382000D01*
X149877843Y-93629765D01*
X150018191Y-93839809D01*
X150228235Y-93980157D01*
X150476000Y-94029440D01*
X151276000Y-94029440D01*
X151523765Y-93980157D01*
X151619000Y-93916523D01*
X151619000Y-93931874D01*
X151776569Y-94312280D01*
X152067720Y-94603431D01*
X152448126Y-94761000D01*
X152859874Y-94761000D01*
X153240280Y-94603431D01*
X153531431Y-94312280D01*
X153689000Y-93931874D01*
X153689000Y-93588322D01*
X154024000Y-93588322D01*
X154271765Y-93539039D01*
X154375091Y-93469999D01*
X154384301Y-93479209D01*
X154617690Y-93575882D01*
X154908250Y-93575882D01*
X155067000Y-93417132D01*
X155067000Y-92467882D01*
X155047000Y-92467882D01*
X155047000Y-92213882D01*
X155067000Y-92213882D01*
X155067000Y-92193882D01*
X155321000Y-92193882D01*
X155321000Y-92213882D01*
X155341000Y-92213882D01*
X155341000Y-92467882D01*
X155321000Y-92467882D01*
X155321000Y-93417132D01*
X155479750Y-93575882D01*
X155683000Y-93575882D01*
X155683000Y-93931874D01*
X155840569Y-94312280D01*
X156131720Y-94603431D01*
X156512126Y-94761000D01*
X156647467Y-94761000D01*
X156654500Y-94796360D01*
X156654500Y-95059500D01*
X153751303Y-95059500D01*
X153670000Y-95043328D01*
X153588697Y-95059500D01*
X153347906Y-95107396D01*
X153074848Y-95289848D01*
X153028793Y-95358774D01*
X152508775Y-95878793D01*
X152439849Y-95924848D01*
X152257397Y-96197906D01*
X152214965Y-96411226D01*
X152193328Y-96520000D01*
X152209500Y-96601301D01*
X152209500Y-96813067D01*
X151922244Y-97100323D01*
X151930000Y-97061332D01*
X151930000Y-95978667D01*
X151846740Y-95560091D01*
X151529576Y-95085423D01*
X151054908Y-94768260D01*
X150495000Y-94656887D01*
X149935091Y-94768260D01*
X149460423Y-95085424D01*
X149225000Y-95437759D01*
X148989576Y-95085423D01*
X148514908Y-94768260D01*
X147955000Y-94656887D01*
X147395091Y-94768260D01*
X146920423Y-95085424D01*
X146685000Y-95437759D01*
X146449576Y-95085423D01*
X145974908Y-94768260D01*
X145415000Y-94656887D01*
X144855091Y-94768260D01*
X144380423Y-95085424D01*
X144145000Y-95437759D01*
X143909576Y-95085423D01*
X143434908Y-94768260D01*
X142875000Y-94656887D01*
X142315091Y-94768260D01*
X141840423Y-95085424D01*
X141605000Y-95437759D01*
X141369576Y-95085423D01*
X140894908Y-94768260D01*
X140335000Y-94656887D01*
X139775091Y-94768260D01*
X139300423Y-95085424D01*
X139065000Y-95437759D01*
X138829576Y-95085423D01*
X138354908Y-94768260D01*
X137795000Y-94656887D01*
X137235091Y-94768260D01*
X136760423Y-95085424D01*
X136525000Y-95437759D01*
X136289576Y-95085423D01*
X135814908Y-94768260D01*
X135255000Y-94656887D01*
X134695091Y-94768260D01*
X134220423Y-95085424D01*
X133982501Y-95441499D01*
X133639896Y-95015500D01*
X133146819Y-94745633D01*
X133064039Y-94728096D01*
X132842000Y-94850085D01*
X132842000Y-96393000D01*
X132862000Y-96393000D01*
X132862000Y-96647000D01*
X132842000Y-96647000D01*
X132842000Y-98189915D01*
X133064039Y-98311904D01*
X133146819Y-98294367D01*
X133639896Y-98024500D01*
X133982501Y-97598501D01*
X134220424Y-97954577D01*
X134695092Y-98271740D01*
X135255000Y-98383113D01*
X135814909Y-98271740D01*
X136289577Y-97954577D01*
X136525000Y-97602241D01*
X136753601Y-97944365D01*
X136753601Y-98628637D01*
X136093639Y-99288600D01*
X134087562Y-99288600D01*
X133984999Y-99268199D01*
X133882436Y-99288600D01*
X133882432Y-99288600D01*
X133578666Y-99349023D01*
X133578664Y-99349024D01*
X133578665Y-99349024D01*
X133321145Y-99521093D01*
X133321144Y-99521094D01*
X133234193Y-99579193D01*
X133176094Y-99666144D01*
X132051146Y-100791092D01*
X131964193Y-100849193D01*
X131734023Y-101193667D01*
X131673600Y-101497433D01*
X131673600Y-101497436D01*
X131653199Y-101600000D01*
X131673600Y-101702564D01*
X131673600Y-102715635D01*
X131445000Y-103057759D01*
X131209576Y-102705423D01*
X130935458Y-102522263D01*
X131052431Y-102405290D01*
X131210000Y-102024884D01*
X131210000Y-101613136D01*
X131052431Y-101232730D01*
X130761280Y-100941579D01*
X130380874Y-100784010D01*
X130085103Y-100784010D01*
X130037293Y-100774500D01*
X130037291Y-100774500D01*
X129955990Y-100758328D01*
X129874689Y-100774500D01*
X123828211Y-100774500D01*
X123776280Y-100722569D01*
X123395874Y-100565000D01*
X122984126Y-100565000D01*
X122603720Y-100722569D01*
X122406861Y-100919428D01*
X121050000Y-99562568D01*
X121050000Y-99489126D01*
X120892431Y-99108720D01*
X120601280Y-98817569D01*
X120220874Y-98660000D01*
X119809126Y-98660000D01*
X119428720Y-98817569D01*
X119137569Y-99108720D01*
X119044368Y-99333727D01*
X118950874Y-99295000D01*
X118539126Y-99295000D01*
X118158720Y-99452569D01*
X117867569Y-99743720D01*
X117710000Y-100124126D01*
X117710000Y-100535874D01*
X117867569Y-100916280D01*
X118158720Y-101207431D01*
X118539126Y-101365000D01*
X118612568Y-101365000D01*
X119189500Y-101941933D01*
X119189500Y-102565723D01*
X118980423Y-102705424D01*
X118899785Y-102826107D01*
X118873157Y-102692235D01*
X118732809Y-102482191D01*
X118522765Y-102341843D01*
X118275000Y-102292560D01*
X116675000Y-102292560D01*
X116427235Y-102341843D01*
X116217191Y-102482191D01*
X116076843Y-102692235D01*
X116027560Y-102940000D01*
X116027560Y-105340000D01*
X116076843Y-105587765D01*
X116217191Y-105797809D01*
X116427235Y-105938157D01*
X116675000Y-105987440D01*
X117755007Y-105987440D01*
X117919500Y-106151933D01*
X117919501Y-107007193D01*
X117837191Y-107062191D01*
X117704886Y-107260198D01*
X117672809Y-107212191D01*
X117462765Y-107071843D01*
X117215000Y-107022560D01*
X116465000Y-107022560D01*
X116217235Y-107071843D01*
X116007191Y-107212191D01*
X115866843Y-107422235D01*
X115817560Y-107670000D01*
X115817560Y-108870000D01*
X115866843Y-109117765D01*
X115935155Y-109220000D01*
X115866843Y-109322235D01*
X115862414Y-109344500D01*
X113051933Y-109344500D01*
X112507433Y-108800000D01*
X112522002Y-108800000D01*
X112522002Y-108635820D01*
X112751892Y-108756486D01*
X113276358Y-108510183D01*
X113666645Y-108081924D01*
X113836476Y-107671890D01*
X113715155Y-107442000D01*
X112522000Y-107442000D01*
X112522000Y-107462000D01*
X112268000Y-107462000D01*
X112268000Y-107442000D01*
X112248000Y-107442000D01*
X112248000Y-107188000D01*
X112268000Y-107188000D01*
X112268000Y-107168000D01*
X112522000Y-107168000D01*
X112522000Y-107188000D01*
X113715155Y-107188000D01*
X113836476Y-106958110D01*
X113666645Y-106548076D01*
X113276358Y-106119817D01*
X113146522Y-106058843D01*
X113465625Y-105845625D01*
X113793839Y-105354418D01*
X113909092Y-104775000D01*
X113793839Y-104195582D01*
X113465625Y-103704375D01*
X113167239Y-103505000D01*
X113465625Y-103305625D01*
X113793839Y-102814418D01*
X113909092Y-102235000D01*
X113793839Y-101655582D01*
X113465625Y-101164375D01*
X113167239Y-100965000D01*
X113465625Y-100765625D01*
X113793839Y-100274418D01*
X113909092Y-99695000D01*
X113793839Y-99115582D01*
X113465625Y-98624375D01*
X113167239Y-98425000D01*
X113465625Y-98225625D01*
X113793839Y-97734418D01*
X113909092Y-97155000D01*
X113793839Y-96575582D01*
X113465625Y-96084375D01*
X113447381Y-96072184D01*
X113492765Y-96063157D01*
X113619210Y-95978668D01*
X116040000Y-95978668D01*
X116040000Y-97061333D01*
X116123260Y-97479909D01*
X116440424Y-97954577D01*
X116915092Y-98271740D01*
X117475000Y-98383113D01*
X118034909Y-98271740D01*
X118509577Y-97954577D01*
X118745000Y-97602241D01*
X118980424Y-97954577D01*
X119455092Y-98271740D01*
X120015000Y-98383113D01*
X120574909Y-98271740D01*
X121049577Y-97954577D01*
X121285000Y-97602241D01*
X121520424Y-97954577D01*
X121995092Y-98271740D01*
X122555000Y-98383113D01*
X123114909Y-98271740D01*
X123589577Y-97954577D01*
X123825000Y-97602241D01*
X124060424Y-97954577D01*
X124535092Y-98271740D01*
X125095000Y-98383113D01*
X125654909Y-98271740D01*
X126129577Y-97954577D01*
X126365000Y-97602241D01*
X126600424Y-97954577D01*
X127075092Y-98271740D01*
X127635000Y-98383113D01*
X128194909Y-98271740D01*
X128669577Y-97954577D01*
X128905000Y-97602241D01*
X129140424Y-97954577D01*
X129615092Y-98271740D01*
X130175000Y-98383113D01*
X130734909Y-98271740D01*
X131209577Y-97954577D01*
X131447499Y-97598501D01*
X131790104Y-98024500D01*
X132283181Y-98294367D01*
X132365961Y-98311904D01*
X132588000Y-98189915D01*
X132588000Y-96647000D01*
X132568000Y-96647000D01*
X132568000Y-96393000D01*
X132588000Y-96393000D01*
X132588000Y-94850085D01*
X132365961Y-94728096D01*
X132283181Y-94745633D01*
X131790104Y-95015500D01*
X131447499Y-95441499D01*
X131209576Y-95085423D01*
X130734908Y-94768260D01*
X130175000Y-94656887D01*
X129615091Y-94768260D01*
X129140423Y-95085424D01*
X128905000Y-95437759D01*
X128669576Y-95085423D01*
X128194908Y-94768260D01*
X127635000Y-94656887D01*
X127075091Y-94768260D01*
X126600423Y-95085424D01*
X126365000Y-95437759D01*
X126129576Y-95085423D01*
X125654908Y-94768260D01*
X125095000Y-94656887D01*
X124535091Y-94768260D01*
X124060423Y-95085424D01*
X123825000Y-95437759D01*
X123589576Y-95085423D01*
X123114908Y-94768260D01*
X122555000Y-94656887D01*
X121995091Y-94768260D01*
X121520423Y-95085424D01*
X121285000Y-95437759D01*
X121049576Y-95085423D01*
X120847220Y-94950213D01*
X121626933Y-94170500D01*
X135933829Y-94170500D01*
X136015130Y-94186672D01*
X136096431Y-94170500D01*
X136096433Y-94170500D01*
X136337224Y-94122604D01*
X136610282Y-93940152D01*
X136656339Y-93871223D01*
X139210226Y-91317337D01*
X139279152Y-91271282D01*
X139339487Y-91180985D01*
X139364696Y-91185999D01*
X139364700Y-91185999D01*
X139445998Y-91202170D01*
X139527296Y-91185999D01*
X141968200Y-91185999D01*
X142049501Y-91202171D01*
X142130802Y-91185999D01*
X142130804Y-91185999D01*
X142371595Y-91138103D01*
X142644653Y-90955651D01*
X142690710Y-90886722D01*
X143401226Y-90176207D01*
X143470152Y-90130152D01*
X143652604Y-89857094D01*
X143680321Y-89717750D01*
X148891000Y-89717750D01*
X148891000Y-90508309D01*
X148987673Y-90741698D01*
X149166301Y-90920327D01*
X149399690Y-91017000D01*
X149640250Y-91017000D01*
X149799000Y-90858250D01*
X149799000Y-89559000D01*
X149049750Y-89559000D01*
X148891000Y-89717750D01*
X143680321Y-89717750D01*
X143700500Y-89616303D01*
X143700500Y-89616302D01*
X143706807Y-89584592D01*
X143782809Y-89533809D01*
X143923157Y-89323765D01*
X143972440Y-89076000D01*
X143972440Y-88355691D01*
X148891000Y-88355691D01*
X148891000Y-89146250D01*
X149049750Y-89305000D01*
X149799000Y-89305000D01*
X149799000Y-88005750D01*
X149640250Y-87847000D01*
X149399690Y-87847000D01*
X149166301Y-87943673D01*
X148987673Y-88122302D01*
X148891000Y-88355691D01*
X143972440Y-88355691D01*
X143972440Y-87876000D01*
X143923157Y-87628235D01*
X143782809Y-87418191D01*
X143719666Y-87376000D01*
X143782809Y-87333809D01*
X143923157Y-87123765D01*
X143972440Y-86876000D01*
X143972440Y-85676000D01*
X143923157Y-85428235D01*
X143782809Y-85218191D01*
X143572765Y-85077843D01*
X143325000Y-85028560D01*
X142425000Y-85028560D01*
X142177235Y-85077843D01*
X141986000Y-85205623D01*
X141794765Y-85077843D01*
X141646195Y-85048291D01*
X141833036Y-85011126D01*
X142539249Y-84539249D01*
X143011126Y-83833036D01*
X143176827Y-83000000D01*
X143011126Y-82166964D01*
X142539249Y-81460751D01*
X141833036Y-80988874D01*
X141210279Y-80865000D01*
X128789721Y-80865000D01*
X128166964Y-80988874D01*
X127460751Y-81460751D01*
X126988874Y-82166964D01*
X126823173Y-83000000D01*
X126988874Y-83833036D01*
X127460751Y-84539249D01*
X128166964Y-85011126D01*
X128789721Y-85135000D01*
X140313694Y-85135000D01*
X140189191Y-85218191D01*
X140048843Y-85428235D01*
X140044414Y-85450500D01*
X135420297Y-85450500D01*
X135338999Y-85434329D01*
X135257701Y-85450500D01*
X135257697Y-85450500D01*
X135016906Y-85498396D01*
X134743848Y-85680848D01*
X134697793Y-85749774D01*
X133643068Y-86804500D01*
X127735440Y-86804500D01*
X127735440Y-85256000D01*
X127686157Y-85008235D01*
X127545809Y-84798191D01*
X127335765Y-84657843D01*
X127088000Y-84608560D01*
X125388000Y-84608560D01*
X125140235Y-84657843D01*
X124930191Y-84798191D01*
X124789843Y-85008235D01*
X124780816Y-85053619D01*
X124768625Y-85035375D01*
X124277418Y-84707161D01*
X123844256Y-84621000D01*
X123551744Y-84621000D01*
X123118582Y-84707161D01*
X122627375Y-85035375D01*
X122428000Y-85333761D01*
X122228625Y-85035375D01*
X121737418Y-84707161D01*
X121304256Y-84621000D01*
X121011744Y-84621000D01*
X120578582Y-84707161D01*
X120087375Y-85035375D01*
X119874157Y-85354478D01*
X119813183Y-85224642D01*
X119384924Y-84834355D01*
X118974890Y-84664524D01*
X118745000Y-84785845D01*
X118745000Y-85979000D01*
X118765000Y-85979000D01*
X118765000Y-86233000D01*
X118745000Y-86233000D01*
X118745000Y-87426155D01*
X118974890Y-87547476D01*
X119384924Y-87377645D01*
X119813183Y-86987358D01*
X119874157Y-86857522D01*
X120087375Y-87176625D01*
X120321266Y-87332906D01*
X120365276Y-87554157D01*
X120380397Y-87630175D01*
X120562849Y-87903233D01*
X120631775Y-87949288D01*
X120838710Y-88156223D01*
X120884767Y-88225152D01*
X121157825Y-88407604D01*
X121398616Y-88455500D01*
X121398621Y-88455500D01*
X121479918Y-88471671D01*
X121561216Y-88455500D01*
X130310084Y-88455500D01*
X130263392Y-88618287D01*
X131064000Y-89418895D01*
X131864608Y-88618287D01*
X131817916Y-88455500D01*
X132771343Y-88455500D01*
X132419680Y-88807163D01*
X132340572Y-88998147D01*
X132286397Y-88867357D01*
X132044213Y-88797892D01*
X131243605Y-89598500D01*
X132044213Y-90399108D01*
X132286397Y-90329643D01*
X132336535Y-90189107D01*
X132419680Y-90389837D01*
X132812663Y-90782820D01*
X133326119Y-90995500D01*
X133579567Y-90995500D01*
X132636579Y-91938489D01*
X120912308Y-91938489D01*
X120831010Y-91922318D01*
X120749712Y-91938489D01*
X120749708Y-91938489D01*
X120508917Y-91986385D01*
X120235859Y-92168837D01*
X120189804Y-92237763D01*
X117721624Y-94705944D01*
X117475000Y-94656887D01*
X116915091Y-94768260D01*
X116440423Y-95085424D01*
X116123260Y-95560092D01*
X116040000Y-95978668D01*
X113619210Y-95978668D01*
X113702809Y-95922809D01*
X113843157Y-95712765D01*
X113892440Y-95465000D01*
X113892440Y-93765000D01*
X113843157Y-93517235D01*
X113702809Y-93307191D01*
X113492765Y-93166843D01*
X113245000Y-93117560D01*
X111545000Y-93117560D01*
X111297235Y-93166843D01*
X111087191Y-93307191D01*
X110946843Y-93517235D01*
X110897560Y-93765000D01*
X110897560Y-93826326D01*
X110841906Y-93837396D01*
X110735000Y-93908828D01*
X110735000Y-90578713D01*
X130263392Y-90578713D01*
X130332857Y-90820897D01*
X130856302Y-91007644D01*
X131411368Y-90979862D01*
X131795143Y-90820897D01*
X131864608Y-90578713D01*
X131064000Y-89778105D01*
X130263392Y-90578713D01*
X110735000Y-90578713D01*
X110735000Y-89390802D01*
X129654856Y-89390802D01*
X129682638Y-89945868D01*
X129841603Y-90329643D01*
X130083787Y-90399108D01*
X130884395Y-89598500D01*
X130083787Y-88797892D01*
X129841603Y-88867357D01*
X129654856Y-89390802D01*
X110735000Y-89390802D01*
X110735000Y-86462892D01*
X117176514Y-86462892D01*
X117422817Y-86987358D01*
X117851076Y-87377645D01*
X118261110Y-87547476D01*
X118491000Y-87426155D01*
X118491000Y-86233000D01*
X117297181Y-86233000D01*
X117176514Y-86462892D01*
X110735000Y-86462892D01*
X110735000Y-83555431D01*
X111765000Y-83555431D01*
X111765000Y-84444569D01*
X112105259Y-85266026D01*
X112733974Y-85894741D01*
X113555431Y-86235000D01*
X114444569Y-86235000D01*
X115266026Y-85894741D01*
X115411659Y-85749108D01*
X117176514Y-85749108D01*
X117297181Y-85979000D01*
X118491000Y-85979000D01*
X118491000Y-84785845D01*
X118261110Y-84664524D01*
X117851076Y-84834355D01*
X117422817Y-85224642D01*
X117176514Y-85749108D01*
X115411659Y-85749108D01*
X115894741Y-85266026D01*
X116235000Y-84444569D01*
X116235000Y-83555431D01*
X115894741Y-82733974D01*
X115266026Y-82105259D01*
X114444569Y-81765000D01*
X113555431Y-81765000D01*
X112733974Y-82105259D01*
X112105259Y-82733974D01*
X111765000Y-83555431D01*
X110735000Y-83555431D01*
X110735000Y-82052364D01*
X110793044Y-81647060D01*
X110940614Y-81322496D01*
X111173350Y-81052393D01*
X111472539Y-80858468D01*
X111838479Y-80749030D01*
X112027273Y-80735000D01*
X157947636Y-80735000D01*
X158352940Y-80793044D01*
X158352940Y-80793044D01*
G37*
X158352940Y-80793044D02*
X158677504Y-80940614D01*
X158947607Y-81173350D01*
X159141532Y-81472539D01*
X159250970Y-81838479D01*
X159265001Y-82027286D01*
X159265001Y-89104301D01*
X159194500Y-89057193D01*
X159194500Y-88854303D01*
X159210672Y-88773000D01*
X159146604Y-88450906D01*
X159010206Y-88246773D01*
X158964152Y-88177848D01*
X158895226Y-88131793D01*
X158375209Y-87611777D01*
X158329152Y-87542848D01*
X158056094Y-87360396D01*
X157815303Y-87312500D01*
X157815301Y-87312500D01*
X157734000Y-87296328D01*
X157652699Y-87312500D01*
X154773933Y-87312500D01*
X152971500Y-85510068D01*
X152971500Y-85171297D01*
X152987671Y-85089999D01*
X152971500Y-85008701D01*
X152971500Y-85008697D01*
X152923604Y-84767906D01*
X152741152Y-84494848D01*
X152672226Y-84448793D01*
X151778864Y-83555431D01*
X153765000Y-83555431D01*
X153765000Y-84444569D01*
X154105259Y-85266026D01*
X154733974Y-85894741D01*
X155555431Y-86235000D01*
X156444569Y-86235000D01*
X157266026Y-85894741D01*
X157894741Y-85266026D01*
X158235000Y-84444569D01*
X158235000Y-83555431D01*
X157894741Y-82733974D01*
X157266026Y-82105259D01*
X156444569Y-81765000D01*
X155555431Y-81765000D01*
X154733974Y-82105259D01*
X154105259Y-82733974D01*
X153765000Y-83555431D01*
X151778864Y-83555431D01*
X151517209Y-83293777D01*
X151471152Y-83224848D01*
X151198094Y-83042396D01*
X150957303Y-82994500D01*
X150957301Y-82994500D01*
X150876000Y-82978328D01*
X150794699Y-82994500D01*
X146893297Y-82994500D01*
X146811999Y-82978329D01*
X146730702Y-82994500D01*
X146730697Y-82994500D01*
X146489906Y-83042396D01*
X146216848Y-83224848D01*
X146170791Y-83293777D01*
X146158775Y-83305793D01*
X146089849Y-83351848D01*
X146043794Y-83420774D01*
X145907397Y-83624906D01*
X145843328Y-83947000D01*
X145859501Y-84028306D01*
X145859501Y-84405461D01*
X145815493Y-84423690D01*
X145383690Y-84855493D01*
X145150000Y-85419670D01*
X145150000Y-86030330D01*
X145383690Y-86594507D01*
X145815493Y-87026310D01*
X146379670Y-87260000D01*
X146990330Y-87260000D01*
X147554507Y-87026310D01*
X147723725Y-86857092D01*
X147726843Y-86872765D01*
X147867191Y-87082809D01*
X148077235Y-87223157D01*
X148325000Y-87272440D01*
X150050501Y-87272440D01*
X150050500Y-91002602D01*
X150018191Y-91024191D01*
X149877843Y-91234235D01*
X149828560Y-91482000D01*
X149828560Y-93382000D01*
X149877843Y-93629765D01*
X150018191Y-93839809D01*
X150228235Y-93980157D01*
X150476000Y-94029440D01*
X151276000Y-94029440D01*
X151523765Y-93980157D01*
X151619000Y-93916523D01*
X151619000Y-93931874D01*
X151776569Y-94312280D01*
X152067720Y-94603431D01*
X152448126Y-94761000D01*
X152859874Y-94761000D01*
X153240280Y-94603431D01*
X153531431Y-94312280D01*
X153689000Y-93931874D01*
X153689000Y-93588322D01*
X154024000Y-93588322D01*
X154271765Y-93539039D01*
X154375091Y-93469999D01*
X154384301Y-93479209D01*
X154617690Y-93575882D01*
X154908250Y-93575882D01*
X155067000Y-93417132D01*
X155067000Y-92467882D01*
X155047000Y-92467882D01*
X155047000Y-92213882D01*
X155067000Y-92213882D01*
X155067000Y-92193882D01*
X155321000Y-92193882D01*
X155321000Y-92213882D01*
X155341000Y-92213882D01*
X155341000Y-92467882D01*
X155321000Y-92467882D01*
X155321000Y-93417132D01*
X155479750Y-93575882D01*
X155683000Y-93575882D01*
X155683000Y-93931874D01*
X155840569Y-94312280D01*
X156131720Y-94603431D01*
X156512126Y-94761000D01*
X156647467Y-94761000D01*
X156654500Y-94796360D01*
X156654500Y-95059500D01*
X153751303Y-95059500D01*
X153670000Y-95043328D01*
X153588697Y-95059500D01*
X153347906Y-95107396D01*
X153074848Y-95289848D01*
X153028793Y-95358774D01*
X152508775Y-95878793D01*
X152439849Y-95924848D01*
X152257397Y-96197906D01*
X152214965Y-96411226D01*
X152193328Y-96520000D01*
X152209500Y-96601301D01*
X152209500Y-96813067D01*
X151922244Y-97100323D01*
X151930000Y-97061332D01*
X151930000Y-95978667D01*
X151846740Y-95560091D01*
X151529576Y-95085423D01*
X151054908Y-94768260D01*
X150495000Y-94656887D01*
X149935091Y-94768260D01*
X149460423Y-95085424D01*
X149225000Y-95437759D01*
X148989576Y-95085423D01*
X148514908Y-94768260D01*
X147955000Y-94656887D01*
X147395091Y-94768260D01*
X146920423Y-95085424D01*
X146685000Y-95437759D01*
X146449576Y-95085423D01*
X145974908Y-94768260D01*
X145415000Y-94656887D01*
X144855091Y-94768260D01*
X144380423Y-95085424D01*
X144145000Y-95437759D01*
X143909576Y-95085423D01*
X143434908Y-94768260D01*
X142875000Y-94656887D01*
X142315091Y-94768260D01*
X141840423Y-95085424D01*
X141605000Y-95437759D01*
X141369576Y-95085423D01*
X140894908Y-94768260D01*
X140335000Y-94656887D01*
X139775091Y-94768260D01*
X139300423Y-95085424D01*
X139065000Y-95437759D01*
X138829576Y-95085423D01*
X138354908Y-94768260D01*
X137795000Y-94656887D01*
X137235091Y-94768260D01*
X136760423Y-95085424D01*
X136525000Y-95437759D01*
X136289576Y-95085423D01*
X135814908Y-94768260D01*
X135255000Y-94656887D01*
X134695091Y-94768260D01*
X134220423Y-95085424D01*
X133982501Y-95441499D01*
X133639896Y-95015500D01*
X133146819Y-94745633D01*
X133064039Y-94728096D01*
X132842000Y-94850085D01*
X132842000Y-96393000D01*
X132862000Y-96393000D01*
X132862000Y-96647000D01*
X132842000Y-96647000D01*
X132842000Y-98189915D01*
X133064039Y-98311904D01*
X133146819Y-98294367D01*
X133639896Y-98024500D01*
X133982501Y-97598501D01*
X134220424Y-97954577D01*
X134695092Y-98271740D01*
X135255000Y-98383113D01*
X135814909Y-98271740D01*
X136289577Y-97954577D01*
X136525000Y-97602241D01*
X136753601Y-97944365D01*
X136753601Y-98628637D01*
X136093639Y-99288600D01*
X134087562Y-99288600D01*
X133984999Y-99268199D01*
X133882436Y-99288600D01*
X133882432Y-99288600D01*
X133578666Y-99349023D01*
X133578664Y-99349024D01*
X133578665Y-99349024D01*
X133321145Y-99521093D01*
X133321144Y-99521094D01*
X133234193Y-99579193D01*
X133176094Y-99666144D01*
X132051146Y-100791092D01*
X131964193Y-100849193D01*
X131734023Y-101193667D01*
X131673600Y-101497433D01*
X131673600Y-101497436D01*
X131653199Y-101600000D01*
X131673600Y-101702564D01*
X131673600Y-102715635D01*
X131445000Y-103057759D01*
X131209576Y-102705423D01*
X130935458Y-102522263D01*
X131052431Y-102405290D01*
X131210000Y-102024884D01*
X131210000Y-101613136D01*
X131052431Y-101232730D01*
X130761280Y-100941579D01*
X130380874Y-100784010D01*
X130085103Y-100784010D01*
X130037293Y-100774500D01*
X130037291Y-100774500D01*
X129955990Y-100758328D01*
X129874689Y-100774500D01*
X123828211Y-100774500D01*
X123776280Y-100722569D01*
X123395874Y-100565000D01*
X122984126Y-100565000D01*
X122603720Y-100722569D01*
X122406861Y-100919428D01*
X121050000Y-99562568D01*
X121050000Y-99489126D01*
X120892431Y-99108720D01*
X120601280Y-98817569D01*
X120220874Y-98660000D01*
X119809126Y-98660000D01*
X119428720Y-98817569D01*
X119137569Y-99108720D01*
X119044368Y-99333727D01*
X118950874Y-99295000D01*
X118539126Y-99295000D01*
X118158720Y-99452569D01*
X117867569Y-99743720D01*
X117710000Y-100124126D01*
X117710000Y-100535874D01*
X117867569Y-100916280D01*
X118158720Y-101207431D01*
X118539126Y-101365000D01*
X118612568Y-101365000D01*
X119189500Y-101941933D01*
X119189500Y-102565723D01*
X118980423Y-102705424D01*
X118899785Y-102826107D01*
X118873157Y-102692235D01*
X118732809Y-102482191D01*
X118522765Y-102341843D01*
X118275000Y-102292560D01*
X116675000Y-102292560D01*
X116427235Y-102341843D01*
X116217191Y-102482191D01*
X116076843Y-102692235D01*
X116027560Y-102940000D01*
X116027560Y-105340000D01*
X116076843Y-105587765D01*
X116217191Y-105797809D01*
X116427235Y-105938157D01*
X116675000Y-105987440D01*
X117755007Y-105987440D01*
X117919500Y-106151933D01*
X117919501Y-107007193D01*
X117837191Y-107062191D01*
X117704886Y-107260198D01*
X117672809Y-107212191D01*
X117462765Y-107071843D01*
X117215000Y-107022560D01*
X116465000Y-107022560D01*
X116217235Y-107071843D01*
X116007191Y-107212191D01*
X115866843Y-107422235D01*
X115817560Y-107670000D01*
X115817560Y-108870000D01*
X115866843Y-109117765D01*
X115935155Y-109220000D01*
X115866843Y-109322235D01*
X115862414Y-109344500D01*
X113051933Y-109344500D01*
X112507433Y-108800000D01*
X112522002Y-108800000D01*
X112522002Y-108635820D01*
X112751892Y-108756486D01*
X113276358Y-108510183D01*
X113666645Y-108081924D01*
X113836476Y-107671890D01*
X113715155Y-107442000D01*
X112522000Y-107442000D01*
X112522000Y-107462000D01*
X112268000Y-107462000D01*
X112268000Y-107442000D01*
X112248000Y-107442000D01*
X112248000Y-107188000D01*
X112268000Y-107188000D01*
X112268000Y-107168000D01*
X112522000Y-107168000D01*
X112522000Y-107188000D01*
X113715155Y-107188000D01*
X113836476Y-106958110D01*
X113666645Y-106548076D01*
X113276358Y-106119817D01*
X113146522Y-106058843D01*
X113465625Y-105845625D01*
X113793839Y-105354418D01*
X113909092Y-104775000D01*
X113793839Y-104195582D01*
X113465625Y-103704375D01*
X113167239Y-103505000D01*
X113465625Y-103305625D01*
X113793839Y-102814418D01*
X113909092Y-102235000D01*
X113793839Y-101655582D01*
X113465625Y-101164375D01*
X113167239Y-100965000D01*
X113465625Y-100765625D01*
X113793839Y-100274418D01*
X113909092Y-99695000D01*
X113793839Y-99115582D01*
X113465625Y-98624375D01*
X113167239Y-98425000D01*
X113465625Y-98225625D01*
X113793839Y-97734418D01*
X113909092Y-97155000D01*
X113793839Y-96575582D01*
X113465625Y-96084375D01*
X113447381Y-96072184D01*
X113492765Y-96063157D01*
X113619210Y-95978668D01*
X116040000Y-95978668D01*
X116040000Y-97061333D01*
X116123260Y-97479909D01*
X116440424Y-97954577D01*
X116915092Y-98271740D01*
X117475000Y-98383113D01*
X118034909Y-98271740D01*
X118509577Y-97954577D01*
X118745000Y-97602241D01*
X118980424Y-97954577D01*
X119455092Y-98271740D01*
X120015000Y-98383113D01*
X120574909Y-98271740D01*
X121049577Y-97954577D01*
X121285000Y-97602241D01*
X121520424Y-97954577D01*
X121995092Y-98271740D01*
X122555000Y-98383113D01*
X123114909Y-98271740D01*
X123589577Y-97954577D01*
X123825000Y-97602241D01*
X124060424Y-97954577D01*
X124535092Y-98271740D01*
X125095000Y-98383113D01*
X125654909Y-98271740D01*
X126129577Y-97954577D01*
X126365000Y-97602241D01*
X126600424Y-97954577D01*
X127075092Y-98271740D01*
X127635000Y-98383113D01*
X128194909Y-98271740D01*
X128669577Y-97954577D01*
X128905000Y-97602241D01*
X129140424Y-97954577D01*
X129615092Y-98271740D01*
X130175000Y-98383113D01*
X130734909Y-98271740D01*
X131209577Y-97954577D01*
X131447499Y-97598501D01*
X131790104Y-98024500D01*
X132283181Y-98294367D01*
X132365961Y-98311904D01*
X132588000Y-98189915D01*
X132588000Y-96647000D01*
X132568000Y-96647000D01*
X132568000Y-96393000D01*
X132588000Y-96393000D01*
X132588000Y-94850085D01*
X132365961Y-94728096D01*
X132283181Y-94745633D01*
X131790104Y-95015500D01*
X131447499Y-95441499D01*
X131209576Y-95085423D01*
X130734908Y-94768260D01*
X130175000Y-94656887D01*
X129615091Y-94768260D01*
X129140423Y-95085424D01*
X128905000Y-95437759D01*
X128669576Y-95085423D01*
X128194908Y-94768260D01*
X127635000Y-94656887D01*
X127075091Y-94768260D01*
X126600423Y-95085424D01*
X126365000Y-95437759D01*
X126129576Y-95085423D01*
X125654908Y-94768260D01*
X125095000Y-94656887D01*
X124535091Y-94768260D01*
X124060423Y-95085424D01*
X123825000Y-95437759D01*
X123589576Y-95085423D01*
X123114908Y-94768260D01*
X122555000Y-94656887D01*
X121995091Y-94768260D01*
X121520423Y-95085424D01*
X121285000Y-95437759D01*
X121049576Y-95085423D01*
X120847220Y-94950213D01*
X121626933Y-94170500D01*
X135933829Y-94170500D01*
X136015130Y-94186672D01*
X136096431Y-94170500D01*
X136096433Y-94170500D01*
X136337224Y-94122604D01*
X136610282Y-93940152D01*
X136656339Y-93871223D01*
X139210226Y-91317337D01*
X139279152Y-91271282D01*
X139339487Y-91180985D01*
X139364696Y-91185999D01*
X139364700Y-91185999D01*
X139445998Y-91202170D01*
X139527296Y-91185999D01*
X141968200Y-91185999D01*
X142049501Y-91202171D01*
X142130802Y-91185999D01*
X142130804Y-91185999D01*
X142371595Y-91138103D01*
X142644653Y-90955651D01*
X142690710Y-90886722D01*
X143401226Y-90176207D01*
X143470152Y-90130152D01*
X143652604Y-89857094D01*
X143680321Y-89717750D01*
X148891000Y-89717750D01*
X148891000Y-90508309D01*
X148987673Y-90741698D01*
X149166301Y-90920327D01*
X149399690Y-91017000D01*
X149640250Y-91017000D01*
X149799000Y-90858250D01*
X149799000Y-89559000D01*
X149049750Y-89559000D01*
X148891000Y-89717750D01*
X143680321Y-89717750D01*
X143700500Y-89616303D01*
X143700500Y-89616302D01*
X143706807Y-89584592D01*
X143782809Y-89533809D01*
X143923157Y-89323765D01*
X143972440Y-89076000D01*
X143972440Y-88355691D01*
X148891000Y-88355691D01*
X148891000Y-89146250D01*
X149049750Y-89305000D01*
X149799000Y-89305000D01*
X149799000Y-88005750D01*
X149640250Y-87847000D01*
X149399690Y-87847000D01*
X149166301Y-87943673D01*
X148987673Y-88122302D01*
X148891000Y-88355691D01*
X143972440Y-88355691D01*
X143972440Y-87876000D01*
X143923157Y-87628235D01*
X143782809Y-87418191D01*
X143719666Y-87376000D01*
X143782809Y-87333809D01*
X143923157Y-87123765D01*
X143972440Y-86876000D01*
X143972440Y-85676000D01*
X143923157Y-85428235D01*
X143782809Y-85218191D01*
X143572765Y-85077843D01*
X143325000Y-85028560D01*
X142425000Y-85028560D01*
X142177235Y-85077843D01*
X141986000Y-85205623D01*
X141794765Y-85077843D01*
X141646195Y-85048291D01*
X141833036Y-85011126D01*
X142539249Y-84539249D01*
X143011126Y-83833036D01*
X143176827Y-83000000D01*
X143011126Y-82166964D01*
X142539249Y-81460751D01*
X141833036Y-80988874D01*
X141210279Y-80865000D01*
X128789721Y-80865000D01*
X128166964Y-80988874D01*
X127460751Y-81460751D01*
X126988874Y-82166964D01*
X126823173Y-83000000D01*
X126988874Y-83833036D01*
X127460751Y-84539249D01*
X128166964Y-85011126D01*
X128789721Y-85135000D01*
X140313694Y-85135000D01*
X140189191Y-85218191D01*
X140048843Y-85428235D01*
X140044414Y-85450500D01*
X135420297Y-85450500D01*
X135338999Y-85434329D01*
X135257701Y-85450500D01*
X135257697Y-85450500D01*
X135016906Y-85498396D01*
X134743848Y-85680848D01*
X134697793Y-85749774D01*
X133643068Y-86804500D01*
X127735440Y-86804500D01*
X127735440Y-85256000D01*
X127686157Y-85008235D01*
X127545809Y-84798191D01*
X127335765Y-84657843D01*
X127088000Y-84608560D01*
X125388000Y-84608560D01*
X125140235Y-84657843D01*
X124930191Y-84798191D01*
X124789843Y-85008235D01*
X124780816Y-85053619D01*
X124768625Y-85035375D01*
X124277418Y-84707161D01*
X123844256Y-84621000D01*
X123551744Y-84621000D01*
X123118582Y-84707161D01*
X122627375Y-85035375D01*
X122428000Y-85333761D01*
X122228625Y-85035375D01*
X121737418Y-84707161D01*
X121304256Y-84621000D01*
X121011744Y-84621000D01*
X120578582Y-84707161D01*
X120087375Y-85035375D01*
X119874157Y-85354478D01*
X119813183Y-85224642D01*
X119384924Y-84834355D01*
X118974890Y-84664524D01*
X118745000Y-84785845D01*
X118745000Y-85979000D01*
X118765000Y-85979000D01*
X118765000Y-86233000D01*
X118745000Y-86233000D01*
X118745000Y-87426155D01*
X118974890Y-87547476D01*
X119384924Y-87377645D01*
X119813183Y-86987358D01*
X119874157Y-86857522D01*
X120087375Y-87176625D01*
X120321266Y-87332906D01*
X120365276Y-87554157D01*
X120380397Y-87630175D01*
X120562849Y-87903233D01*
X120631775Y-87949288D01*
X120838710Y-88156223D01*
X120884767Y-88225152D01*
X121157825Y-88407604D01*
X121398616Y-88455500D01*
X121398621Y-88455500D01*
X121479918Y-88471671D01*
X121561216Y-88455500D01*
X130310084Y-88455500D01*
X130263392Y-88618287D01*
X131064000Y-89418895D01*
X131864608Y-88618287D01*
X131817916Y-88455500D01*
X132771343Y-88455500D01*
X132419680Y-88807163D01*
X132340572Y-88998147D01*
X132286397Y-88867357D01*
X132044213Y-88797892D01*
X131243605Y-89598500D01*
X132044213Y-90399108D01*
X132286397Y-90329643D01*
X132336535Y-90189107D01*
X132419680Y-90389837D01*
X132812663Y-90782820D01*
X133326119Y-90995500D01*
X133579567Y-90995500D01*
X132636579Y-91938489D01*
X120912308Y-91938489D01*
X120831010Y-91922318D01*
X120749712Y-91938489D01*
X120749708Y-91938489D01*
X120508917Y-91986385D01*
X120235859Y-92168837D01*
X120189804Y-92237763D01*
X117721624Y-94705944D01*
X117475000Y-94656887D01*
X116915091Y-94768260D01*
X116440423Y-95085424D01*
X116123260Y-95560092D01*
X116040000Y-95978668D01*
X113619210Y-95978668D01*
X113702809Y-95922809D01*
X113843157Y-95712765D01*
X113892440Y-95465000D01*
X113892440Y-93765000D01*
X113843157Y-93517235D01*
X113702809Y-93307191D01*
X113492765Y-93166843D01*
X113245000Y-93117560D01*
X111545000Y-93117560D01*
X111297235Y-93166843D01*
X111087191Y-93307191D01*
X110946843Y-93517235D01*
X110897560Y-93765000D01*
X110897560Y-93826326D01*
X110841906Y-93837396D01*
X110735000Y-93908828D01*
X110735000Y-90578713D01*
X130263392Y-90578713D01*
X130332857Y-90820897D01*
X130856302Y-91007644D01*
X131411368Y-90979862D01*
X131795143Y-90820897D01*
X131864608Y-90578713D01*
X131064000Y-89778105D01*
X130263392Y-90578713D01*
X110735000Y-90578713D01*
X110735000Y-89390802D01*
X129654856Y-89390802D01*
X129682638Y-89945868D01*
X129841603Y-90329643D01*
X130083787Y-90399108D01*
X130884395Y-89598500D01*
X130083787Y-88797892D01*
X129841603Y-88867357D01*
X129654856Y-89390802D01*
X110735000Y-89390802D01*
X110735000Y-86462892D01*
X117176514Y-86462892D01*
X117422817Y-86987358D01*
X117851076Y-87377645D01*
X118261110Y-87547476D01*
X118491000Y-87426155D01*
X118491000Y-86233000D01*
X117297181Y-86233000D01*
X117176514Y-86462892D01*
X110735000Y-86462892D01*
X110735000Y-83555431D01*
X111765000Y-83555431D01*
X111765000Y-84444569D01*
X112105259Y-85266026D01*
X112733974Y-85894741D01*
X113555431Y-86235000D01*
X114444569Y-86235000D01*
X115266026Y-85894741D01*
X115411659Y-85749108D01*
X117176514Y-85749108D01*
X117297181Y-85979000D01*
X118491000Y-85979000D01*
X118491000Y-84785845D01*
X118261110Y-84664524D01*
X117851076Y-84834355D01*
X117422817Y-85224642D01*
X117176514Y-85749108D01*
X115411659Y-85749108D01*
X115894741Y-85266026D01*
X116235000Y-84444569D01*
X116235000Y-83555431D01*
X115894741Y-82733974D01*
X115266026Y-82105259D01*
X114444569Y-81765000D01*
X113555431Y-81765000D01*
X112733974Y-82105259D01*
X112105259Y-82733974D01*
X111765000Y-83555431D01*
X110735000Y-83555431D01*
X110735000Y-82052364D01*
X110793044Y-81647060D01*
X110940614Y-81322496D01*
X111173350Y-81052393D01*
X111472539Y-80858468D01*
X111838479Y-80749030D01*
X112027273Y-80735000D01*
X157947636Y-80735000D01*
X158352940Y-80793044D01*
G36*
X135382000Y-104013000D02*
X135402000Y-104013000D01*
X135402000Y-104267000D01*
X135382000Y-104267000D01*
X135382000Y-104287000D01*
X135128000Y-104287000D01*
X135128000Y-104267000D01*
X135108000Y-104267000D01*
X135108000Y-104013000D01*
X135128000Y-104013000D01*
X135128000Y-103993000D01*
X135382000Y-103993000D01*
X135382000Y-104013000D01*
X135382000Y-104013000D01*
G37*
X135382000Y-104013000D02*
X135402000Y-104013000D01*
X135402000Y-104267000D01*
X135382000Y-104267000D01*
X135382000Y-104287000D01*
X135128000Y-104287000D01*
X135128000Y-104267000D01*
X135108000Y-104267000D01*
X135108000Y-104013000D01*
X135128000Y-104013000D01*
X135128000Y-103993000D01*
X135382000Y-103993000D01*
X135382000Y-104013000D01*
G04 #@! TD*
M02*
