G04 #@! TF.GenerationSoftware,KiCad,Pcbnew,(5.0.0)*
G04 #@! TF.CreationDate,2019-04-09T22:58:22-03:00*
G04 #@! TF.ProjectId,FranzBoy,4672616E7A426F792E6B696361645F70,rev?*
G04 #@! TF.SameCoordinates,Original*
G04 #@! TF.FileFunction,Legend,Bot*
G04 #@! TF.FilePolarity,Positive*
%FSLAX46Y46*%
G04 Gerber Fmt 4.6, Leading zero omitted, Abs format (unit mm)*
G04 Created by KiCad (PCBNEW (5.0.0)) date 04/09/19 22:58:22*
%MOMM*%
%LPD*%
G01*
G04 APERTURE LIST*
%ADD10C,0.150000*%
G04 APERTURE END LIST*
D10*
G04 #@! TO.C,U3*
X133812000Y-170144000D02*
X133812000Y-152944000D01*
X133812000Y-152944000D02*
X159812000Y-152944000D01*
X159812000Y-152944000D02*
X159812000Y-170144000D01*
X159812000Y-170144000D02*
X133812000Y-170144000D01*
X159812000Y-165544000D02*
X155312000Y-165544000D01*
X155312000Y-165544000D02*
X155312000Y-157544000D01*
X155312000Y-157544000D02*
X159812000Y-157544000D01*
X159812000Y-157544000D02*
X160312000Y-157544000D01*
X160312000Y-157544000D02*
X161312000Y-156544000D01*
X161312000Y-156544000D02*
X161312000Y-166544000D01*
X161312000Y-166544000D02*
X160312000Y-165544000D01*
X160312000Y-165544000D02*
X159812000Y-165544000D01*
G04 #@! TO.C,BT1*
X134790000Y-118110000D02*
G75*
G03X134790000Y-118110000I-10175000J0D01*
G01*
X110830000Y-121860000D02*
X114080000Y-121860000D01*
X110830000Y-114360000D02*
X114080000Y-114360000D01*
X110780000Y-114360000D02*
X110780000Y-121860000D01*
X135790000Y-118110000D02*
G75*
G03X135790000Y-118110000I-11175000J0D01*
G01*
X124865714Y-118038571D02*
X124722857Y-118086190D01*
X124675238Y-118133809D01*
X124627619Y-118229047D01*
X124627619Y-118371904D01*
X124675238Y-118467142D01*
X124722857Y-118514761D01*
X124818095Y-118562380D01*
X125199047Y-118562380D01*
X125199047Y-117562380D01*
X124865714Y-117562380D01*
X124770476Y-117610000D01*
X124722857Y-117657619D01*
X124675238Y-117752857D01*
X124675238Y-117848095D01*
X124722857Y-117943333D01*
X124770476Y-117990952D01*
X124865714Y-118038571D01*
X125199047Y-118038571D01*
X124341904Y-117562380D02*
X123770476Y-117562380D01*
X124056190Y-118562380D02*
X124056190Y-117562380D01*
X122913333Y-118562380D02*
X123484761Y-118562380D01*
X123199047Y-118562380D02*
X123199047Y-117562380D01*
X123294285Y-117705238D01*
X123389523Y-117800476D01*
X123484761Y-117848095D01*
X110570952Y-118101428D02*
X109809047Y-118101428D01*
X110190000Y-118482380D02*
X110190000Y-117720476D01*
G04 #@! TD*
M02*
