M48
;DRILL file {KiCad (5.0.0)} date 04/09/19 22:58:33
;FORMAT={2:4/ absolute / inch / suppress leading zeros}
FMAT,2
INCH,TZ
T1C0.0157
T2C0.0236
T3C0.0300
T4C0.0315
T5C0.0354
T6C0.0394
T7C0.0433
T8C0.0472
T9C0.0512
T10C0.0591
T11C0.1181
%
G90
G05
M72
T1
X46750Y-39500
X47250Y-39250
X47250Y-43500
X48500Y-40000
X48500Y-62750
X51250Y-40086
X51800Y-42400
X52000Y-68250
X52750Y-68000
X53000Y-40086
X53431Y-67575
X53500Y-68250
X57250Y-61500
X58750Y-64500
X59500Y-45000
X60100Y-36900
X61000Y-43500
X61700Y-36900
X62500Y-37250
T3
X51600Y-35275
X52600Y-35275
X53600Y-35275
X54600Y-35275
T4
X52382Y-69539
X53918Y-69539
X46250Y-38000
X46250Y-41000
X47250Y-38000
X47250Y-41000
X48250Y-38000
X48250Y-41000
X49250Y-38000
X49250Y-41000
X50250Y-38000
X50250Y-41000
X51250Y-38000
X51250Y-41000
X52250Y-38000
X52250Y-41000
X53250Y-38000
X53250Y-41000
X54250Y-38000
X54250Y-41000
X55250Y-38000
X55250Y-41000
X56250Y-38000
X56250Y-41000
X57250Y-38000
X57250Y-41000
X58250Y-38000
X58250Y-41000
X59250Y-38000
X59250Y-41000
T5
X57750Y-33750
X58750Y-33750
X45250Y-61975
X45250Y-62762
X45250Y-63550
T6
X44250Y-37250
X44250Y-38250
X44250Y-39250
X44250Y-40250
X44250Y-41250
X44250Y-42250
X61000Y-38500
X61000Y-39500
X61000Y-40500
X62000Y-38500
X62000Y-39500
X62000Y-40500
X62000Y-44700
X62000Y-45700
X62000Y-46700
X62000Y-47700
X62000Y-48700
X62000Y-49700
X62000Y-50700
X46700Y-33900
X47700Y-33900
X48700Y-33900
X49700Y-33900
X52756Y-48819
X55748Y-48819
X58250Y-68250
X59250Y-68250
T7
X51575Y-54921
X51575Y-57480
X53346Y-54921
X53346Y-57480
X45276Y-54921
X45276Y-57480
X47047Y-54921
X47047Y-57480
X58268Y-51378
X58268Y-53937
X60039Y-51378
X60039Y-53937
X58250Y-56941
X58250Y-59500
X60022Y-56941
X60022Y-59500
X48425Y-50984
X48425Y-53543
X50197Y-50984
X50197Y-53543
X48425Y-58858
X48425Y-61417
X50197Y-58858
X50197Y-61417
T8
X44126Y-46500
X52000Y-46500
T9
X53400Y-60883
X53400Y-62065
X53400Y-65135
X53400Y-66317
X62400Y-60883
X62400Y-66317
T10
X45250Y-61109
X45250Y-64416
T2
X51772Y-70425G85X51772Y-70149
G05
X51870Y-69224G85X52146Y-69224
G05
X54154Y-69224G85X54430Y-69224
G05
X54528Y-70149G85X54528Y-70425
G05
T11
X50787Y-32677G85X55512Y-32677
G05
T0
M30
